<?xml version="1.0" encoding="UTF-8"?><svg id="Layer_2" xmlns="http://www.w3.org/2000/svg" viewBox="0 0 56.75 49.61"><defs><style>.cls-1{fill:#646464;stroke-width:0px;}</style></defs><g id="Layer_1-2"><path class="cls-1" d="m28.95.58c-11.54,3.16-19.91,14.49-14.11,24.68,2.58,4.53,8.38,6.8,14.19,6.23-5.81,1.13-11.61-1.7-15.48-5.66-3.87-5.1-2.58-11.33-.65-16.99-5.16,5.1-4.51,12.46-1.29,18.12,1.93,3.96,6.45,6.23,10.97,7.36,5.8,1.13,10.96-.57,14.83-4.53-3.22,3.96-7.74,6.23-13.55,5.66-9.02-.57-14.83-7.36-16.76-14.73C5.8,12.8,9.67,6.01,15.48.34,2.58,7.7,1.29,24.69,12.9,33.76c5.81,4.53,14.19,6.23,21.28,2.83,5.16-2.27,8.38-7.36,7.74-12.46,1.94,5.1-1.93,10.19-6.45,13.03-7.74,4.53-16.12,2.27-23.86-1.13,8.38,7.93,24.51,7.36,30.95-2.27,2.58-4.53,3.87-10.76,0-15.29,6.45,6.79,2.58,16.42-5.16,21.52-14.19,7.93-31.6,0-37.4-12.46,3.87,11.33,16.12,18.69,29.66,16.99,10.96-1.7,19.99-10.19,19.35-19.82-.64-5.66-5.16-10.19-10.96-12.46,6.45,2.26,11.61,7.93,12.25,14.16,0,6.8-4.51,12.46-10.32,16.99,10.97-3.97,14.83-15.29,10.97-23.78-3.23-6.8-12.26-11.33-21.28-9.06,9.03-3.4,18.71,1.14,22.57,8.5,5.8,13.02-4.52,26.05-18.06,30.58,16.77-2.83,27.08-19.25,19.35-32.85-3.87-6.79-11.61-10.76-19.99-10.19-6.45.56-10.96,4.53-13.54,9.62,1.94-4.53,5.81-8.5,10.97-10.19,7.73-2.27,14.18.57,20.63,4.53-5.16-5.66-13.54-7.92-21.28-6.23-10.32,1.7-16.77,12.46-10.96,20.95-7.1-7.93-.64-19.82,9.67-22.65,10.31-2.27,20.63,1.13,27.73,7.92C52.24,3.18,43.2.34,33.92,0c-1.66.07-3.32.27-4.98.58Z"/></g></svg>