<?xml version="1.0" encoding="UTF-8"?><svg id="Layer_2" xmlns="http://www.w3.org/2000/svg" viewBox="0 0 40.39 40.41"><defs><style>.cls-1{fill:#646464;stroke-width:0px;}</style></defs><g id="Layer_1-2"><path class="cls-1" d="m40.21.18s-12.48-1.96-21.55,7.12c-4.94,4.94-8.2,12.29-9.06,17.42v-.03c1.29.43,2.6,1.22,3.74,2.36,1.14,1.14,1.94,2.45,2.36,3.73h-.03c5.14-.85,12.49-4.12,17.43-9.05C42.17,12.66,40.21.18,40.21.18Zm-11.57,17.6c-1.66,1.66-4.36,1.66-6.02,0s-1.66-4.36,0-6.02,4.36-1.66,6.02,0c1.66,1.66,1.66,4.36,0,6.02Z"/><path class="cls-1" d="m16.25,13.23l-11.9,3.38c-.91.26-1.58,1.03-1.71,1.96l-1.39,10.04,4.37-6.51,6.21.4c.94-3.04,2.43-6.33,4.41-9.28Z"/><path class="cls-1" d="m23.78,36.04l3.38-11.9c-2.95,1.98-6.24,3.47-9.28,4.41l.4,6.21-6.51,4.37,10.04-1.39c.94-.13,1.71-.8,1.96-1.71Z"/><path class="cls-1" d="m13.1,31.12c-1.6,1.55-3.01,2.19-5.55,1.74-.45-2.54.19-3.95,1.74-5.55-7.74,1.26-6.82,8.2-9.3,13.1,4.91-2.48,11.84-1.56,13.1-9.3Z"/></g></svg>