<?xml version="1.0" encoding="UTF-8"?><svg id="Layer_2" xmlns="http://www.w3.org/2000/svg" viewBox="0 0 57.1 51.2"><defs><style>.cls-1{fill:#646464;stroke-width:0px;}</style></defs><g id="Layer_1-2"><path class="cls-1" d="m42.74,9.21c-1.24.55-1.98,1.75-2.02,3.01l-1.91.85c-1.03-2.58-1.76-5.11-2.19-7.49-3.87,1.83-5.93,5.98-5.25,10.04-2.46-3.18-6.94-4.74-11.86-4.28-1.39-.61-2.99-.96-4.72-1.01-1.9-.05-3.8.28-5.66.97C2.63,13.73-1.07,19.93.87,25.13c.25.67.58,1.29.98,1.87l-.5.22c-1.15.51-1.66,1.86-1.15,3l1.23,2.75c.51,1.15,1.85,1.66,3,1.16l1.4-.63c3.85,3.48,10.67,4.2,17.06,1.35,2.13-.94,3.99-2.2,5.54-3.63l1.04,2.35c.64,1.43-.01,3.12-1.44,3.76l-3.61,1.61-1.17-1.77c-3.82,1.58-7.76,2.03-11.27,1.47l4.73,10.64c.72,1.62,2.64,2.35,4.25,1.63l5.83-2.6c1.62-.72,2.14-2.52,1.17-4l-1.65-2.5,3.09-1.37c3.15-1.4,4.57-5.11,3.17-8.26l-1.69-3.8c1.89-2.73,2.73-5.78,2.26-8.64,2.53,3.33,7.08,4.65,11.09,2.97-1.54-1.99-2.99-4.33-4.24-6.95l1.92-.85c.97.82,2.36,1.07,3.6.52,1.72-.77,2.49-2.78,1.73-4.5-.77-1.72-2.78-2.5-4.5-1.73ZM8.64,30.47c-1.41-.04-2.52-1.22-2.48-2.63.04-1.41,1.22-2.53,2.63-2.48,1.41.04,2.52,1.21,2.48,2.63-.04,1.41-1.21,2.52-2.63,2.48Zm-5.69-5.91c-.03-.08-.07-.16-.1-.24-1.52-4.11,1.65-9.09,7.06-11.09,1.55-.57,3.19-.86,4.76-.83-.49.17-.97.36-1.46.58-5.6,2.47-9.39,7.01-10.26,11.58Zm24.71-2.94l-11.75,5.22c-.91.41-1.98,0-2.38-.91-.4-.91,0-1.98.92-2.38l11.76-5.23c.91-.4,1.98,0,2.38.92.41.91,0,1.98-.91,2.39Z"/><path class="cls-1" d="m47.42,5.33c-.62-.24-1.31.07-1.55.69-.24.62.07,1.32.69,1.56,1.18.45,2.11,1.34,2.63,2.5.51,1.16.55,2.44.09,3.63-.24.62.07,1.32.69,1.56.31.12.64.1.92-.03.28-.13.51-.36.63-.67.69-1.78.64-3.73-.14-5.47-.78-1.74-2.18-3.08-3.97-3.77Z"/><path class="cls-1" d="m48.6.08c-.62-.24-1.32.07-1.55.69-.24.62.07,1.32.69,1.56,5.59,2.15,8.38,8.44,6.23,14.02-.24.62.07,1.32.69,1.56.31.12.64.1.92-.02.28-.12.52-.36.64-.67,2.62-6.82-.79-14.51-7.62-17.13Z"/></g></svg>