<?xml version="1.0" encoding="UTF-8"?><svg id="Layer_2" xmlns="http://www.w3.org/2000/svg" viewBox="0 0 53.91 47.57"><defs><style>.cls-1{fill:#646464;stroke-width:0px;}</style></defs><g id="Layer_1-2"><path class="cls-1" d="m.23,26.35l1.34,2.82c.56,1.18,1.96,1.68,3.13,1.12l1.44-.68c4.08,3.5,11.15,4.07,17.7.95,2.18-1.04,4.08-2.38,5.64-3.9l1.14,2.41c.7,1.47.07,3.23-1.4,3.93l-3.7,1.75-1.25-1.8c-3.91,1.73-7.98,2.3-11.63,1.83l5.18,10.89c.79,1.66,2.79,2.37,4.45,1.58l5.97-2.84c1.66-.79,2.16-2.67,1.1-4.17l-1.77-2.55,3.17-1.5c3.23-1.53,4.6-5.41,3.07-8.63l-1.85-3.89c1.95-2.98,2.75-6.29,2.07-9.32l1.54-.73,2.92,6.14c.42.88,1.48,1.26,2.35.84.89-.42,1.26-1.47.84-2.36l-2.92-6.14,2.02-.96,1.34,2.82c.42.88,1.47,1.26,2.35.84.88-.42,1.26-1.48.84-2.36l-1.34-2.82,1.98-.94c1.42,1.14,3.42,1.45,5.16.62,2.44-1.16,3.47-4.07,2.31-6.51-1.16-2.43-4.07-3.47-6.51-2.31-1.75.83-2.77,2.58-2.78,4.39l-1.98.95-1.34-2.83c-.42-.88-1.47-1.26-2.35-.84-.88.42-1.26,1.48-.83,2.36l1.34,2.83-2.02.96-2.92-6.14c-.42-.88-1.47-1.26-2.35-.84-.88.42-1.25,1.47-.84,2.36l2.92,6.14-1.54.73c-2.61-3.31-7.35-4.84-12.48-4.24-1.46-.6-3.12-.92-4.91-.92-1.97,0-3.93.39-5.84,1.16C2.32,9.22-1.35,15.73.79,21.06c.28.69.64,1.32,1.07,1.91l-.51.25c-1.18.56-1.67,1.96-1.12,3.14Zm19.96-15.85c4.62-1.86,9.55-.43,11.01,3.18,1.45,3.62-1.11,8.06-5.74,9.92-4.62,1.86-9.55.43-11.01-3.18-1.45-3.62,1.11-8.06,5.74-9.92Zm-13.85,13.29c0-1.46,1.18-2.65,2.64-2.65s2.65,1.18,2.65,2.65-1.19,2.65-2.65,2.65-2.64-1.18-2.64-2.65Zm3.46-15.24c1.59-.64,3.28-.98,4.91-1-.5.19-1,.41-1.49.64-5.72,2.72-9.52,7.53-10.29,12.29-.03-.08-.08-.16-.11-.24-1.7-4.22,1.44-9.46,6.99-11.69Z"/></g></svg>