<?xml version="1.0" encoding="utf-8"?>
<!-- Generator: Adobe Illustrator 27.8.1, SVG Export Plug-In . SVG Version: 6.00 Build 0)  -->
<svg version="1.1" id="Layer_1" xmlns="http://www.w3.org/2000/svg" xmlns:xlink="http://www.w3.org/1999/xlink" x="0px" y="0px"
	 viewBox="0 0 49.8 49.7" style="enable-background:new 0 0 49.8 49.7;" xml:space="preserve">
<style type="text/css">
	.st0{fill:#646464;}
</style>
<path class="st0" d="M48.3,16.3c0,0,0-0.1-0.1-0.2c-0.1-0.3-0.2-0.6-0.4-0.9c-0.2-0.5-0.4-0.9-0.6-1.4c-0.2-0.4-0.5-0.9-0.7-1.3
	c-0.2-0.3-0.4-0.6-0.5-0.9c-0.3-0.4-0.6-0.9-0.9-1.3c-0.2-0.3-0.5-0.6-0.7-0.9c-2.4-3-5.4-5.5-8.9-7.1c-0.3-0.2-0.7-0.3-1.1-0.5
	c-0.7-0.3-1.4-0.5-2.2-0.8c-1.7-0.5-3.5-0.9-5.3-1c-2.6-0.2-5.3,0-7.9,0.6c-0.8,0.2-1.6,0.4-2.4,0.7c-1.5,0.5-2.9,1.2-4.3,2
	C10.4,4.7,8.6,6,7,7.6c-0.8,0.8-1.5,1.6-2.1,2.5c-0.2,0.3-0.4,0.6-0.6,1c-0.7,1.1-1.8,2.8-2.3,4c-0.4,1-0.8,2.1-1.1,3.3
	c-0.1,0.5-0.2,1-0.3,1.5c-0.1,0.3-0.1,0.6-0.2,0.9c-0.1,0.5-0.2,1-0.2,1.5c-0.2,1.9-0.2,3.8,0,5.6c0.1,1.2,0.4,2.4,0.8,3.6
	C1.2,32.2,1.6,33.1,2,34c0.3,0.6,0.6,1.2,0.9,1.8l0.2,0.5c0.2,0.3,0.3,0.6,0.5,0.9c0.1,0.2,0.3,0.5,0.4,0.7c0.2,0.4,0.5,0.9,0.8,1.3
	c0.3,0.5,0.7,1,1.2,1.6c0.6,0.7,1.2,1.5,1.9,2.2c0.3,0.3,1.4,1.4,1.7,1.7c3.1,2.6,6.5,3.6,10.5,4.5c0.3,0.1,0.7,0.1,1,0.2
	c3.2,0.5,6.2,0.6,9.2,0c1.1-0.2,2.6-0.6,3.7-1c0.9-0.4,2.1-0.9,3-1.4c1.7-0.9,3.6-2.3,5-3.6c0.2-0.2,0.3-0.3,0.5-0.5
	c0.2-0.2,0.5-0.5,0.7-0.7c0.3-0.3,0.5-0.5,0.7-0.8c2.3-2.7,3.9-6,4.9-9.5c0-0.1,0.1-0.2,0.1-0.4c0.1-0.5,0.2-1,0.4-1.5
	c0.1-0.3,0.1-0.6,0.2-0.8c0-0.1,0-0.2,0.1-0.4c0.1-0.4,0.1-0.7,0.2-1.1C50.1,23.8,49.6,19.9,48.3,16.3L48.3,16.3z M49.1,27.4
	C49.1,27.4,49.1,27.4,49.1,27.4L49.1,27.4C49.2,27.4,49.2,27.4,49.1,27.4c0,0.1,0,0.2,0,0.2c0,0,0,0,0,0c0,0,0,0,0,0
	C49.1,27.6,49.1,27.5,49.1,27.4C49.1,27.4,49.1,27.4,49.1,27.4L49.1,27.4z M48.7,19.9C48.7,19.9,48.7,19.9,48.7,19.9
	c0-0.1,0-0.1,0-0.1c0,0,0-0.1,0-0.1s0,0,0-0.1c0,0,0,0,0,0c0,0,0,0,0,0.1c0,0,0,0,0,0c0,0,0,0,0,0C48.8,19.9,48.8,19.9,48.7,19.9
	C48.8,19.9,48.8,20,48.7,19.9C48.8,20,48.8,20,48.7,19.9C48.7,20,48.7,20,48.7,19.9L48.7,19.9z M46.4,13.6c0-0.1,0-0.1,0-0.2
	c0-0.1,0-0.1,0-0.1c0,0,0,0,0,0c0,0,0,0,0,0C46.4,13.4,46.4,13.5,46.4,13.6C46.4,13.6,46.4,13.6,46.4,13.6
	C46.4,13.6,46.4,13.6,46.4,13.6z M42.2,7.6C42.2,7.6,42.3,7.6,42.2,7.6C42.3,7.6,42.3,7.6,42.2,7.6c0.1,0,0.1,0,0.1,0.1
	c0,0,0,0.1,0,0.1C42.3,7.8,42.2,7.8,42.2,7.6C42.2,7.7,42.2,7.7,42.2,7.6L42.2,7.6z M40.1,5.6C40.1,5.6,40.1,5.6,40.1,5.6
	C40.1,5.6,40.1,5.6,40.1,5.6c0,0.1,0,0.1,0,0.2c0,0,0,0,0,0.1c0,0,0,0,0,0c0,0,0,0,0,0C40,5.8,40,5.7,40.1,5.6
	C40,5.6,40,5.6,40.1,5.6L40.1,5.6z M39.8,5.4C39.8,5.4,39.8,5.4,39.8,5.4C39.8,5.4,39.8,5.4,39.8,5.4C39.8,5.4,39.9,5.5,39.8,5.4
	C39.8,5.5,39.8,5.5,39.8,5.4C39.8,5.5,39.7,5.5,39.8,5.4C39.7,5.5,39.7,5.5,39.8,5.4L39.8,5.4z M20.4,1.1
	C20.4,1.1,20.4,1.1,20.4,1.1C20.4,1.1,20.4,1,20.4,1.1C20.4,1.1,20.4,1.1,20.4,1.1C20.4,1.2,20.4,1.2,20.4,1.1
	C20.4,1.2,20.4,1.2,20.4,1.1C20.4,1.2,20.4,1.1,20.4,1.1C20.4,1.1,20.4,1.1,20.4,1.1L20.4,1.1z M20.2,0.9
	C20.2,0.9,20.2,0.9,20.2,0.9C20.2,0.9,20.2,0.9,20.2,0.9C20.2,0.9,20.2,1,20.2,0.9c0,0.1,0,0.1,0,0.1c0,0,0,0,0.1,0c0,0,0,0,0,0
	c0,0,0,0,0,0c0,0,0,0,0,0s0,0,0,0s0,0,0,0c0,0,0,0.1-0.1,0.1c0,0,0,0-0.1,0s0,0,0,0c0,0,0,0,0,0c0,0,0,0,0-0.1
	C20.1,1,20.1,0.9,20.2,0.9L20.2,0.9z M16.7,1.9C16.7,1.9,16.8,1.8,16.7,1.9c0.1,0,0.1,0,0.1,0.1c0,0,0,0,0,0.1c0,0,0,0,0,0
	c0,0,0,0,0,0C16.7,1.9,16.7,1.9,16.7,1.9L16.7,1.9z M16,2.3C16,2.3,16,2.3,16,2.3C16.1,2.3,16.1,2.4,16,2.3c0,0.1,0,0.1,0,0.1
	c0,0,0,0,0,0C16,2.5,15.9,2.4,16,2.3C15.9,2.3,16,2.3,16,2.3z M14.9,2.7C14.9,2.7,14.9,2.7,14.9,2.7C14.9,2.7,14.9,2.7,14.9,2.7
	C14.9,2.7,15,2.7,14.9,2.7C15,2.8,15,2.8,14.9,2.7c0,0.1,0,0.1,0,0.1C14.9,2.8,14.9,2.8,14.9,2.7C14.9,2.8,14.9,2.8,14.9,2.7
	L14.9,2.7z M14,3.2C14,3.2,14.1,3.2,14,3.2C14.1,3.2,14.1,3.2,14,3.2c0.1,0.1,0,0.1,0,0.1C14,3.3,14,3.3,14,3.2
	C14,3.3,14,3.2,14,3.2L14,3.2z M11.2,4.8C11.2,4.8,11.3,4.8,11.2,4.8C11.3,4.9,11.3,4.9,11.2,4.8c0,0.1,0,0.1,0,0.2c0,0,0,0,0,0
	C11.1,4.9,11.2,4.9,11.2,4.8L11.2,4.8z M1.2,29.5c0,0,0,0.1,0,0.1c0,0,0,0,0,0C1.2,29.6,1.1,29.5,1.2,29.5c-0.1,0-0.1-0.1,0-0.1
	c0,0,0,0,0,0c0,0,0,0,0,0C1.2,29.4,1.2,29.4,1.2,29.5z M46.8,35.4c0,0,0,0.1,0,0.1c0,0,0,0,0,0h0C46.8,35.5,46.8,35.5,46.8,35.4
	C46.8,35.4,46.8,35.3,46.8,35.4c0-0.1,0-0.2,0-0.2c0,0,0,0,0,0c0,0,0,0,0,0C46.9,35.3,46.8,35.3,46.8,35.4L46.8,35.4z M46.9,33.2
	c-0.7,1.9-1.5,4-2.6,5.6c-0.6,0.8-1.2,1.7-1.9,2.5c-0.1,0.1-0.2,0.2-0.3,0.3l0,0c-0.3,0.3-0.6,0.5-1,0.8c-0.2,0.1-0.3,0.2-0.5,0.3
	c0,0-0.1,0-0.1,0.1c0,0,0.1,0,0.1,0c0,0,0.1,0,0.1,0c0,0,0,0.1,0,0.1c-0.1,0.1-0.1,0.1-0.2,0.2c-0.1,0-0.1,0.1-0.2,0.2
	c-0.1,0-0.2,0.2-0.3,0.2c-0.1,0.1-0.3,0.2-0.4,0.3c-0.1,0.1-0.2,0.2-0.3,0.2c0,0-0.1,0.1-0.2,0.1c-0.1,0-0.2,0.1-0.2,0.2
	c-0.1,0.2-0.3,0.4-0.5,0.5c-0.1,0-0.1,0-0.2,0.1c-0.2,0.2-0.5,0.3-0.7,0.5c-0.2,0.2-0.4,0.3-0.7,0.5c-0.2,0.2-0.4,0.3-0.6,0.4
	c0,0,0,0,0,0c0,0,0,0,0,0.1c0,0,0,0,0,0.1c0,0,0,0.1-0.1,0.1c0,0-0.1,0-0.1,0c0,0,0-0.1,0-0.1c0,0,0,0,0,0c0,0-0.1,0-0.1,0
	c-0.1,0-0.3,0.1-0.4,0.2c-0.1,0-0.2,0.1-0.3,0.2c-0.2,0.2-0.5,0.3-0.7,0.5c-0.1,0.1-0.3,0.1-0.4,0.2c-0.3,0.1-0.7,0.2-1,0.3
	c-0.3,0.2-0.7,0.3-1,0.4c-0.2,0.1-0.4,0.1-0.6,0.2c-0.2,0.1-0.4,0.2-0.6,0.2c-0.1,0-0.2,0-0.3,0c-0.1,0-0.2,0-0.2,0.1
	c-0.1,0.1-0.2,0-0.3,0.1c-0.4,0-0.7,0.1-1,0.2c-0.1,0-0.3,0.1-0.5,0.1c-0.2,0-0.3,0-0.5,0c-0.1,0-0.1,0-0.2,0c-0.1,0-0.1,0-0.2,0
	c-0.1,0-0.2,0-0.4,0c-0.1,0-0.2,0-0.3,0c-0.1,0-0.2,0-0.3,0c0,0,0,0,0,0c0,0-0.1,0-0.1,0c0,0,0,0,0,0c0,0,0,0,0,0c0,0,0,0-0.1,0
	c0,0,0,0,0,0c0,0,0,0,0,0c-0.2,0-0.3,0-0.5,0c-0.5,0.1-1.1,0-1.6,0c-0.1,0-0.1,0-0.2,0c0,0-0.1,0.1-0.2,0c-0.2,0-0.4-0.1-0.6,0
	c-0.1,0-0.2,0-0.3,0c-0.2,0-0.5,0-0.8,0c-0.1,0-0.1-0.1-0.2-0.1c-0.2,0-0.4-0.1-0.6-0.2c-0.2,0-0.4,0-0.5,0c0,0,0,0,0,0.1
	c0,0,0,0,0,0c0,0-0.1,0-0.1-0.1c0,0,0,0,0,0c0,0,0,0,0,0c-0.1,0-0.2,0-0.3-0.1c-0.1,0-0.1,0-0.2,0c-0.1,0-0.1,0-0.2,0
	c-0.2,0-0.5-0.1-0.7-0.1c0,0-0.1,0-0.1,0c0,0,0,0,0,0c0,0,0,0,0,0.1c0,0,0,0.1-0.1,0.1c0,0,0,0,0,0c0,0,0,0,0,0c0,0,0-0.1,0-0.1
	c0,0,0,0,0.1,0c-0.1,0-0.1,0-0.2,0c-0.1,0-0.2,0-0.3,0c0,0-0.1,0-0.1,0s-0.1,0-0.1,0c-0.1,0-0.2,0-0.3-0.1c0,0-0.1,0-0.2-0.1
	c0,0-0.1,0-0.1,0c-0.1-0.1-0.1-0.1-0.2-0.1c-0.1,0-0.2,0-0.4-0.1c-0.2-0.1-0.3-0.1-0.5-0.2c0,0-0.1,0-0.1,0c-0.3,0-0.5-0.1-0.8-0.3
	c-0.1-0.1-0.2-0.1-0.3-0.1c0,0-0.1,0-0.1,0c-0.1-0.1-0.2-0.1-0.3-0.1c0,0-0.1,0-0.1,0.1h0c0,0,0,0,0,0c0,0,0-0.1,0-0.1
	c0,0-0.1,0-0.1,0c-0.1,0-0.3-0.1-0.4-0.2c-0.1-0.1-0.3-0.2-0.4-0.3c-0.1,0-0.2,0-0.3-0.1c-0.2-0.1-0.5-0.3-0.7-0.4
	c-0.1,0-0.2-0.1-0.3-0.1c-0.3-0.1-0.6-0.3-0.9-0.5c-0.1-0.1-0.2-0.2-0.3-0.2c-0.3-0.1-0.6-0.4-0.9-0.6c-0.2-0.2-0.5-0.3-0.8-0.5
	c-0.2-0.1-0.3-0.2-0.5-0.3c-0.1,0-0.1-0.1-0.2-0.2c-0.2-0.2-0.5-0.5-0.8-0.6c-0.1,0-0.1-0.1-0.1-0.1c-0.3-0.3-0.6-0.6-0.9-0.9
	c-0.2-0.2-0.4-0.4-0.6-0.7c0,0-0.1-0.1-0.1-0.1C7.2,41.3,7.1,41.1,7,41c-0.3-0.3-0.6-0.7-0.8-1c-0.2-0.2-0.3-0.5-0.6-0.7
	c0,0,0,0-0.1,0c-0.1-0.1-0.2-0.3-0.3-0.4c0,0,0,0.1,0,0.1c0,0,0,0,0,0c0,0,0,0-0.1,0.1c0,0,0,0,0,0c0,0,0,0,0,0c0,0,0-0.1,0-0.1
	c0,0,0,0,0,0c0,0,0,0,0.1-0.1c0,0,0,0,0,0c-0.1-0.2-0.3-0.4-0.4-0.6c0,0-0.1-0.1-0.1-0.2c-0.1-0.1-0.2-0.3-0.2-0.4
	c-0.1-0.1-0.2-0.2-0.2-0.3c0,0,0,0,0,0c0,0,0,0,0,0c0,0,0,0,0,0l0,0c0,0-0.1,0-0.1,0c0,0,0-0.1,0-0.1l0,0c0,0-0.1-0.1-0.1-0.2
	c-0.2-0.3-0.4-0.7-0.6-1c0-0.1-0.1-0.1-0.1-0.2c-0.1-0.2-0.2-0.4-0.3-0.6C3,35,3,34.8,2.9,34.6c0,0,0-0.1,0-0.1
	c-0.1-0.3-0.2-0.5-0.3-0.8c-0.1-0.2-0.2-0.4-0.3-0.6c-0.1-0.2-0.2-0.5-0.2-0.7c0,0,0-0.1,0-0.1c0-0.1,0-0.2-0.1-0.4
	c0-0.2-0.1-0.5-0.2-0.7c-0.1-0.3-0.2-0.5-0.3-0.8c0-0.1,0-0.1,0-0.2c0-0.1,0-0.1,0-0.2c0,0,0-0.1,0-0.1h0c0,0,0,0,0,0c0,0,0,0,0-0.1
	c0,0,0,0,0-0.1l0,0c0-0.1,0-0.2-0.1-0.3c0-0.2,0-0.4-0.1-0.6c0-0.1,0-0.2,0-0.3c0-0.1,0-0.2-0.1-0.3C1,28,1,28,1,27.9
	c0-0.1-0.1-0.1-0.1-0.2c0-0.1,0-0.1,0-0.2c0-0.1,0-0.1-0.1-0.2c0-0.3,0-0.6-0.1-0.9c0.1-0.2,0.1-0.5,0-0.7c-0.1-0.4,0-0.8,0-1.2
	c0-0.1,0-0.3,0-0.4c0-0.1,0-0.3,0-0.4c0-0.1,0-0.2,0.1-0.3c0,0,0-0.1,0-0.1c0-0.1,0-0.2,0-0.3c0-0.1,0-0.2,0-0.3
	c0-0.1,0-0.2,0.1-0.3c0,0,0-0.1,0-0.1c0-0.1,0-0.2,0-0.3c0-0.1,0-0.1,0.1-0.2c0,0,0,0,0-0.1c0-0.1,0-0.2,0-0.3c0-0.1,0-0.2,0-0.3
	c0-0.1,0-0.2,0-0.3c0-0.1,0-0.2,0.1-0.4c0-0.1,0-0.2,0.1-0.3c0-0.2,0-0.4,0.1-0.5c0-0.1,0.1-0.2,0.1-0.3c0-0.1,0-0.2,0.1-0.3
	c0-0.1,0.1-0.2,0.1-0.2c0.1-0.2,0.1-0.5,0.2-0.7c0-0.1,0.1-0.2,0.1-0.4c0-0.2,0.1-0.3,0.1-0.5c0-0.1,0-0.1,0.1-0.2
	c0.1-0.2,0.2-0.4,0.3-0.6c0.1-0.2,0.1-0.3,0.2-0.5c0-0.2,0.1-0.3,0.2-0.4c0-0.1,0.1-0.1,0.1-0.2c0.1-0.2,0.2-0.4,0.3-0.6
	c0.1-0.2,0.2-0.4,0.3-0.6c0-0.1,0-0.1,0.1-0.2c0.1-0.2,0.2-0.4,0.4-0.6c0-0.1,0.1-0.1,0.1-0.1c0.1-0.2,0.2-0.4,0.3-0.6
	c0.1-0.2,0.2-0.3,0.3-0.5c0.1-0.1,0.2-0.3,0.3-0.4c0,0,0,0,0,0c0,0,0,0,0,0c0,0,0-0.1,0-0.1c0,0,0,0,0-0.1c0,0,0,0,0,0
	c0,0,0.1,0,0.1,0.1c0,0,0,0,0,0c0.1-0.2,0.2-0.3,0.3-0.5c0.1-0.1,0.2-0.2,0.3-0.3C6,10.1,6.2,9.9,6.4,9.6c0.1-0.1,0.1-0.1,0.1-0.1
	C6.9,9,7.4,8.6,7.8,8.2C7.9,8,8.1,7.9,8.2,7.8c0.1-0.1,0.1-0.2,0.2-0.3c0,0,0.1-0.1,0.1-0.1c0.1-0.1,0.2-0.2,0.4-0.3
	c0,0,0.1,0,0.1-0.1c0.2-0.2,0.4-0.4,0.6-0.5C9.7,6.4,9.8,6.3,10,6.2c0.1-0.1,0.2-0.1,0.3-0.2c0.2-0.2,0.5-0.4,0.8-0.6
	c0.1-0.1,0.2-0.2,0.3-0.2c0.2-0.2,0.4-0.2,0.5-0.3c0.1-0.1,0.2-0.2,0.4-0.2c0.1-0.1,0.2-0.2,0.4-0.2C12.8,4.2,13,4.1,13.3,4
	c0.3-0.1,0.6-0.3,1-0.5c0.1,0,0.3-0.1,0.4-0.2C14.8,3.2,15,3.1,15.2,3c0.1,0,0.2-0.1,0.3-0.1c0.4-0.2,0.8-0.4,1.2-0.5
	c0.1,0,0.3-0.1,0.4-0.1c0.2-0.1,0.5-0.2,0.7-0.3c0.3-0.1,0.6-0.2,0.9-0.2c0.1-0.1,0.3,0,0.4-0.1c0.1,0,0.2,0,0.2-0.1
	c0.2,0,0.4-0.1,0.7-0.1s0.4-0.1,0.7-0.2c0.1,0,0.1,0,0.2-0.1c0.1-0.1,0.3-0.1,0.4-0.1c0.2,0,0.4,0,0.6,0c0.2,0,0.5,0,0.7-0.1
	c0,0,0,0,0,0c0.2,0,0.4,0,0.6-0.1c0.2,0,0.4-0.1,0.6-0.1c0.1,0,0.1,0,0.2,0c0.3,0,0.7,0,1,0c0,0,0,0,0,0c0,0,0-0.1,0-0.1
	c0,0,0,0,0,0c0,0,0,0,0,0c0,0,0,0.1,0,0.1c0,0,0,0,0,0.1l0,0c0.3,0,0.6,0,0.9,0c0.2,0,0.4,0,0.6,0c0,0,0.1,0,0.2,0
	c0.1,0.1,0.3,0.1,0.4,0c0,0,0.1,0,0.1,0c0.1,0.1,0.2,0,0.4,0.1c0.1,0,0.2,0,0.3,0c0.1,0.1,0.2,0,0.3,0.1c0,0,0.1,0,0.1,0
	c0.1-0.1,0.2,0,0.3,0c0,0,0,0,0.1,0c0.1,0,0.2,0,0.3,0.1c0,0,0.1,0,0.1,0c0.2-0.1,0.3,0,0.4,0c0.1,0,0.2,0,0.2,0c0,0,0.1,0,0.1,0
	c0.1,0.1,0.3,0.1,0.5,0.1c0.1,0,0.1,0,0.2,0c0.2,0,0.4,0,0.5,0c0.2,0.1,0.3,0,0.5,0.1c0.2,0,0.3,0.1,0.4,0.1c0.2,0,0.3,0,0.5,0
	c0.2,0,0.5,0.4,0.4,0.6C33,2,33,2.2,33,2.4c0,0.1,0,0.1-0.1,0.1c-0.1,0-0.1,0-0.2,0c0,0,0,0,0,0c0,0,0.1,0,0.2,0s0.1,0.1,0.1,0.1
	c0,0,0.1,0,0.1,0c0,0,0,0,0,0c0.1,0,0.2,0,0.2,0.1c0,0,0,0,0,0c0,0,0.1,0,0.2,0c0,0,0.1,0,0.2,0c0,0.1,0.1,0,0.2,0.1
	c0,0,0,0.1,0.1,0.1c0,0,0.1,0,0.1,0c0,0.1,0.1,0,0.1,0.1c0,0,0,0.1,0.1,0.1c0,0,0.1,0,0.1,0c0,0,0.1,0,0.1,0c0,0.1,0.1,0,0.2,0.1
	c0.2,0.2,0.8,0.3,1,0.5c0.4,0.2,1.2,0.6,1.7,0.8c1.3,0.4,4,2.9,6.3,5.9c0.3,0.4,0.6,0.8,0.9,1.3c0.2,0.3,0.4,0.6,0.6,0.9
	c0.3,0.4,0.6,0.9,0.8,1.3c0.1,0.2,0.3,0.5,0.4,0.7c0.2,0.3,0.4,0.7,0.5,1c0.2,0.4,0.4,0.8,0.5,1.2c0.2,0.5,0.5,1,0.6,1.5
	c0.2,0.8,0.2,1.6,0.4,2.4c0.2,1,0.5,1.9,0.6,2.9c0.1,1.1-0.1,2.2-0.2,3.3c0,0.2,0,0.4-0.1,0.7c0,0.3-0.1,0.6-0.1,0.9
	c-0.1,0.5-0.2,1-0.4,1.5c-0.1,0.3-0.2,0.6-0.3,0.9c-0.2,0.5-0.4,1.1-0.6,1.6C47.2,32.6,47,32.9,46.9,33.2L46.9,33.2z M47.7,33.8
	C47.7,33.8,47.7,33.8,47.7,33.8C47.7,33.8,47.6,33.8,47.7,33.8c0-0.1,0-0.1,0-0.1s0,0,0,0l0,0c0,0,0,0,0,0
	C47.8,33.7,47.7,33.8,47.7,33.8L47.7,33.8z M48.2,32.2C48.2,32.2,48.2,32.2,48.2,32.2C48.2,32.3,48.2,32.3,48.2,32.2
	C48.1,32.3,48.1,32.2,48.2,32.2C48.1,32.2,48.1,32.2,48.2,32.2C48.1,32.1,48.1,32.1,48.2,32.2C48.2,32.1,48.2,32.2,48.2,32.2
	C48.2,32.2,48.2,32.2,48.2,32.2L48.2,32.2z"/>
<path class="st0" d="M4.2,37.2C4.2,37.2,4.2,37.2,4.2,37.2C4.2,37.2,4.2,37.2,4.2,37.2L4.2,37.2C4.3,37.2,4.2,37.2,4.2,37.2z"/>
<path class="st0" d="M49.3,22.2C49.3,22.2,49.3,22.2,49.3,22.2C49.4,22.2,49.4,22.2,49.3,22.2L49.3,22.2
	C49.4,22.2,49.4,22.2,49.3,22.2C49.3,22.2,49.3,22.2,49.3,22.2C49.3,22.2,49.3,22.2,49.3,22.2L49.3,22.2z"/>
<path class="st0" d="M49.1,27.8L49.1,27.8C49.1,27.8,49.1,27.8,49.1,27.8C49.1,27.8,49.1,27.8,49.1,27.8
	C49.1,27.7,49.1,27.8,49.1,27.8L49.1,27.8z"/>
<path class="st0" d="M47.7,15.8L47.7,15.8C47.7,15.9,47.7,15.9,47.7,15.8C47.6,15.9,47.6,15.9,47.7,15.8
	C47.6,15.8,47.6,15.8,47.7,15.8L47.7,15.8z"/>
<path class="st0" d="M47.1,14.6c0,0,0,0.1,0,0.1v0c0,0,0,0,0,0c0,0,0,0,0,0C47,14.7,47,14.7,47.1,14.6C47,14.7,47,14.7,47.1,14.6
	C47,14.6,47,14.6,47.1,14.6C47,14.6,47,14.6,47.1,14.6L47.1,14.6L47.1,14.6z"/>
<path class="st0" d="M46.1,12.7C46.1,12.7,46.1,12.7,46.1,12.7C46.2,12.6,46.2,12.6,46.1,12.7c0.1-0.1,0.1,0,0.1,0
	C46.2,12.7,46.2,12.7,46.1,12.7C46.2,12.7,46.2,12.8,46.1,12.7C46.2,12.8,46.2,12.8,46.1,12.7C46.2,12.8,46.2,12.8,46.1,12.7
	C46.2,12.8,46.1,12.7,46.1,12.7L46.1,12.7z"/>
<path class="st0" d="M43.3,8.8C43.3,8.8,43.3,8.7,43.3,8.8l0.1-0.1c0,0,0,0.1,0,0.1s0,0,0,0.1c0,0,0,0.1,0,0.1c0,0,0,0.1,0,0
	c0,0,0,0,0-0.1C43.3,8.9,43.3,8.8,43.3,8.8C43.3,8.8,43.3,8.8,43.3,8.8L43.3,8.8z"/>
<path class="st0" d="M42.9,8.4C42.9,8.4,42.9,8.4,42.9,8.4C42.9,8.4,42.9,8.4,42.9,8.4C42.9,8.4,42.9,8.4,42.9,8.4
	C42.9,8.4,42.9,8.4,42.9,8.4z"/>
<path class="st0" d="M36.9,3.7C36.9,3.7,37,3.7,36.9,3.7C37,3.8,36.9,3.8,36.9,3.7C36.9,3.8,36.9,3.7,36.9,3.7
	C36.9,3.7,36.9,3.7,36.9,3.7L36.9,3.7z"/>
<path class="st0" d="M26.1,0.4L26.1,0.4C26.1,0.5,26.1,0.5,26.1,0.4C26.1,0.5,26.1,0.4,26.1,0.4C26.1,0.4,26.1,0.4,26.1,0.4z"/>
<path class="st0" d="M20.4,0.9C20.4,0.9,20.4,0.9,20.4,0.9C20.5,0.9,20.5,0.9,20.4,0.9C20.4,0.9,20.4,0.9,20.4,0.9
	C20.4,0.9,20.4,0.9,20.4,0.9L20.4,0.9z"/>
<path class="st0" d="M20,0.9C20,0.9,20,0.9,20,0.9C20,0.9,20,0.9,20,0.9C20,0.9,20.1,0.9,20,0.9C20.1,0.9,20.1,0.9,20,0.9
	C20.1,0.9,20,0.9,20,0.9C20,1,20,0.9,20,0.9C20,0.9,20,0.9,20,0.9z"/>
<path class="st0" d="M20,1L20,1C20,1.1,20,1.1,20,1C20,1.1,20,1.1,20,1C20,1.1,20,1.1,20,1C20,1.1,20,1.1,20,1L20,1z"/>
<path class="st0" d="M17.4,1.8C17.4,1.8,17.4,1.8,17.4,1.8C17.4,1.9,17.4,1.9,17.4,1.8C17.3,1.9,17.3,1.9,17.4,1.8
	C17.3,1.8,17.3,1.8,17.4,1.8z"/>
<path class="st0" d="M11.2,4.6L11.2,4.6C11.2,4.6,11.2,4.6,11.2,4.6C11.2,4.7,11.2,4.6,11.2,4.6C11.2,4.6,11.2,4.6,11.2,4.6
	L11.2,4.6z"/>
<path class="st0" d="M7.5,8.3C7.5,8.3,7.5,8.3,7.5,8.3C7.5,8.3,7.5,8.3,7.5,8.3C7.5,8.3,7.5,8.3,7.5,8.3C7.5,8.3,7.5,8.3,7.5,8.3z"
	/>
<path class="st0" d="M1.8,17.8C1.8,17.8,1.8,17.7,1.8,17.8L1.8,17.8C1.8,17.7,1.8,17.7,1.8,17.8C1.9,17.8,1.9,17.8,1.8,17.8
	L1.8,17.8c0.1,0,0.1,0.1,0,0.1c0,0,0,0,0,0c0,0,0,0,0,0C1.7,17.8,1.7,17.8,1.8,17.8L1.8,17.8z"/>
<path class="st0" d="M0.9,28.1C0.9,28.1,0.9,28.1,0.9,28.1C0.8,28.1,0.8,28.1,0.9,28.1C0.8,28.1,0.8,28.1,0.9,28.1
	C0.8,28.1,0.8,28,0.8,28c0,0,0,0,0.1,0L0.9,28.1C0.9,28.1,0.9,28.1,0.9,28.1L0.9,28.1z"/>
<path class="st0" d="M3.1,35.2C3.1,35.2,3.1,35.2,3.1,35.2C3.1,35.2,3.1,35.3,3.1,35.2C3.1,35.3,3.1,35.3,3.1,35.2
	C3.1,35.3,3.1,35.2,3.1,35.2z"/>
<path class="st0" d="M6.2,40.2C6.2,40.2,6.2,40.2,6.2,40.2C6.2,40.2,6.2,40.2,6.2,40.2C6.2,40.2,6.2,40.2,6.2,40.2
	C6.2,40.2,6.2,40.2,6.2,40.2z"/>
<path class="st0" d="M17.3,47.9C17.3,47.9,17.3,47.9,17.3,47.9C17.2,47.9,17.2,47.9,17.3,47.9C17.2,47.8,17.2,47.8,17.3,47.9
	c-0.1-0.1-0.1-0.1-0.1-0.1c0,0,0,0,0,0l0,0C17.3,47.8,17.3,47.8,17.3,47.9L17.3,47.9z"/>
<path class="st0" d="M20.4,48.8C20.4,48.8,20.3,48.8,20.4,48.8C20.3,48.8,20.3,48.8,20.4,48.8C20.3,48.8,20.3,48.8,20.4,48.8
	C20.3,48.8,20.3,48.8,20.4,48.8C20.3,48.7,20.3,48.7,20.4,48.8C20.4,48.7,20.4,48.7,20.4,48.8C20.4,48.8,20.4,48.8,20.4,48.8
	L20.4,48.8z"/>
<path class="st0" d="M23.7,49.1C23.7,49.1,23.7,49.1,23.7,49.1C23.7,49.1,23.7,49.1,23.7,49.1C23.7,49.1,23.7,49.1,23.7,49.1
	C23.7,49.1,23.7,49.1,23.7,49.1z"/>
<path class="st0" d="M25.8,49.2C25.8,49.2,25.8,49.2,25.8,49.2C25.8,49.1,25.8,49.1,25.8,49.2C25.8,49.1,25.8,49.1,25.8,49.2
	C25.8,49.2,25.8,49.2,25.8,49.2L25.8,49.2z"/>
<path class="st0" d="M40,44C40,44,40,44,40,44C39.9,43.9,40,43.9,40,44C40,43.9,40,43.9,40,44C40,43.9,40,43.9,40,44L40,44z"/>
<path class="st0" d="M40,43.8C40,43.8,40,43.8,40,43.8C40,43.8,40,43.8,40,43.8C40,43.8,40,43.8,40,43.8C40,43.8,40,43.8,40,43.8z"
	/>
<path class="st0" d="M40.6,43.6C40.6,43.6,40.6,43.6,40.6,43.6C40.6,43.6,40.6,43.6,40.6,43.6C40.6,43.6,40.6,43.6,40.6,43.6
	C40.6,43.6,40.6,43.6,40.6,43.6L40.6,43.6z"/>
<path class="st0" d="M43.6,40.5L43.6,40.5C43.6,40.5,43.6,40.5,43.6,40.5c0,0,0-0.1,0-0.1c0,0,0,0,0-0.1h0c0,0,0,0,0,0
	C43.6,40.4,43.6,40.5,43.6,40.5z"/>
<path class="st0" d="M45.9,37.1C45.9,37.1,45.9,37.1,45.9,37.1C45.8,37.1,45.8,37.1,45.9,37.1C45.8,37,45.8,37,45.9,37.1
	C45.9,37,45.9,37,45.9,37.1C45.9,37,45.9,37,45.9,37.1L45.9,37.1z"/>
<path class="st0" d="M48.9,28.8C48.9,28.8,48.9,28.8,48.9,28.8C48.9,28.8,48.9,28.8,48.9,28.8C48.9,28.8,48.9,28.8,48.9,28.8
	C48.9,28.9,48.9,28.8,48.9,28.8L48.9,28.8z"/>
<path class="st0" d="M48.9,28.6C48.9,28.6,48.9,28.7,48.9,28.6C48.9,28.7,48.9,28.7,48.9,28.6C48.8,28.7,48.9,28.7,48.9,28.6
	C48.9,28.7,48.9,28.6,48.9,28.6C48.8,28.6,48.8,28.6,48.9,28.6C48.9,28.6,48.9,28.5,48.9,28.6C48.9,28.5,48.9,28.6,48.9,28.6
	C49,28.6,49,28.6,48.9,28.6L48.9,28.6z"/>
<path class="st0" d="M5.2,11.1C5.2,11.1,5.2,11.1,5.2,11.1C5.2,11.1,5.2,11.1,5.2,11.1C5.2,11.1,5.2,11.1,5.2,11.1z"/>
<path class="st0" d="M25.2,13.6C25.2,13.6,25.2,13.5,25.2,13.6c0-0.1,0-0.2,0-0.2c0,0,0-0.1,0-0.1c0-0.1,0-0.1,0-0.2
	c0,0,0-0.1,0-0.1c0,0,0,0,0-0.1c0,0,0-0.1,0-0.1c0,0,0,0,0,0c0,0,0-0.1,0-0.1c0,0,0,0,0-0.1c0,0,0,0,0-0.1v0c0,0,0,0,0-0.1
	c0,0,0,0,0-0.1c0,0,0,0,0,0c0,0,0,0,0,0c0,0,0,0,0,0c0,0,0,0,0-0.1c0,0,0,0-0.1-0.1c0,0,0,0,0,0c0,0,0,0,0,0c0,0,0,0,0,0
	c0,0,0,0,0,0c0,0,0,0,0,0c0,0,0,0,0,0c0,0,0,0-0.1,0c0,0,0,0,0,0c0,0,0,0.1,0,0.1c0,0,0,0,0,0c0,0,0,0.1,0,0.1c0,0,0,0.1,0,0.1l0,0
	c0,0,0,0,0,0c0,0,0,0,0,0.1c0,0,0,0,0,0c0,0,0,0,0,0.1l0,0c0,0,0,0,0,0.1c0,0,0,0,0,0.1v0c0,0,0,0,0,0.1c0,0,0,0,0,0.1
	c0,0,0,0.1,0,0.1c0,0,0,0.1,0,0.1c0,0,0,0,0,0c0,0,0,0.1,0,0.1c0,0,0,0.1,0,0.1s0,0.1,0,0.1s0,0.1,0,0.1c0,0,0,0,0,0.1
	c0,0,0,0,0,0.1l0,0c0,0,0,0,0,0c0,0,0,0,0,0.1s0,0.1,0,0.1c0,0,0,0.1,0,0.1c0,0,0,0.1,0,0.1c0,0,0,0.1-0.1,0.1c0,0,0,0,0,0
	c0,0,0,0,0,0c0,0,0,0,0,0.1c0,0,0,0,0,0.1c0,0,0,0,0,0c0,0,0,0,0,0c0,0,0,0,0,0.1l0,0c0,0-0.1,0.1-0.1,0.1c0,0,0,0-0.1,0.1
	c0,0,0,0,0,0c0,0,0,0-0.1,0c0,0,0,0-0.1,0c0,0,0,0-0.1,0h0c0,0,0,0-0.1,0c0,0,0,0-0.1,0c0,0,0,0-0.1,0c0,0,0,0,0,0c0,0,0,0-0.1,0.1
	c0,0,0,0,0,0c0,0,0,0,0,0c0,0,0,0-0.1,0.1c0,0,0,0,0,0.1c0,0,0,0,0,0c0,0,0,0,0,0c0,0,0,0,0,0c0,0,0,0,0,0c0,0,0,0,0,0
	c0,0,0,0,0.1,0c0,0,0,0,0,0c0,0,0,0,0,0c0,0,0,0,0,0c0,0,0,0,0,0c0,0,0,0,0,0h0c0,0,0,0,0,0c0,0,0,0,0,0c0,0,0,0,0,0c0,0,0,0,0.1,0
	s0,0,0.1,0c0,0,0,0,0.1,0c0,0,0,0,0.1,0c0,0,0,0,0.1,0c0,0,0,0,0.1,0c0,0,0,0,0.1,0c0,0,0,0,0.1,0c0,0,0,0,0.1,0c0,0,0,0,0,0
	c0,0,0,0,0.1,0c0,0,0,0,0.1-0.1c0,0,0,0,0-0.1c0,0,0,0,0.1-0.1c0,0,0,0,0-0.1c0,0,0,0,0,0c0,0,0,0,0-0.1c0,0,0-0.1,0-0.1
	c0,0,0-0.1,0-0.1c0,0,0,0,0,0c0,0,0,0,0,0c0,0,0,0,0-0.1c0,0,0,0,0-0.1c0,0,0,0,0-0.1s0,0,0-0.1c0,0,0-0.1,0-0.1c0,0,0,0,0-0.1
	s0-0.1,0-0.1c0,0,0,0,0,0c0,0,0-0.1,0-0.1C25.2,13.7,25.3,13.6,25.2,13.6L25.2,13.6z M23.5,14.8L23.5,14.8
	C23.5,14.8,23.5,14.8,23.5,14.8C23.5,14.8,23.5,14.8,23.5,14.8C23.5,14.8,23.5,14.8,23.5,14.8L23.5,14.8z M23.9,14.8L23.9,14.8
	C23.9,14.8,23.9,14.8,23.9,14.8C23.9,14.8,23.9,14.8,23.9,14.8C23.9,14.8,23.9,14.8,23.9,14.8L23.9,14.8z M24.1,14.8
	C24.1,14.8,24.1,14.8,24.1,14.8C24.1,14.8,24,14.8,24.1,14.8C24,14.8,24,14.8,24.1,14.8L24.1,14.8L24.1,14.8
	C24,14.8,24.1,14.8,24.1,14.8C24.1,14.8,24.1,14.8,24.1,14.8L24.1,14.8z M24.5,14.8C24.5,14.8,24.5,14.8,24.5,14.8
	C24.4,14.8,24.4,14.8,24.5,14.8C24.4,14.8,24.5,14.8,24.5,14.8L24.5,14.8L24.5,14.8z M24.5,14.6C24.5,14.6,24.5,14.6,24.5,14.6
	C24.6,14.6,24.6,14.6,24.5,14.6C24.6,14.6,24.6,14.6,24.5,14.6C24.6,14.6,24.6,14.6,24.5,14.6L24.5,14.6z M24.6,14.7
	C24.6,14.7,24.6,14.7,24.6,14.7L24.6,14.7C24.6,14.7,24.6,14.7,24.6,14.7C24.6,14.7,24.6,14.7,24.6,14.7L24.6,14.7z M24.9,13.8
	C24.9,13.8,24.8,13.8,24.9,13.8C24.8,13.8,24.8,13.8,24.9,13.8L24.9,13.8L24.9,13.8C24.8,13.7,24.8,13.7,24.9,13.8
	C24.9,13.7,24.9,13.8,24.9,13.8C24.9,13.8,24.9,13.8,24.9,13.8L24.9,13.8z M24.9,14.2L24.9,14.2C24.9,14.2,24.9,14.2,24.9,14.2
	C24.9,14.1,24.9,14.1,24.9,14.2C24.9,14.1,24.9,14.1,24.9,14.2L24.9,14.2C24.9,14.1,24.9,14.1,24.9,14.2
	C24.9,14.1,24.9,14.1,24.9,14.2L24.9,14.2z M25,13.3C25,13.3,25,13.3,25,13.3c0-0.1,0-0.1,0-0.1c0,0,0-0.1,0-0.1c0,0,0,0,0,0
	c0,0,0,0,0,0C25.1,13.2,25.1,13.3,25,13.3C25.1,13.3,25,13.3,25,13.3z M25,14.1L25,14.1C24.9,14.1,24.9,14.1,25,14.1
	C24.9,14.1,24.9,14,25,14.1c0-0.1,0-0.1,0-0.1c0,0,0,0,0,0c0,0,0,0,0,0C25,14,25,14,25,14.1C25,14,25,14,25,14.1
	C25,14.1,24.9,14.1,25,14.1L25,14.1z"/>
<path class="st0" d="M18.6,29.7c0,0,0-0.1,0-0.1c0,0,0,0,0,0c0-0.1,0-0.1,0-0.2s0-0.1,0-0.2c0,0,0-0.1,0-0.1c0,0,0-0.1,0-0.1
	c0,0,0-0.1,0-0.1c0-0.1,0-0.1-0.1-0.2c0,0,0-0.1,0-0.1c0,0,0,0,0-0.1c0,0,0-0.1-0.1-0.1l0,0c0,0,0,0,0-0.1c0,0,0,0-0.1-0.1
	c0,0,0,0-0.1-0.1c0,0,0,0,0,0c0,0,0,0-0.1-0.1c0,0,0,0,0,0c0,0,0,0,0,0c0,0,0,0-0.1,0c0,0,0,0-0.1,0c0,0-0.1,0-0.1,0
	c0,0-0.1,0-0.1,0s-0.1,0-0.1,0c0,0,0,0-0.1,0c0,0-0.1,0-0.1,0c0,0,0,0-0.1,0c0,0,0,0,0,0c0,0,0,0-0.1,0c0,0,0,0-0.1,0c0,0,0,0,0,0.1
	c0,0,0,0,0,0.1c0,0,0,0,0,0c0,0,0,0,0.1,0.1c0,0,0,0.1,0.1,0.1l0,0c0,0,0,0,0,0c0,0,0,0,0.1,0.1c0,0,0,0,0,0c0,0,0,0,0,0.1l0,0
	c0,0,0,0,0,0c0,0,0,0,0,0.1c0,0,0,0,0,0c0,0,0,0,0,0c0,0,0,0,0,0c0,0,0,0.1,0.1,0.1c0,0,0,0.1,0.1,0.1c0,0,0,0,0,0
	c0,0,0,0.1,0.1,0.2c0,0,0,0.1,0,0.1c0,0,0,0.1,0,0.1c0,0,0,0.1,0,0.1c0,0,0,0,0,0.1c0,0,0,0,0,0.1c0,0,0,0,0,0c0,0,0,0,0,0.1
	c0,0,0,0,0,0.1c0,0,0,0.1,0,0.1c0,0,0,0.1,0,0.1c0,0,0,0.1,0,0.1c0,0,0,0.1,0,0.1c0,0,0,0,0,0.1c0,0,0,0,0,0.1c0,0,0,0.1,0,0.1
	c0,0,0,0.1,0,0.1c0,0,0,0.1,0,0.1c0,0,0,0,0,0.1c0,0,0,0,0,0.1l0,0c0,0-0.1,0.1-0.1,0.1c0,0,0,0.1-0.1,0.1c0,0,0,0,0,0.1
	c0,0,0,0,0,0.1c0,0,0,0-0.1,0.1c0,0,0,0-0.1,0.1c0,0,0,0,0,0c0,0,0,0.1-0.1,0.1c0,0,0,0.1-0.1,0.1c0,0,0,0.1-0.1,0.1c0,0,0,0,0,0
	c0,0,0,0.1-0.1,0.1c0,0,0,0,0,0s0,0,0,0c0,0,0,0.1,0,0.1c0,0,0,0.1,0,0.1c0,0,0,0,0,0s0,0,0,0c0,0,0,0,0,0c0,0,0,0,0,0c0,0,0,0,0,0
	c0,0,0.1,0,0.1,0c0,0,0,0,0,0c0,0,0,0,0,0c0,0,0,0,0,0c0,0,0,0,0,0c0,0,0,0,0,0h0c0,0,0,0,0,0c0,0,0,0,0,0c0,0,0,0,0.1,0
	c0,0,0.1,0,0.1-0.1c0,0,0,0,0.1,0c0,0,0.1,0,0.1-0.1c0,0,0,0,0.1-0.1c0,0,0,0,0.1-0.1c0,0,0,0,0.1-0.1s0-0.1,0.1-0.1
	c0,0,0,0,0.1-0.1c0,0,0-0.1,0.1-0.1c0,0,0,0,0-0.1c0,0,0,0,0.1-0.1c0,0,0-0.1,0-0.1c0,0,0,0,0-0.1c0,0,0-0.1,0-0.1c0,0,0-0.1,0-0.1
	c0,0,0,0,0,0c0,0,0-0.1,0-0.1c0,0,0-0.1,0-0.1c0,0,0-0.1,0-0.1c0,0,0,0,0,0s0,0,0,0c0,0,0,0,0-0.1s0,0,0-0.1c0,0,0,0,0-0.1
	c0,0,0,0,0-0.1C18.7,29.8,18.7,29.8,18.6,29.7C18.7,29.7,18.7,29.7,18.6,29.7L18.6,29.7z M17,31.6L17,31.6C17,31.6,17,31.5,17,31.6
	C17,31.5,17,31.5,17,31.6C17,31.6,17,31.6,17,31.6L17,31.6z M17.4,31.3L17.4,31.3C17.4,31.3,17.4,31.3,17.4,31.3
	C17.4,31.3,17.4,31.3,17.4,31.3C17.4,31.3,17.4,31.3,17.4,31.3z M17.7,31.3C17.7,31.3,17.7,31.3,17.7,31.3
	C17.7,31.3,17.6,31.3,17.7,31.3C17.6,31.3,17.6,31.3,17.7,31.3C17.6,31.3,17.6,31.3,17.7,31.3C17.6,31.3,17.6,31.3,17.7,31.3
	C17.6,31.2,17.7,31.2,17.7,31.3C17.7,31.2,17.7,31.2,17.7,31.3L17.7,31.3z M18.2,31.1C18.2,31.1,18.1,31.1,18.2,31.1
	C18.1,31.1,18.1,31.1,18.2,31.1C18.1,31.1,18.2,31.1,18.2,31.1L18.2,31.1L18.2,31.1z M18.2,30.8C18.2,30.8,18.2,30.7,18.2,30.8
	C18.2,30.7,18.2,30.7,18.2,30.8C18.2,30.7,18.2,30.7,18.2,30.8C18.2,30.7,18.2,30.7,18.2,30.8z M18.2,29.6
	C18.2,29.6,18.1,29.6,18.2,29.6C18.1,29.6,18.1,29.6,18.2,29.6C18.1,29.6,18.1,29.6,18.2,29.6C18.1,29.6,18.1,29.5,18.2,29.6
	C18.2,29.5,18.2,29.5,18.2,29.6C18.2,29.6,18.2,29.6,18.2,29.6C18.2,29.6,18.2,29.6,18.2,29.6L18.2,29.6z M18.2,28.9
	C18.2,28.9,18.2,28.9,18.2,28.9c0-0.1-0.1-0.1-0.1-0.2c0,0,0-0.1,0-0.1c0,0,0,0,0,0c0,0,0,0,0,0C18.2,28.7,18.2,28.8,18.2,28.9
	C18.2,28.9,18.2,28.9,18.2,28.9z M18.3,30.9C18.3,30.9,18.3,30.9,18.3,30.9C18.3,30.8,18.3,30.8,18.3,30.9
	C18.3,30.8,18.3,30.9,18.3,30.9C18.3,30.9,18.3,30.9,18.3,30.9z M18.4,30.1L18.4,30.1C18.4,30.1,18.4,30.1,18.4,30.1
	C18.4,30,18.4,30,18.4,30.1C18.4,30,18.4,30,18.4,30.1C18.4,30,18.4,30,18.4,30.1L18.4,30.1C18.4,30,18.4,30,18.4,30.1z M18.5,29.9
	C18.5,29.9,18.4,29.9,18.5,29.9C18.4,29.9,18.4,29.9,18.5,29.9L18.5,29.9c0-0.1-0.1-0.1-0.1-0.2c0,0,0,0,0,0c0,0,0,0,0,0
	c0,0,0,0,0,0C18.4,29.8,18.5,29.8,18.5,29.9C18.5,29.8,18.4,29.9,18.5,29.9L18.5,29.9z"/>
<path class="st0" d="M29,4.6C29,4.6,29,4.5,29,4.6L29,4.6c0-0.1,0-0.2,0-0.2c0,0,0,0,0-0.1c0,0,0,0,0-0.1c0,0,0,0,0,0c0,0,0,0,0-0.1
	c0,0,0,0,0-0.1c0,0,0,0,0,0c0,0,0,0,0-0.1s0,0,0-0.1s0,0,0-0.1c0,0,0,0,0-0.1c0,0,0,0,0,0s0,0,0,0c0,0,0,0,0,0c0,0,0,0,0,0
	c0,0,0,0,0,0s0,0,0,0c0,0,0,0-0.1,0c0,0,0,0,0,0c0,0,0,0,0,0.1c0,0,0,0,0,0c0,0,0,0,0,0.1c0,0,0,0,0,0.1l0,0c0,0,0,0,0,0.1
	s0,0,0,0.1s0,0,0,0c0,0,0,0,0,0.1l0,0c0,0,0,0,0,0.1c0,0,0,0,0,0.1v0c0,0,0,0,0,0.1s0,0,0,0.1c0,0,0,0.1,0,0.1s0,0.1,0,0.1
	c0,0,0,0,0,0c0,0,0,0.1,0,0.1c0,0,0,0.1,0,0.1c0,0,0,0,0,0.1c0,0,0,0.1,0,0.1c0,0,0,0,0,0.1c0,0,0,0,0,0.1l0,0c0,0,0,0,0,0
	c0,0,0,0,0,0.1s0,0.1,0,0.1c0,0,0,0.1,0,0.1c0,0,0,0.1,0,0.1c0,0,0,0.1-0.1,0.1c0,0,0,0,0,0s0,0,0,0s0,0,0,0.1c0,0,0,0,0,0.1
	c0,0,0,0,0,0.1c0,0,0,0,0,0c0,0,0,0,0,0.1l0,0c0,0-0.1,0.1-0.1,0.1c0,0,0,0-0.1,0.1c0,0,0,0,0,0c0,0,0,0,0,0c0,0,0,0-0.1,0
	c0,0,0,0-0.1,0c0,0,0,0,0,0c0,0,0,0-0.1,0.1c0,0,0,0-0.1,0c0,0,0,0,0,0c0,0,0,0,0,0c0,0,0,0-0.1,0.1c0,0,0,0,0,0c0,0,0,0,0,0
	c0,0,0,0,0,0.1c0,0,0,0,0,0.1c0,0,0,0,0,0s0,0,0,0c0,0,0,0,0,0c0,0,0,0,0,0c0,0,0,0,0,0c0,0,0,0.1,0.1,0.1c0,0,0,0,0,0s0,0,0,0
	s0,0,0,0c0,0,0,0,0,0c0,0,0,0,0,0h0c0,0,0,0,0,0s0,0,0,0c0,0,0,0,0,0c0,0,0,0,0.1,0s0,0,0.1,0c0,0,0,0,0.1,0c0,0,0,0,0.1,0
	c0,0,0,0,0.1,0c0,0,0,0,0.1,0c0,0,0,0,0.1-0.1c0,0,0,0,0.1,0c0,0,0,0,0.1,0c0,0,0,0,0,0c0,0,0,0,0-0.1c0,0,0,0,0-0.1c0,0,0,0,0-0.1
	c0,0,0,0,0-0.1c0,0,0,0,0-0.1l0,0c0,0,0,0,0-0.1c0,0,0-0.1,0-0.1c0,0,0-0.1,0-0.1c0,0,0,0,0,0s0,0,0,0s0,0,0-0.1c0,0,0,0,0-0.1
	c0,0,0,0,0-0.1s0,0,0-0.1s0-0.1,0-0.1c0,0,0,0,0-0.1c0,0,0-0.1,0-0.1c0,0,0,0,0,0c0,0,0-0.1,0-0.1c0,0,0-0.1,0-0.1l0-0.1
	c0,0,0-0.1,0-0.1c0,0,0-0.1,0-0.1C28.9,4.8,29,4.7,29,4.6C29,4.6,29,4.6,29,4.6C29,4.6,28.9,4.5,29,4.6L29,4.6z M27.3,6.3
	C27.3,6.3,27.3,6.3,27.3,6.3L27.3,6.3C27.3,6.3,27.3,6.3,27.3,6.3C27.3,6.3,27.3,6.3,27.3,6.3z M27.6,6.3L27.6,6.3
	C27.6,6.3,27.6,6.2,27.6,6.3C27.6,6.2,27.6,6.2,27.6,6.3C27.6,6.2,27.6,6.2,27.6,6.3z M27.8,6.3C27.8,6.3,27.8,6.3,27.8,6.3
	C27.8,6.3,27.8,6.3,27.8,6.3C27.8,6.3,27.8,6.3,27.8,6.3L27.8,6.3L27.8,6.3C27.8,6.3,27.8,6.3,27.8,6.3C27.8,6.3,27.8,6.3,27.8,6.3
	L27.8,6.3z M28.2,6.3C28.2,6.3,28.2,6.3,28.2,6.3L28.2,6.3C28.1,6.3,28.2,6.3,28.2,6.3L28.2,6.3L28.2,6.3z M28.3,6
	C28.3,6,28.2,6,28.3,6C28.2,6,28.2,6,28.3,6C28.2,6,28.2,6,28.3,6C28.2,6,28.2,6,28.3,6L28.3,6z M28.3,6.2L28.3,6.2
	C28.3,6.2,28.3,6.2,28.3,6.2L28.3,6.2L28.3,6.2z M28.5,5.2L28.5,5.2L28.5,5.2C28.5,5.2,28.5,5.2,28.5,5.2
	C28.6,5.2,28.6,5.2,28.5,5.2C28.6,5.2,28.6,5.3,28.5,5.2C28.6,5.3,28.5,5.3,28.5,5.2C28.5,5.3,28.5,5.3,28.5,5.2L28.5,5.2z
	 M28.5,5.6L28.5,5.6C28.5,5.6,28.5,5.6,28.5,5.6C28.5,5.6,28.6,5.6,28.5,5.6C28.6,5.6,28.6,5.6,28.5,5.6L28.5,5.6
	C28.6,5.5,28.6,5.5,28.5,5.6C28.6,5.6,28.5,5.6,28.5,5.6z M28.6,5.5L28.6,5.5C28.6,5.5,28.6,5.5,28.6,5.5
	C28.6,5.5,28.6,5.5,28.6,5.5c0-0.1,0-0.1,0-0.1c0,0,0,0,0,0c0,0,0,0,0,0C28.6,5.4,28.7,5.5,28.6,5.5C28.7,5.5,28.7,5.5,28.6,5.5
	C28.7,5.5,28.6,5.5,28.6,5.5L28.6,5.5z M28.8,4.8C28.8,4.8,28.8,4.8,28.8,4.8C28.8,4.8,28.8,4.8,28.8,4.8c0-0.1,0-0.1,0-0.1
	c0,0,0-0.1,0-0.1c0,0,0,0,0,0c0,0,0,0,0,0C28.8,4.7,28.8,4.8,28.8,4.8L28.8,4.8z"/>
<path class="st0" d="M40.4,40.7C40.4,40.7,40.4,40.6,40.4,40.7c0-0.1,0-0.2,0-0.2c0,0,0-0.1,0-0.1s0-0.1,0-0.1s0-0.1-0.1-0.1
	c0,0-0.1-0.1-0.1-0.1c0,0,0-0.1-0.1-0.1c0-0.1-0.1-0.1-0.2-0.2c0,0-0.1-0.1-0.1-0.1c-0.1,0-0.1-0.1-0.2-0.1c0,0-0.1,0-0.1,0
	c0,0-0.1,0-0.1-0.1c0,0,0,0-0.1,0c0,0,0,0-0.1,0c0,0-0.1,0-0.2,0c-0.1,0-0.2,0-0.3,0c0,0,0,0,0,0c0,0,0,0-0.1,0c0,0,0,0-0.1,0
	c0,0-0.1,0-0.1,0c0,0,0,0-0.1,0c0,0,0,0-0.1,0l0,0c0,0,0,0,0,0c0,0,0,0,0,0c0,0-0.1,0-0.1,0c0,0,0,0-0.1,0c0,0-0.1,0-0.1,0
	c0,0,0,0,0,0c0,0-0.1,0-0.1,0c0,0,0,0-0.1,0c0,0-0.1,0-0.1,0c0,0-0.1,0-0.2,0c0,0,0,0-0.1,0c0,0,0,0-0.1,0c0,0,0,0-0.1,0
	c0,0-0.1,0-0.1,0.1s0,0-0.1,0l-0.1,0c0,0,0,0-0.1,0c0,0,0,0-0.1,0.1c0,0-0.1,0.1-0.1,0.1c0,0,0,0,0,0c0,0,0,0-0.1,0.1s0,0,0,0.1
	c0,0,0,0,0,0.1c0,0,0,0,0,0c0,0,0,0.1,0,0.1c0,0,0,0.1,0,0.1c0,0,0,0,0,0.1c0,0,0,0,0,0.1c0,0,0,0.1,0,0.1c0,0,0,0,0,0.1
	c0,0,0,0.1,0,0.1c0,0.1,0,0.1,0.1,0.2c0,0,0,0,0,0c0,0,0.1,0,0.1,0c0,0,0.1,0,0.1,0c0,0,0-0.1,0.1-0.1c0,0,0,0,0,0c0,0,0,0,0,0
	c0,0,0,0,0.1,0c0,0,0,0,0.1-0.1s0,0,0-0.1c0,0,0,0,0.1,0s0,0,0.1,0s0,0,0.1,0c0,0,0,0,0.1,0c0,0,0,0,0.1,0c0,0,0,0,0.1,0
	c0,0,0,0,0.1,0c0,0,0,0,0.1,0c0,0,0,0,0.1,0c0,0,0,0,0.1,0h0c0,0,0.1,0,0.1,0c0,0,0.1,0,0.1,0c0,0,0.1,0,0.2,0c0,0,0,0,0.1,0
	s0,0,0.1,0c0,0,0.1,0,0.2,0c0,0,0.1,0,0.1,0c0,0,0.1,0,0.1,0c0,0,0,0,0,0c0,0,0.1,0,0.1,0c0,0,0.1,0,0.1,0c0.2,0,0.3,0.1,0.5,0.1
	c0,0,0,0,0,0c0,0,0,0,0.1,0c0,0,0,0,0.1,0s0,0,0.1,0l0,0c0,0,0,0,0,0c0,0,0,0,0.1,0c0,0,0,0,0.1,0.1c0,0,0,0,0.1,0.1c0,0,0,0,0,0
	c0,0,0,0.1,0.1,0.1c0,0,0,0,0,0.1c0,0,0,0,0,0.1c0,0,0,0,0,0.1c0,0,0.1,0,0.2,0c0,0,0,0,0,0c0,0,0,0,0.1-0.1c0,0,0,0,0-0.1
	c0,0,0-0.1,0-0.1s0-0.1,0-0.1C40.4,40.9,40.4,40.8,40.4,40.7C40.4,40.7,40.4,40.7,40.4,40.7L40.4,40.7z M38,39.6L38,39.6
	C38,39.6,38,39.6,38,39.6L38,39.6C38,39.7,38,39.6,38,39.6z M38,39.8C38,39.8,38,39.8,38,39.8C38,39.8,38,39.8,38,39.8
	C38,39.8,38,39.8,38,39.8C38,39.7,38,39.7,38,39.8C38,39.7,38,39.7,38,39.8L38,39.8L38,39.8z M38.8,39.8
	C38.8,39.8,38.8,39.8,38.8,39.8L38.8,39.8C38.8,39.8,38.8,39.8,38.8,39.8C38.8,39.8,38.8,39.8,38.8,39.8
	C38.8,39.8,38.8,39.8,38.8,39.8C38.8,39.8,38.8,39.8,38.8,39.8C38.8,39.8,38.8,39.8,38.8,39.8z M38.9,40.1
	C38.9,40.1,38.9,40.1,38.9,40.1C38.8,40.1,38.8,40.1,38.9,40.1C38.8,40.1,38.8,40.1,38.9,40.1C38.8,40.1,38.8,40.1,38.9,40.1
	L38.9,40.1C38.8,40.1,38.8,40.1,38.9,40.1C38.8,40.1,38.9,40.1,38.9,40.1C38.9,40.1,38.9,40.1,38.9,40.1L38.9,40.1z"/>
<path class="st0" d="M18.3,23.2C18.3,23.2,18.3,23.1,18.3,23.2c0-0.1,0-0.1,0-0.1c0,0,0,0,0-0.1c0,0,0,0,0,0c0,0,0,0,0,0
	c0,0,0,0,0-0.1c0,0,0,0,0,0c0,0,0,0-0.1-0.1c0,0,0,0-0.1-0.1c0,0-0.1,0-0.1-0.1c0,0-0.1,0-0.1-0.1c0,0,0,0-0.1,0c0,0,0,0-0.1,0
	c0,0,0,0-0.1,0c0,0,0,0-0.1,0c0,0-0.1,0-0.1,0c0,0-0.1,0-0.1,0c0,0-0.1,0-0.1,0c0,0,0,0,0,0c0,0,0,0-0.1,0c0,0,0,0,0,0
	c0,0,0,0-0.1,0c0,0-0.1,0-0.1,0c0,0-0.1,0-0.1,0c0,0,0,0-0.1,0.1c0,0,0,0-0.1,0.1c0,0,0,0-0.1,0.1c0,0,0,0.1,0,0.1c0,0,0,0,0,0.1
	c0,0,0,0,0,0.1c0,0,0,0.1,0,0.1c0,0,0,0.1,0,0.1c0,0,0,0,0,0.1c0,0,0,0.1,0,0.1c0,0,0,0,0,0.1s0,0.1,0,0.1c0,0,0,0,0,0.1l0,0
	c0,0,0,0,0,0.1c0,0,0.1,0.1,0.1,0.2c0,0,0,0,0.1,0.1c0,0,0.1,0,0.1,0.1c0,0,0,0,0.1,0c0,0,0.1,0,0.1,0c0.1,0,0.2,0,0.2,0
	c0,0,0,0,0.1,0s0.1,0,0.1,0c0,0,0,0,0.1,0c0,0,0,0,0.1,0c0,0,0,0,0,0c0,0,0,0,0.1,0c0,0,0,0,0.1,0c0,0,0,0,0.1,0c0,0,0,0,0,0
	c0,0,0,0,0,0s0,0,0,0c0,0,0,0,0,0c0,0,0,0,0,0s0,0,0,0c0,0,0,0,0-0.1c0,0,0,0,0-0.1c0,0,0,0,0-0.1C18.3,23.3,18.3,23.3,18.3,23.2
	C18.3,23.3,18.3,23.2,18.3,23.2C18.3,23.2,18.3,23.2,18.3,23.2L18.3,23.2z M16.9,23.3L16.9,23.3C16.9,23.3,16.9,23.3,16.9,23.3
	L16.9,23.3C16.9,23.3,16.9,23.3,16.9,23.3z M17.1,23C17.1,23,17.1,23,17.1,23L17.1,23C17.1,23,17.1,23,17.1,23
	C17.1,23,17.1,23,17.1,23C17.2,23,17.2,23,17.1,23L17.1,23z M17.6,23.2C17.6,23.2,17.6,23.2,17.6,23.2
	C17.5,23.2,17.5,23.2,17.6,23.2C17.5,23.2,17.5,23.2,17.6,23.2C17.5,23.2,17.5,23.2,17.6,23.2c-0.1-0.1-0.1-0.1,0-0.1
	C17.6,23.1,17.6,23.1,17.6,23.2C17.6,23.2,17.6,23.2,17.6,23.2L17.6,23.2z M17.7,22.9C17.7,22.9,17.7,22.9,17.7,22.9
	c-0.1,0-0.1,0-0.1,0v0c0,0,0,0,0,0c0,0,0,0,0,0C17.7,22.8,17.7,22.8,17.7,22.9C17.7,22.8,17.7,22.9,17.7,22.9L17.7,22.9z M17.9,23.8
	L17.9,23.8C17.9,23.8,17.9,23.7,17.9,23.8C17.9,23.7,17.9,23.7,17.9,23.8C18,23.7,17.9,23.8,17.9,23.8L17.9,23.8z"/>
<path class="st0" d="M46.7,27.4c0,0,0-0.1,0-0.1c0,0,0-0.1,0-0.1c0,0,0-0.1,0-0.1c0,0,0-0.1,0-0.1s-0.1-0.1,0-0.1
	c0,0-0.1-0.1-0.1-0.1c0,0,0-0.1-0.1-0.1c0,0-0.1-0.1-0.1-0.1c0,0-0.1-0.1-0.1-0.1c0,0-0.1,0-0.1-0.1c0,0-0.1,0-0.1-0.1
	c0,0-0.1-0.1-0.1-0.1s-0.1,0-0.1,0c0,0-0.1,0-0.1-0.1c0,0,0,0-0.1,0c0,0-0.1,0-0.1,0c0,0-0.1,0-0.1,0c0,0-0.1,0-0.1,0
	c-0.1,0-0.1,0-0.2,0c-0.1,0-0.1,0-0.2,0s-0.1,0-0.2,0c-0.1,0-0.2,0.1-0.2,0.1c0,0-0.1,0.1-0.2,0.1c0,0-0.1,0.1-0.1,0.1
	c-0.1,0-0.1,0-0.1,0.1S44,26.3,44,26.3c0,0-0.1,0.1-0.2,0.1c-0.1,0,0,0.1-0.1,0.2c-0.1,0-0.1,0.1-0.1,0.2c0,0,0,0,0,0
	c0,0-0.1,0-0.1,0.1c0,0,0,0.1,0,0.1c0,0,0,0.1,0,0.1c0,0.1,0,0.1,0,0.2c0,0.1,0,0.1,0,0.2c0,0.1,0,0.1,0,0.2c0,0.1,0,0.1,0,0.1
	c0,0,0,0.1,0,0.2c0,0,0.1,0.1,0,0.1c0,0,0.1,0.1,0.1,0.1c0,0.1,0,0.1,0.1,0.1c0.1,0.1,0.1,0.1,0.2,0.2c0,0,0.1,0.1,0.1,0.1
	c0,0,0.1,0.1,0.1,0.1c0,0,0.1,0,0.2,0.1c0,0.1,0.1,0.1,0.1,0.1c0.1,0,0.1,0,0.2,0.1c0,0,0.1,0,0.2,0c0,0,0,0,0,0c0.1,0,0.1,0,0.2,0
	c0.1,0,0.3,0,0.4,0c0.1,0,0.1,0,0.2,0c0.1,0,0.1,0,0.2-0.1c0,0,0.1-0.1,0.1-0.1c0.1,0,0.1-0.1,0.1-0.1c0.1-0.1,0.2-0.2,0.3-0.3
	c0,0,0.1-0.1,0.1-0.1c0-0.1,0.1-0.1,0.1-0.1c0-0.1,0-0.1,0.1-0.1s0-0.1,0-0.1c0,0,0,0,0,0c0,0,0-0.1,0-0.2c0,0,0-0.1,0-0.2
	c0-0.1,0-0.1,0-0.2C46.7,27.5,46.7,27.5,46.7,27.4L46.7,27.4z M44.4,27.9C44.4,27.9,44.4,27.9,44.4,27.9
	C44.4,27.9,44.3,27.9,44.4,27.9C44.4,27.9,44.4,27.8,44.4,27.9C44.4,27.8,44.4,27.9,44.4,27.9C44.4,27.9,44.4,27.9,44.4,27.9
	L44.4,27.9z M44.5,28.5L44.5,28.5C44.5,28.5,44.5,28.4,44.5,28.5L44.5,28.5C44.5,28.4,44.5,28.5,44.5,28.5z M44.7,26.9
	c0,0.1-0.1,0.1-0.2,0c0,0,0,0,0,0s0,0,0,0c0,0,0-0.1,0-0.1c0-0.1,0.1-0.1,0.2,0c0,0,0,0,0.1,0.1C44.8,26.9,44.8,26.9,44.7,26.9
	L44.7,26.9z M45.2,27.4C45.2,27.4,45.2,27.4,45.2,27.4c0,0.1,0,0.1,0,0.1c0,0-0.1,0-0.1,0c0,0,0,0,0,0c0,0-0.1-0.1,0-0.1
	c0,0,0.1,0,0.1,0C45.2,27.3,45.2,27.3,45.2,27.4L45.2,27.4z M46.5,27.5C46.5,27.5,46.4,27.5,46.5,27.5
	C46.4,27.5,46.4,27.4,46.5,27.5C46.4,27.4,46.5,27.5,46.5,27.5C46.5,27.5,46.5,27.5,46.5,27.5z"/>
<path class="st0" d="M43.5,14.7c0,0,0-0.1,0-0.1c0,0,0-0.1,0-0.1c0,0,0-0.1,0-0.1c0,0,0-0.1,0-0.1c0,0,0-0.1,0-0.1c0,0,0,0,0-0.1
	s0-0.1,0-0.1c0,0,0,0,0-0.1c0,0-0.1,0-0.1-0.1c0,0,0,0,0,0c0,0,0,0-0.1-0.1c0,0,0,0-0.1-0.1c0,0,0,0-0.1-0.1c0,0-0.1,0-0.1-0.1
	c0,0-0.1,0-0.1-0.1s-0.1,0-0.1,0c0,0-0.1,0-0.2,0c0,0-0.1,0-0.1,0c0,0-0.1,0-0.1,0c0,0-0.1,0-0.1,0c0,0-0.1,0-0.1,0c0,0-0.1,0-0.1,0
	s-0.1,0.1-0.1,0.1c-0.1,0-0.1,0.1-0.1,0.1c0,0,0,0,0,0c0,0,0,0-0.1,0.1c0,0,0,0,0,0.1c0,0,0,0,0,0.1c0,0,0,0.1-0.1,0.1
	s0,0.1-0.1,0.1c0,0,0,0.1,0,0.1s0,0.1,0,0.1c0,0,0,0.1,0,0.1c0,0,0,0.1,0,0.1c0,0,0,0.1,0,0.1c0,0,0,0.1,0,0.1c0,0.1,0,0.1,0.1,0.2
	c0,0,0,0.1,0,0.1c0,0,0,0.1,0,0.1s0.1,0,0.1,0.1c0,0,0,0.1,0.1,0.1c0,0,0.1,0.1,0.1,0.1c0,0,0.1,0,0.1,0.1c0,0,0,0,0,0
	c0,0,0.1,0,0.1,0c0.1,0,0.2,0.1,0.2,0.1c0,0,0.1,0,0.1,0c0,0,0.1,0,0.2,0c0,0,0.1,0,0.1,0c0,0,0.1,0,0.1,0c0.1,0,0.2-0.1,0.3-0.1
	c0,0,0.1,0,0.1,0c0,0,0.1,0,0.1-0.1c0,0,0,0,0.1-0.1c0,0,0-0.1,0.1-0.1c0,0,0,0,0,0c0,0,0-0.1,0.1-0.1s0-0.1,0.1-0.1s0-0.1,0-0.1
	c0,0,0,0,0-0.1s0,0,0-0.1s0-0.1,0-0.1c0,0,0-0.1,0-0.1c0,0,0-0.1,0-0.1C43.5,14.8,43.5,14.8,43.5,14.7L43.5,14.7z M41.8,15.2
	C41.8,15.2,41.8,15.2,41.8,15.2C41.8,15.2,41.8,15.2,41.8,15.2C41.8,15.2,41.8,15.2,41.8,15.2C41.9,15.2,41.9,15.2,41.8,15.2
	L41.8,15.2z M41.9,14.8C41.9,14.8,41.9,14.8,41.9,14.8C41.9,14.8,41.9,14.8,41.9,14.8C41.9,14.8,41.9,14.8,41.9,14.8
	C41.9,14.8,41.9,14.8,41.9,14.8L41.9,14.8L41.9,14.8z M42.4,14.3C42.4,14.3,42.3,14.3,42.4,14.3C42.3,14.3,42.3,14.3,42.4,14.3
	c-0.1-0.1-0.1-0.1-0.1-0.1c0,0,0-0.1,0-0.1c0,0,0.1,0,0.1,0C42.4,14.2,42.4,14.2,42.4,14.3C42.4,14.3,42.4,14.3,42.4,14.3L42.4,14.3
	z M42.5,14.7C42.5,14.7,42.5,14.7,42.5,14.7C42.5,14.8,42.5,14.8,42.5,14.7C42.5,14.8,42.5,14.7,42.5,14.7c-0.1,0-0.1,0-0.1,0
	C42.4,14.7,42.4,14.6,42.5,14.7C42.5,14.6,42.5,14.6,42.5,14.7C42.6,14.6,42.6,14.7,42.5,14.7L42.5,14.7z M43.3,15.1
	C43.3,15.1,43.3,15.1,43.3,15.1C43.2,15.1,43.2,15,43.3,15.1C43.2,15,43.2,15,43.3,15.1C43.3,15,43.3,15.1,43.3,15.1z"/>
<path class="st0" d="M25.2,10.5c0,0,0-0.1,0-0.1c0,0,0,0,0-0.1s0,0,0-0.1s0,0,0-0.1c0,0,0,0,0-0.1s0,0,0-0.1c0,0,0,0,0,0l0,0
	c0,0,0,0,0,0c0,0-0.1-0.1-0.1-0.1c0,0,0,0-0.1,0c0,0,0,0-0.1,0c0,0,0,0,0,0c0,0,0,0-0.1,0c-0.1,0-0.1,0-0.2,0c0,0,0,0,0,0
	c0,0,0,0-0.1,0c0,0,0,0,0,0c0,0,0,0,0,0c0,0,0,0,0,0c0,0,0,0,0,0c0,0,0,0,0,0c0,0,0,0,0,0l0,0c0,0,0,0,0,0c0,0,0,0,0,0s0,0,0,0
	c0,0,0,0,0,0c0,0,0,0,0,0c0,0,0,0,0,0.1s0,0,0,0.1c0,0,0,0,0,0c0,0,0,0,0,0.1c0,0,0,0,0,0c0,0,0,0,0,0s0,0,0,0s0,0,0,0
	c0,0,0,0,0,0.1c0,0,0,0,0,0c0,0,0,0,0,0c0,0,0,0,0,0c0,0,0,0,0,0c0,0,0,0,0.1,0c0,0,0,0,0.1,0.1c0,0,0,0,0.1,0c0,0,0.1,0,0.1,0
	c0,0,0,0,0.1,0c0,0,0,0,0,0c0,0,0,0,0,0c0,0,0,0,0,0c0,0,0,0,0.1,0c0,0,0,0,0.1,0c0,0,0.1,0,0.1,0c0,0,0,0,0,0c0,0,0,0,0,0
	c0,0,0,0,0,0c0,0,0,0,0,0c0,0,0,0,0-0.1c0,0,0,0,0-0.1c0,0,0,0,0-0.1c0,0,0,0,0-0.1c0,0,0,0,0-0.1C25.2,10.6,25.2,10.6,25.2,10.5
	C25.2,10.6,25.2,10.6,25.2,10.5C25.3,10.5,25.2,10.5,25.2,10.5L25.2,10.5z M24.2,10.2L24.2,10.2C24.2,10.2,24.2,10.2,24.2,10.2
	L24.2,10.2C24.2,10.2,24.2,10.2,24.2,10.2z M24.5,10.5C24.5,10.5,24.5,10.5,24.5,10.5C24.5,10.5,24.5,10.5,24.5,10.5L24.5,10.5
	C24.6,10.5,24.6,10.5,24.5,10.5C24.6,10.5,24.6,10.5,24.5,10.5C24.6,10.5,24.6,10.5,24.5,10.5C24.6,10.5,24.5,10.5,24.5,10.5
	L24.5,10.5z M24.6,10.8C24.6,10.8,24.6,10.8,24.6,10.8C24.6,10.8,24.6,10.8,24.6,10.8C24.6,10.7,24.6,10.7,24.6,10.8
	C24.6,10.7,24.6,10.7,24.6,10.8C24.6,10.7,24.6,10.7,24.6,10.8C24.6,10.8,24.6,10.8,24.6,10.8C24.6,10.8,24.6,10.8,24.6,10.8z
	 M24.9,10.5C24.9,10.5,24.9,10.5,24.9,10.5C24.9,10.5,24.9,10.5,24.9,10.5C24.9,10.5,24.9,10.5,24.9,10.5
	C24.9,10.5,24.9,10.5,24.9,10.5L24.9,10.5L24.9,10.5z M25,10.3L25,10.3C25,10.3,25,10.3,25,10.3L25,10.3C25,10.3,25,10.3,25,10.3z"
	/>
<path class="st0" d="M31.6,42.3C31.6,42.3,31.6,42.2,31.6,42.3c0-0.1,0-0.1,0-0.1s0,0,0,0c0,0,0,0,0,0c0,0,0-0.1,0-0.1
	c0,0,0-0.1,0-0.1s0-0.1,0-0.1c0,0,0-0.1-0.1-0.1c0,0,0,0,0-0.1c0,0,0-0.1-0.1-0.1c0,0,0-0.1-0.1-0.1c0,0,0,0,0-0.1c0,0,0,0-0.1-0.1
	c0,0,0,0-0.1-0.1c0,0,0,0,0-0.1c0,0,0,0-0.1-0.1c0,0,0,0-0.1,0c0,0,0,0-0.1,0c0,0,0,0-0.1,0c0,0,0,0,0,0c0,0,0,0-0.1,0s0,0-0.1,0
	c0,0-0.1,0-0.1,0c0,0-0.1,0-0.1,0c0,0-0.1,0-0.1,0c0,0-0.1,0-0.1,0c0,0,0,0-0.1,0s0,0-0.1,0c0,0-0.1,0-0.1,0c0,0,0,0-0.1,0
	c0,0,0,0-0.1,0c0,0,0,0-0.1,0c0,0,0,0-0.1,0c0,0-0.1,0-0.2,0c0,0-0.1,0.1-0.1,0c0,0,0,0,0,0c0,0-0.1,0-0.1,0.1c0,0-0.1,0.1-0.1,0.1
	c0,0,0,0,0,0.1c0,0,0,0.1,0,0.1c0,0,0,0.1,0.1,0.1c0,0,0,0,0,0c0,0,0,0,0.1,0c0,0,0.1,0,0.1,0c0.1,0,0.2,0,0.2,0c0,0,0.1,0,0.1,0
	c0.2,0,0.4,0.1,0.5,0.1c0,0,0,0,0.1,0c0,0,0,0,0.1,0c0,0,0,0,0,0c0,0,0,0,0.1,0c0,0,0,0,0.1,0c0,0,0,0,0,0c0,0,0,0,0.1,0
	c0,0,0,0,0.1,0c0,0,0,0,0,0.1c0,0,0,0,0,0c0,0,0,0,0,0.1c0,0,0,0.1,0.1,0.1c0,0,0.1,0.1,0.1,0.1c0,0,0.1,0,0.1,0.1c0,0,0,0,0,0
	c0,0,0.1,0.1,0.1,0.1l0,0l0,0c0,0,0.1,0,0.1,0c0,0,0,0,0.1,0c0,0,0.1,0,0.1,0c0,0,0,0,0.1,0c0,0,0,0,0,0c0,0,0,0,0,0
	c0,0,0-0.1,0-0.1C31.6,42.4,31.6,42.4,31.6,42.3C31.6,42.3,31.6,42.3,31.6,42.3L31.6,42.3z"/>
<path class="st0" d="M29,9.8c0-0.1,0-0.3,0-0.4c0,0,0-0.1,0-0.1c0,0,0-0.1,0-0.1c0,0,0-0.1,0-0.1c0,0,0,0,0-0.1c0,0,0,0,0-0.1
	c0,0,0,0,0-0.1s0,0,0-0.1c0,0,0,0,0-0.1c0-0.1-0.1-0.1-0.1-0.2c0,0,0,0,0,0c0,0,0,0-0.1-0.1c0,0,0,0-0.1,0c0,0,0,0,0,0
	c0,0,0,0-0.1,0c0,0-0.1,0-0.1,0s0,0,0,0.1c0,0,0,0,0,0.1c0,0.1,0,0.1,0,0.1c0,0,0,0.1,0,0.1v0c0.1,0.2,0.2,0.3,0.2,0.6
	c0,0.3-0.1,0.6-0.2,0.8c-0.1,0.1-0.2,0.2-0.3,0.3c0,0,0,0-0.1,0c0,0-0.1,0-0.1,0.1c0,0,0,0.1,0,0.1c0,0,0,0.1,0,0.1v0l0,0l0,0l0,0
	c0,0,0,0,0,0c0,0,0,0,0,0c0,0,0,0,0,0c0,0,0,0,0,0c0,0,0,0,0,0h0c0,0,0.1,0,0.1,0c0,0,0,0,0,0c0,0,0,0,0.1,0c0,0,0.1,0,0.1,0
	c0,0,0,0,0.1,0c0,0,0,0,0.1,0c0,0,0,0,0.1,0c0,0,0,0,0,0c0,0,0,0,0.1,0c0,0,0,0,0.1-0.1s0,0,0.1-0.1c0,0,0,0,0.1-0.1
	c0,0,0-0.1,0-0.1c0,0,0-0.1,0.1-0.1c0,0,0-0.1,0-0.1c0,0,0,0,0,0c0,0,0-0.1,0-0.1c0,0,0,0,0-0.1c0,0,0,0,0-0.1c0,0,0,0,0-0.1
	s0-0.1,0-0.1c0,0,0,0,0,0C28.9,9.9,28.9,9.8,29,9.8C28.9,9.8,28.9,9.8,29,9.8L29,9.8z"/>
<path class="st0" d="M21.6,33.7C21.6,33.7,21.6,33.6,21.6,33.7c0-0.1,0-0.1,0-0.1c0,0,0-0.1,0-0.1c0,0,0,0,0-0.1l0,0
	c0,0-0.1-0.1-0.1-0.2c0,0,0-0.1-0.1-0.1c0,0-0.1,0-0.1-0.1c-0.1,0-0.1,0-0.2,0c0,0,0,0-0.1,0c0,0,0,0-0.1,0c0,0,0,0,0,0s0,0,0,0
	c0,0,0,0-0.1,0c0,0,0,0,0,0c-0.1,0-0.1,0.1-0.2,0.1c0,0,0,0-0.1,0.1c0,0,0,0,0,0.1c0,0,0,0,0,0c0,0,0,0,0,0.1c0,0,0,0,0,0
	c0,0,0,0,0,0.1c0,0,0,0.1,0,0.1c0,0,0,0.1,0,0.1c0,0,0,0,0,0.1c0,0,0,0,0,0.1c0,0,0,0.1,0,0.1c0,0,0,0,0,0c0,0,0,0.1,0.1,0.1
	c0,0,0,0,0,0.1c0,0,0,0,0,0.1c0,0,0,0,0.1,0.1c0,0,0,0,0.1,0c0,0,0,0,0.1,0c0,0,0,0,0.1,0c0,0,0.1,0,0.1,0c0,0,0,0,0.1,0
	c0,0,0.1,0,0.1,0c0,0,0.1,0,0.1,0c0.1,0,0.1,0,0.2-0.1c0,0,0.1,0,0.1-0.1c0,0,0,0,0.1-0.1c0,0,0,0,0-0.1c0,0,0,0,0-0.1
	c0,0,0,0,0-0.1c0,0,0-0.1,0-0.2C21.6,33.8,21.7,33.8,21.6,33.7C21.7,33.7,21.7,33.7,21.6,33.7L21.6,33.7z M21.2,33.9
	C21.2,33.9,21.2,34,21.2,33.9c0,0.1-0.1,0.1-0.1,0.1h0c0,0,0,0,0-0.1c0,0,0,0,0-0.1S21.1,33.9,21.2,33.9c-0.1-0.1,0-0.1,0-0.1h0
	C21.2,33.8,21.2,33.8,21.2,33.9C21.2,33.9,21.2,33.9,21.2,33.9L21.2,33.9z M21.3,33.7C21.3,33.7,21.3,33.7,21.3,33.7
	c0,0.1,0,0.1,0,0.1l0,0C21.2,33.8,21.2,33.8,21.3,33.7C21.2,33.7,21.2,33.7,21.3,33.7C21.2,33.7,21.2,33.6,21.3,33.7
	C21.2,33.6,21.3,33.6,21.3,33.7C21.3,33.6,21.3,33.6,21.3,33.7z"/>
<path class="st0" d="M42.3,38.7C42.3,38.7,42.3,38.7,42.3,38.7C42.3,38.7,42.3,38.7,42.3,38.7c0-0.1,0-0.1,0-0.1c0,0,0,0-0.1-0.1
	s0,0,0-0.1c0,0,0,0,0,0s0,0,0,0c0,0,0,0,0,0c0,0,0,0-0.1,0s0,0,0,0l0,0c0,0-0.1,0-0.1,0c0,0,0,0-0.1,0c0,0,0,0-0.1,0
	c0,0-0.1,0.1-0.1,0.1c0,0,0,0,0,0c0,0,0,0,0,0c0,0,0,0,0,0c0,0,0,0,0,0c0,0,0,0,0,0c0,0,0,0,0,0c0,0,0,0.1,0,0.1c0,0,0,0,0,0.1
	c0,0,0,0,0,0c0,0,0,0,0,0s0,0,0,0c0,0,0,0,0,0c0,0,0,0,0,0c0,0,0,0,0,0.1s0,0,0.1,0c0,0,0,0,0,0c0,0,0,0,0,0c0,0,0,0,0.1,0l0,0
	c0,0,0,0,0.1,0s0,0,0,0s0,0,0,0s0,0,0.1,0s0,0,0,0c0,0,0,0,0,0c0,0,0,0,0,0c0,0,0,0,0,0c0,0,0,0,0,0c0,0,0,0,0,0c0,0,0,0,0,0
	C42.3,38.9,42.4,38.9,42.3,38.7C42.4,38.8,42.4,38.8,42.3,38.7C42.4,38.7,42.4,38.7,42.3,38.7L42.3,38.7z M42,38.6
	C42,38.6,42,38.6,42,38.6C42,38.6,42,38.6,42,38.6C42,38.6,42,38.6,42,38.6C42,38.6,42,38.6,42,38.6C42,38.6,42,38.6,42,38.6
	C42,38.6,42,38.6,42,38.6C42,38.6,42,38.6,42,38.6L42,38.6L42,38.6z M42.1,38.8C42.1,38.8,42.1,38.8,42.1,38.8
	C42.1,38.8,42.1,38.8,42.1,38.8C42.1,38.8,42.1,38.8,42.1,38.8C42.1,38.7,42.1,38.7,42.1,38.8c-0.1-0.1-0.1-0.1-0.1-0.1l0,0
	c0,0,0,0,0,0C42.1,38.7,42.1,38.7,42.1,38.8C42.1,38.7,42.1,38.8,42.1,38.8C42.1,38.8,42.1,38.8,42.1,38.8L42.1,38.8z"/>
<path class="st0" d="M36.2,37.4C36.2,37.4,36.2,37.3,36.2,37.4c0-0.1,0-0.1,0-0.2c0,0,0,0,0-0.1c0,0,0,0,0,0c0,0,0-0.1,0-0.1
	c0,0-0.1,0-0.1-0.1c0,0-0.1,0-0.1-0.1c0,0,0,0-0.1,0s0,0,0,0s0,0-0.1,0c0,0,0,0-0.1,0c0,0,0,0-0.1,0c0,0,0,0-0.1,0c0,0,0,0-0.1,0h0
	c0,0,0,0-0.1,0c0,0-0.1,0-0.1,0.1s0,0-0.1,0.1c0,0,0,0,0,0c0,0-0.1,0.1-0.1,0.1c0,0,0,0,0,0c0,0,0,0,0,0.1c0,0,0,0,0,0.1
	c0,0,0,0.1,0,0.1c0,0,0,0.1,0,0.1c0,0,0,0,0,0.1c0,0,0,0,0,0.1c0,0,0,0.1,0,0.2c0,0,0,0,0,0.1c0,0,0,0,0,0.1c0,0,0,0,0.1,0.1
	c0,0,0,0,0.1,0c0,0,0.1,0,0.1,0c0,0,0,0,0,0c0,0,0.1,0,0.1,0c0,0,0.1,0,0.1,0c0,0,0.1,0,0.1,0c0,0,0,0,0,0c0,0,0,0,0,0
	c0,0,0,0,0.1,0c0,0,0,0,0,0c0,0,0.1-0.1,0.2-0.1c0,0,0,0,0.1-0.1c0,0,0,0,0,0c0,0,0,0,0,0c0,0,0,0,0-0.1c0,0,0,0,0-0.1
	c0,0,0,0,0-0.1c0,0,0-0.1,0-0.1C36.2,37.5,36.2,37.5,36.2,37.4C36.2,37.4,36.2,37.4,36.2,37.4L36.2,37.4z M35.3,37.5L35.3,37.5
	C35.3,37.5,35.3,37.5,35.3,37.5L35.3,37.5C35.3,37.5,35.3,37.5,35.3,37.5z"/>
<path class="st0" d="M34.6,42.9C34.6,42.9,34.6,42.9,34.6,42.9C34.7,43,34.7,43,34.6,42.9c0.1,0.1,0.1,0.1,0.1,0.1c0,0,0,0,0.1,0
	l0,0c0,0,0.1,0,0.2,0c0,0,0,0,0,0c0.1,0,0.1,0,0.1-0.1c0,0,0,0,0-0.1c0,0,0,0,0-0.1c0,0,0,0,0-0.1c0,0,0-0.1,0-0.1c0,0,0,0,0-0.1
	c0,0,0,0,0-0.1c0,0,0,0,0-0.1c0,0,0,0,0-0.1c0,0,0,0,0,0c0,0,0,0,0-0.1c0,0,0,0-0.1-0.1c0,0,0,0,0,0c0,0-0.1,0-0.1-0.1
	c0,0-0.1,0-0.1,0c0,0-0.1,0-0.2,0c0,0-0.1,0-0.1,0c0,0-0.1,0-0.1,0c0,0,0,0-0.1,0c0,0-0.1,0-0.1,0c0,0-0.1,0-0.1,0.1s0,0.1-0.1,0.1
	c0,0,0,0,0,0c0,0,0,0,0,0.1c0,0,0,0,0,0.1c0,0.1,0,0.1,0,0.2c0,0,0,0,0,0c0,0,0,0.1,0.1,0.1c0,0,0,0,0.1,0c0.1,0,0.2,0,0.2,0
	C34.5,42.8,34.5,42.9,34.6,42.9C34.6,42.9,34.6,42.9,34.6,42.9L34.6,42.9z"/>
<path class="st0" d="M10.7,41.2L10.7,41.2C10.7,41.2,10.7,41.2,10.7,41.2C10.7,41.2,10.7,41.2,10.7,41.2L10.7,41.2z"/>
<path class="st0" d="M24.3,47.3L24.3,47.3C24.4,47.4,24.3,47.3,24.3,47.3z"/>
<path class="st0" d="M13.5,43.3L13.5,43.3L13.5,43.3C13.5,43.3,13.5,43.3,13.5,43.3z"/>
<path class="st0" d="M16.2,44.9L16.2,44.9C16.2,44.8,16.2,44.9,16.2,44.9L16.2,44.9z"/>
<path class="st0" d="M24.3,47.3L24.3,47.3C24.3,47.3,24.3,47.3,24.3,47.3C24.3,47.3,24.3,47.3,24.3,47.3z"/>
<path class="st0" d="M20,46.4L20,46.4L20,46.4C20,46.4,20,46.4,20,46.4z"/>
<path class="st0" d="M10.7,41.2L10.7,41.2L10.7,41.2C10.7,41.2,10.7,41.2,10.7,41.2L10.7,41.2z"/>
<path class="st0" d="M13.6,39.5c0.1,0,0.3,0,0.4,0C13.9,39.5,13.8,39.5,13.6,39.5z M40.6,42.8C40.6,42.8,40.5,42.8,40.6,42.8
	c-0.1,0-0.2,0-0.2,0c-0.1,0-0.2,0-0.2,0c-0.2,0-0.5,0-0.7,0c0,0-0.1,0-0.1,0c-0.2,0-0.4-0.1-0.5,0c-0.1,0-0.2,0.1-0.2,0
	c-0.1,0-0.1-0.1-0.2,0c0,0-0.2,0-0.2,0c-0.1,0-0.2,0-0.3,0c0,0-0.1,0-0.1,0c0,0-0.1,0-0.1,0c0,0.1-0.1,0-0.2,0c-0.1,0-0.1,0-0.2,0
	c-0.1,0-0.2,0.1-0.3,0.1c-0.2,0.1-0.3,0.2-0.5,0.3c-0.1,0.1-0.2,0.2-0.2,0.4c0,0.1-0.1,0.2-0.2,0.4c-0.2,0.2-0.3,0.5-0.5,0.7
	c-0.1,0.2-0.3,0.3-0.5,0.3c-0.1,0-0.3,0-0.4-0.1c-0.2-0.1-0.3-0.2-0.3-0.5c0-0.1,0-0.2-0.1-0.3c-0.1-0.1-0.3-0.3-0.5-0.2
	c-0.1,0-0.1,0-0.2,0c-0.1,0-0.2,0-0.2,0.1c-0.2,0.2-0.3,0.4-0.3,0.6c0,0.1-0.1,0.2-0.2,0.3c-0.1,0.1-0.2,0.1-0.2,0
	c-0.1-0.1-0.2-0.2-0.2-0.2c-0.2-0.1-0.3-0.2-0.4-0.3c0,0-0.1,0-0.1-0.1c-0.1-0.1-0.3-0.1-0.5-0.1c-0.1,0-0.2,0-0.4,0
	c-0.1,0-0.3,0-0.4,0.1c-0.2,0-0.4,0.1-0.6,0.1c-0.3,0.1-0.5,0.1-0.8,0.1c-0.1,0-0.3,0-0.4,0c-0.1,0-0.2,0-0.3,0.1c0,0-0.1,0-0.2,0
	c0,0-0.1-0.1-0.1,0c-0.1,0.1-0.2,0-0.2,0c-0.2,0-0.3-0.1-0.4-0.2c-0.1-0.1-0.2-0.3-0.4-0.5c0,0,0-0.1,0-0.2c0-0.2,0-0.3,0-0.5
	c0,0,0,0,0-0.1c0-0.1-0.1-0.1-0.1-0.2c0-0.1,0-0.2,0-0.2c0-0.1,0-0.3-0.1-0.4c0-0.1-0.1-0.1-0.2-0.2c-0.1-0.1-0.2-0.2-0.3-0.2
	c-0.2-0.2-0.4-0.3-0.6-0.3c-0.1,0-0.2,0-0.3,0c-0.2-0.1-0.4-0.2-0.5-0.4c0-0.1-0.1-0.1-0.1-0.2c0,0,0-0.1,0-0.1c0-0.1,0-0.2,0-0.4
	c0-0.1,0-0.2,0.1-0.2s0.1-0.2,0.1-0.2c0.1-0.1,0-0.2,0-0.2c0-0.1,0.1-0.1,0.1-0.2c0-0.1,0-0.2-0.1-0.3c-0.1-0.1-0.1-0.2-0.2-0.3
	c0-0.2-0.1-0.3-0.2-0.4c-0.1-0.1-0.2-0.2-0.3-0.3c-0.1-0.1-0.2-0.2-0.4-0.3c-0.2-0.1-0.4-0.1-0.6-0.2c-0.1,0-0.2,0-0.3,0
	c-0.2,0-0.4,0.1-0.6,0.2c-0.2,0.2-0.4,0.4-0.6,0.7c-0.1,0.1-0.1,0.1-0.2,0.2c-0.1,0.1-0.2,0.2-0.3,0.2c-0.1,0-0.1,0-0.2,0
	c-0.1-0.1-0.2-0.1-0.3-0.2c0,0-0.1-0.1-0.1-0.1c-0.2-0.2-0.3-0.4-0.3-0.7c0-0.1,0-0.2-0.1-0.2c0-0.1-0.1-0.1-0.1-0.2c0,0,0,0,0,0
	c-0.1-0.2-0.4-0.4-0.6-0.5c-0.1,0-0.1,0-0.2-0.1c-0.1,0-0.1,0-0.2,0c-0.2-0.1-0.4-0.1-0.5,0c0,0-0.1,0.1-0.1,0.2
	c-0.1,0.1-0.3,0.3-0.5,0.3c0,0-0.1,0-0.1,0.1l-0.1,0c-0.1,0-0.1,0.1-0.2,0.1s-0.2,0-0.2,0c-0.1,0-0.2,0-0.2,0s-0.2,0-0.2,0
	c-0.1,0-0.2,0-0.2,0s-0.2,0-0.2,0c-0.1,0-0.2,0-0.2-0.1c-0.2-0.1-0.3-0.2-0.5-0.3l0,0c-0.1-0.1-0.3-0.2-0.4-0.4
	c-0.1-0.1-0.1-0.2-0.1-0.2l-0.1-0.1c0,0,0-0.1-0.1-0.1c-0.1-0.1-0.1-0.2-0.1-0.3c0,0,0-0.1,0-0.2c0-0.1,0-0.2,0-0.3
	c0-0.1,0-0.2,0-0.3c0-0.2,0.1-0.3,0.1-0.5c0.1-0.2,0.1-0.3,0.2-0.4c0.1-0.1,0.1-0.1,0.2-0.2c0.1-0.1,0.1-0.1,0.2-0.2
	c0.1,0,0.1-0.1,0.2-0.1l0.1-0.1c0,0,0.1,0,0.1,0c0,0,0,0,0,0c-0.1-0.1-0.1-0.2-0.2-0.3c-0.1-0.2-0.3-0.3-0.4-0.5
	c-0.1-0.1-0.1-0.2-0.2-0.2c-0.2-0.1-0.3-0.2-0.4-0.4c-0.1-0.2-0.2-0.4-0.2-0.6c0-0.1-0.1-0.2,0-0.3c0-0.2,0.1-0.3,0.2-0.5
	c0,0,0-0.1,0.1-0.1c0.1-0.4,0.1-0.4,0.4-0.7c0.2-0.2,0.3-0.4,0.4-0.6c0,0,0.1-0.1,0-0.2c0-0.1,0-0.2,0-0.3c0.1-0.2,0.1-0.5,0.1-0.7
	c-0.1-0.1,0-0.1-0.1-0.2c0-0.1,0-0.2-0.1-0.2c0-0.2,0-0.3,0-0.5c0-0.2-0.1-0.3-0.1-0.5c-0.1-0.2-0.2-0.4-0.3-0.6
	c-0.1-0.1-0.1-0.3-0.2-0.4c-0.1-0.1-0.1-0.3-0.2-0.4c-0.1-0.1-0.1-0.3-0.1-0.4c0-0.1-0.1-0.2-0.1-0.3c0-0.1,0-0.2,0-0.4
	c0-0.1,0-0.2,0-0.3c0,0,0-0.1,0-0.1c0.1-0.1,0.1-0.3,0.1-0.5c0-0.1,0-0.2,0.1-0.3c0,0,0.1-0.1,0.1-0.1c0-0.2,0.1-0.4,0.2-0.5
	c0.2-0.3,0.4-0.5,0.6-0.8c0.1-0.1,0.2-0.2,0.3-0.4c0.1-0.1,0.1-0.3,0.2-0.4c0.1-0.2,0.2-0.3,0.2-0.5c0-0.1,0.1-0.3,0.1-0.4
	c0-0.1,0-0.2,0-0.4c0,0,0-0.1,0-0.1c-0.1-0.3-0.2-0.6-0.3-0.9c-0.1-0.1-0.1-0.3-0.2-0.5c-0.1-0.2-0.3-0.4-0.4-0.6c0,0,0-0.1,0-0.1
	c-0.1-0.2-0.1-0.4-0.2-0.6c-0.1-0.2-0.2-0.5-0.4-0.7c0-0.1-0.1-0.1-0.1-0.2c0,0,0-0.1,0-0.1c0.1-0.2,0.2-0.4,0.4-0.5
	c0.2-0.1,0.4-0.1,0.5-0.3c0,0,0.1,0,0.1,0c0.2,0.1,0.4,0.2,0.6,0.3c0,0,0.1,0.1,0.1,0.1c0.2,0.1,0.4,0.2,0.6,0.4
	c0.2,0.1,0.4,0.3,0.6,0.4c0.1,0.1,0.2,0.2,0.4,0.2c0.2,0,0.5,0.1,0.7,0.1c0.1,0,0.2-0.1,0.3-0.2c0-0.1,0-0.2,0.1-0.3
	c0-0.1,0.1-0.2,0.2-0.3c0.1-0.1,0.2-0.3,0.2-0.5c0-0.1,0-0.2,0.1-0.3c0-0.1,0-0.2,0-0.3c0-0.1-0.1-0.2-0.2-0.4
	c-0.2-0.2-0.4-0.4-0.6-0.6c0,0,0-0.1-0.1-0.1c0,0-0.1-0.1-0.1-0.1c0-0.1-0.1-0.2-0.2-0.3c0,0,0,0,0,0c0-0.1-0.1-0.1-0.1-0.2
	c0-0.1-0.1-0.2-0.1-0.3c0-0.1,0-0.2,0.1-0.3c0.1-0.1,0,0,0-0.1c0.1-0.3,0.2-0.3,0.5-0.4c0,0,0,0,0,0c0,0,0,0,0.1,0c0,0,0.1,0,0.1,0
	c0.1,0,0.2-0.1,0.3-0.1c0.2,0,0.4-0.1,0.7-0.1c0.1,0,0.3-0.1,0.4-0.1c0,0,0,0,0,0c0.1-0.1,0.2-0.2,0.3-0.3c0.2-0.2,0.2-0.2,0.3-0.5
	c0-0.1,0.1-0.2,0.1-0.3s0-0.2,0.1-0.3c0.1-0.1,0-0.2,0.1-0.3c0-0.1,0-0.3,0.1-0.4c0-0.1,0-0.2,0-0.3c0,0,0-0.1,0-0.1
	c-0.1-0.1,0-0.1,0-0.2c0,0,0-0.1,0-0.1c-0.3,0-0.5-0.1-0.8-0.3c-0.1,0-0.1-0.1-0.2-0.1c-0.1-0.1-0.1-0.1-0.2-0.2
	c-0.1-0.1-0.1-0.1-0.1-0.2c0-0.1-0.1-0.1-0.1-0.2c0,0,0,0,0,0c-0.2-0.3-0.2-0.7-0.2-1.1c0-0.3,0.1-0.5,0.2-0.8
	c0.3-0.6,0.9-1,1.5-1.1c0.2,0,0.3,0,0.5,0c0.1,0,0.2,0,0.2,0c0.1,0,0.1,0,0.2,0.1l0.1,0l0.1,0.1c0.1,0,0.1,0.1,0.2,0.1
	c0.1,0.1,0.2,0.2,0.3,0.3c0.1,0,0.1,0,0.2,0c0.1,0,0.2-0.1,0.3-0.2c0.1-0.1,0.2-0.2,0.3-0.3c0,0,0-0.1,0-0.1c0-0.2,0.1-0.4,0.1-0.6
	c0-0.1,0-0.2,0.1-0.3C24,4.2,24.2,4,24.3,3.9c0.2-0.1,0.4-0.2,0.6-0.3c0.1,0,0.3,0,0.4-0.1c0.1,0,0.2,0,0.3-0.1
	c0.4-0.2,0.7-0.3,1-0.6c0,0,0,0,0,0c0.1,0,0.2-0.1,0.2-0.2c0,0,0.1-0.1,0.1-0.1c0.3-0.2,0.6-0.3,0.9-0.3c0.1-0.1,0.2,0,0.3-0.1
	c0.1,0,0.3-0.1,0.5-0.1c0.3,0,0.6-0.1,0.9-0.1c0.3,0,0.7,0,1,0c0.2,0,0.3,0,0.5,0c0.2,0,0.4,0.1,0.6,0.1c0.1,0.1,0.2,0,0.3,0.1
	c0.1,0,0.2,0.1,0.3,0.1c0.1,0,0.2,0,0.2,0c0,0,0,0,0,0c0.1,0,0.1,0,0.2,0c0.1,0,0.1,0,0.1-0.1c0-0.2,0-0.3,0.1-0.5
	c0.1-0.2-0.2-0.6-0.4-0.6c-0.2,0-0.3,0-0.5,0c-0.1,0-0.3-0.1-0.4-0.1c-0.1-0.1-0.3,0-0.5-0.1c-0.1-0.1-0.3,0-0.5,0
	c-0.1,0-0.2,0-0.2,0C30.3,1,30.2,1,30,0.9c0,0-0.1,0-0.1,0c-0.1,0-0.2,0-0.2,0c-0.1,0-0.3-0.1-0.4,0c0,0-0.1,0-0.1,0
	c-0.1-0.1-0.2,0-0.3-0.1c0,0,0,0-0.1,0c-0.1,0-0.2-0.1-0.3,0c0,0-0.1,0-0.1,0c-0.1-0.1-0.2,0-0.3-0.1c-0.1-0.1-0.2,0-0.3,0
	c-0.1,0-0.2,0.1-0.4-0.1c0,0-0.1,0-0.1,0c-0.1,0.1-0.3,0.1-0.4,0c-0.1,0-0.1,0-0.2,0c-0.2,0-0.4,0-0.6,0c-0.3,0-0.6,0-0.9,0H25
	c-0.3,0-0.7,0-1,0c-0.1,0-0.1,0-0.2,0c-0.2,0.1-0.4,0.1-0.6,0.1c-0.2,0-0.4,0-0.6,0.1c0,0,0,0,0,0C22.3,1,22.1,1,21.8,1
	c-0.2,0-0.4,0-0.6,0c-0.1,0-0.3,0-0.4,0.1c-0.1,0-0.1,0-0.2,0.1c-0.2,0.1-0.4,0.1-0.7,0.2c-0.2,0.1-0.4,0.2-0.7,0.1
	c-0.1,0.1-0.2,0-0.2,0.1c-0.1,0.1-0.3,0-0.4,0.1c-0.3,0-0.6,0.1-0.9,0.2c-0.2,0.1-0.5,0.2-0.7,0.3c-0.1,0-0.3,0.1-0.4,0.1
	c-0.4,0.1-0.8,0.3-1.2,0.5c-0.1,0-0.2,0.1-0.3,0.1c-0.2,0.1-0.4,0.2-0.6,0.3c-0.1,0.1-0.2,0.2-0.4,0.2c-0.4,0.1-0.6,0.3-1,0.5
	c-0.2,0.1-0.4,0.2-0.6,0.3c-0.1,0.1-0.3,0.1-0.4,0.2c-0.1,0.1-0.2,0.2-0.4,0.2c-0.2,0.1-0.4,0.2-0.5,0.3c-0.1,0.1-0.2,0.2-0.3,0.2
	c-0.3,0.2-0.5,0.3-0.8,0.6C10.1,6,10,6.1,9.9,6.1C9.8,6.3,9.6,6.4,9.5,6.5C9.3,6.7,9.1,6.9,8.9,7.1c0,0-0.1,0-0.1,0.1
	C8.7,7.2,8.6,7.3,8.4,7.4c0,0-0.1,0.1-0.1,0.1C8.3,7.6,8.2,7.7,8.1,7.8C8,7.9,7.8,8,7.7,8.1C7.3,8.5,6.9,9,6.5,9.4
	c0,0.1-0.1,0.1-0.1,0.1C6.1,9.8,5.9,10,5.8,10.3c-0.1,0.1-0.2,0.2-0.3,0.3c-0.1,0.1-0.2,0.3-0.3,0.5c-0.1,0.1-0.1,0.1,0,0
	c0.1-0.2,0,0,0,0c0,0,0,0.1-0.1,0.1c-0.1,0.1-0.2,0.3-0.3,0.4c-0.1,0.1-0.2,0.3-0.3,0.5c-0.1,0.2-0.2,0.4-0.3,0.6
	c0,0.1-0.1,0.1-0.1,0.1c-0.1,0.2-0.2,0.4-0.4,0.6c0,0.1,0,0.1-0.1,0.2c-0.2,0.2-0.2,0.4-0.3,0.6C3.1,14.6,3,14.8,2.9,15
	c0,0.1-0.1,0.1-0.1,0.2c-0.1,0.1-0.2,0.2-0.2,0.4S2.4,16,2.4,16.1c-0.1,0.2-0.1,0.4-0.3,0.6c0,0-0.1,0.1-0.1,0.2
	c0,0.2-0.1,0.4-0.1,0.5c0,0.1-0.1,0.2-0.1,0.4c-0.1,0.2-0.1,0.5-0.2,0.7c0,0.1-0.1,0.2-0.1,0.2c-0.1,0.1,0,0.2-0.1,0.3
	s-0.1,0.2-0.1,0.3c0,0.2-0.1,0.4-0.1,0.5c0,0.1,0,0.2-0.1,0.3c0,0.1,0,0.2-0.1,0.4c0,0.1,0,0.2,0,0.3C1,21,1,21.1,1,21.1
	c0,0.1,0,0.2,0,0.3c0,0,0,0,0,0.1c0,0.1-0.1,0.1-0.1,0.2c0,0.1,0,0.2,0,0.3c0,0,0.1,0.1,0,0.1c-0.1,0.1,0,0.2-0.1,0.3
	c0,0.1,0,0.2,0,0.3c0,0.1,0,0.2,0,0.3c0,0,0,0.1,0,0.1c-0.1,0.1,0,0.2-0.1,0.3c0,0.1,0,0.3,0,0.4c0,0.1-0.1,0.3,0,0.4
	c0,0.4,0,0.8,0,1.2c0,0.2,0.1,0.5,0,0.7c0,0.3,0,0.6,0.1,0.9c0.1,0,0,0.1,0.1,0.2c0,0.1,0.1,0.1,0,0.2c0,0.1,0.1,0.1,0.1,0.2
	c0,0.1,0,0.1,0.1,0.2c0,0.1,0.1,0.2,0.1,0.3c0,0.1,0,0.2,0,0.3c0.1,0.2,0.1,0.4,0.1,0.6c0,0.1,0,0.2,0.1,0.3c0,0,0,0.1,0,0.2
	c0,0,0,0.1,0,0.1c0,0,0,0.1,0,0.2c0,0.1,0,0.1,0,0.2c0.1,0.3,0.2,0.5,0.3,0.8c0.1,0.2,0.2,0.5,0.2,0.7c0,0.1,0,0.2,0.1,0.4
	c0,0,0,0.1,0,0.1c0.1,0.2,0.1,0.5,0.3,0.7c0.1,0.2,0.2,0.4,0.3,0.6c0.1,0.3,0.2,0.5,0.3,0.8c0,0,0,0.1,0,0.1C2.9,34.7,3,34.9,3,35.1
	s0.1,0.4,0.3,0.6c0,0.1,0.1,0.1,0.1,0.2c0.2,0.3,0.4,0.7,0.6,1C4,37,4,37,4.1,37.1c0,0,0,0.1,0.1,0.1c0,0,0,0,0,0
	c0.1,0.1,0.2,0.2,0.2,0.3c0.1,0.1,0.2,0.3,0.2,0.4c0,0,0.1,0.1,0.1,0.2c0.1,0.2,0.3,0.4,0.4,0.6c0,0,0,0,0,0
	c0.1,0.1,0.2,0.3,0.3,0.4c0,0,0,0,0.1,0c0.2,0.2,0.4,0.5,0.6,0.7c0.3,0.4,0.5,0.7,0.8,1c0.1,0.1,0.2,0.2,0.4,0.4
	c0,0,0.1,0.1,0.1,0.1c0.1,0.3,0.4,0.5,0.6,0.7c0.3,0.3,0.6,0.6,0.9,0.9c0,0,0.1,0.1,0.1,0.1c0.3,0.2,0.5,0.4,0.8,0.6
	c0.1,0.1,0.1,0.1,0.2,0.2c0.2,0.1,0.4,0.2,0.5,0.3c0.2,0.2,0.5,0.3,0.8,0.5c0.3,0.2,0.5,0.4,0.9,0.6c0.1,0,0.2,0.1,0.3,0.2
	c0.3,0.2,0.6,0.4,0.9,0.5c0.1,0,0.2,0.1,0.3,0.1c0.2,0.1,0.5,0.2,0.7,0.4c0.1,0.1,0.2,0,0.3,0.1c0.2,0.1,0.3,0.2,0.4,0.3
	c0.1,0.1,0.2,0.1,0.4,0.2c0,0,0.1,0,0.1,0c0,0,0.1,0,0.1,0c0.1,0,0.2,0,0.3,0.1c0,0,0.1,0,0.1,0c0.1,0,0.2,0.1,0.3,0.1
	c0.2,0.2,0.5,0.2,0.8,0.3c0,0,0.1,0,0.1,0c0.2,0.1,0.3,0.1,0.5,0.2c0.1,0,0.2,0.1,0.4,0.1c0.1,0,0.2,0,0.2,0.1c0,0,0.1,0,0.1,0
	c0.1,0,0.1,0,0.2,0.1c0.1,0.1,0.2,0.1,0.3,0.1c0,0,0.1,0,0.1,0c0,0,0.1,0,0.1,0c0.1,0,0.2,0,0.3,0c0.1,0,0.1,0,0.2,0c0,0,0,0,0,0
	c0,0,0.1,0,0.1,0c0.2,0,0.5,0.1,0.7,0.1c0.1,0,0.1,0,0.2,0c0.1,0,0.1,0,0.2,0c0.1,0,0.2,0,0.3,0.1c0,0,0,0,0.1,0l0,0
	c0.2,0,0.4,0,0.5,0c0.2,0.1,0.4,0.1,0.6,0.2c0.1,0,0.1,0.1,0.2,0.1c0.2,0,0.5,0.1,0.8,0c0.1,0,0.2,0,0.3,0c0.2-0.1,0.4,0,0.6,0
	c0.1,0.1,0.1-0.1,0.2,0c0.1,0.1,0.1,0,0.2,0c0.5,0,1.1,0,1.6,0c0.1,0,0.3,0,0.5,0c0,0,0,0,0,0c0,0,0.1,0,0.1,0c0,0,0,0,0,0
	c0.1-0.1,0.2,0,0.3,0c0.1,0,0.2,0,0.3,0c0.1,0,0.2,0,0.4,0c0.1,0,0.1,0,0.2,0c0.1,0,0.1,0,0.2,0c0.2,0,0.3,0,0.5,0
	c0.1,0,0.3-0.1,0.5-0.1c0.3-0.1,0.6-0.2,1-0.2c0.1-0.1,0.2,0,0.3-0.1c0.1,0,0.1-0.1,0.2-0.1c0.1,0,0.2,0,0.3,0
	c0.2,0,0.4-0.1,0.6-0.2c0.2-0.1,0.4-0.2,0.6-0.2c0.3-0.1,0.7-0.2,1-0.4c0.3-0.2,0.6-0.2,1-0.3c0.2,0,0.3-0.1,0.4-0.2
	c0.2-0.2,0.5-0.3,0.7-0.5c0.1-0.1,0.2-0.2,0.3-0.2c0.1,0,0.3-0.1,0.4-0.2c0,0,0.1,0,0.1,0c0.1,0,0.1,0,0.2-0.1
	c0.2-0.1,0.4-0.2,0.6-0.4c0.2-0.2,0.4-0.3,0.7-0.5c0.2-0.2,0.5-0.3,0.7-0.5c0,0,0.1,0,0.2-0.1c0.2-0.1,0.4-0.3,0.5-0.5
	c0-0.1,0.1-0.2,0.2-0.2c0.1,0,0.1,0,0.2-0.1c0.1-0.1,0.2-0.1,0.3-0.2c0.1-0.1,0.3-0.2,0.4-0.3c0.1-0.1,0.2-0.2,0.3-0.2
	c0.1,0,0.1-0.1,0.2-0.2S40.5,42.9,40.6,42.8C40.6,42.8,40.6,42.8,40.6,42.8C40.6,42.7,40.5,42.7,40.6,42.8L40.6,42.8z M24.5,44
	c-0.1,0-0.2,0-0.4,0c0,0-0.1,0-0.1,0c-0.1,0-0.1,0.1-0.2,0.1c0,0-0.2,0-0.2,0s0-0.1,0-0.2c0.1-0.1,0.1-0.1,0.2-0.1
	c0.1,0,0.1,0,0.2,0.1C24.3,44,24.4,43.9,24.5,44L24.5,44z M22.9,40.9c-0.1,0-0.1,0-0.2,0c-0.4-0.2-0.4-0.2-0.4-0.2c0,0,0,0,0,0
	c0,0,0,0,0,0c0,0,0.4,0.1,0.6,0.1c0.1,0,0.1,0,0.2,0.1c0,0,0,0,0,0C23.1,40.9,23,40.9,22.9,40.9L22.9,40.9z M23,44
	C23,44,22.9,44,22.8,44c0,0-0.1,0-0.1-0.1c0,0,0.1-0.1,0.1-0.1C22.9,43.9,22.9,43.9,23,44C23,43.9,23,43.9,23,44L23,44z M21.1,40.7
	c0.1-0.1,0.2-0.1,0.3,0c0.1,0.1,0.1,0.1,0.2,0.1c0,0,0.1,0,0.1,0c0.1,0,0.2,0,0.3,0c-0.1,0-0.2,0-0.3,0c-0.1,0-0.3,0-0.4,0
	c-0.1,0-0.2,0-0.2,0C21.1,40.8,21,40.7,21.1,40.7L21.1,40.7z M21.8,42.7c0.5,0,0.8-0.2,1-0.5c0,0.5-0.5,0.8-1.1,0.8
	c-0.6,0-1.2-0.5-1.2-1c0-0.2,0-0.3,0.1-0.4c0,0,0,0.1,0,0.1C20.6,42.2,21.2,42.7,21.8,42.7L21.8,42.7z M21.1,45.1
	C21.1,45.1,21,45.1,21.1,45.1c-0.1,0-0.1,0-0.1,0C21,45,21,45,21.1,45.1C21,45,21,45,21.1,45.1z M19.5,43.1c-0.1,0-0.1,0-0.2,0
	c-0.1,0-0.2,0-0.2,0c0.1,0,0.1,0,0.2,0C19.4,43.1,19.5,43,19.5,43.1z M17.5,42.8c0.5,0.2,0.9,0.1,1.2-0.2c-0.2,0.5-0.8,0.7-1.4,0.5
	c-0.6-0.2-1.1-0.9-0.9-1.4c0-0.2,0.1-0.3,0.2-0.4c0,0,0,0.1,0,0.1C16.4,41.9,16.8,42.5,17.5,42.8z M16.1,40.8
	C16.1,40.8,16,40.8,16.1,40.8c-0.2,0-0.2,0-0.2,0c0,0,0,0,0,0c0,0,0,0,0,0c0,0,0.1,0,0.1,0C16,40.8,16.1,40.8,16.1,40.8z M15.6,43.3
	c-0.1,0-0.1,0-0.2,0.1c0,0-0.1,0-0.1,0c0,0-0.1,0-0.1-0.1c0,0,0-0.1,0.1-0.1C15.4,43.2,15.6,43.2,15.6,43.3L15.6,43.3L15.6,43.3z
	 M14.5,40.2c-0.1,0-0.1,0.1-0.1,0.1s-0.1,0-0.1-0.1c0,0,0.1-0.1,0.1-0.1C14.4,40.1,14.4,40.1,14.5,40.2z M17.5,38.8
	C17.5,38.8,17.5,38.8,17.5,38.8c0-0.1,0.1,0,0.1,0C17.5,38.8,17.5,38.8,17.5,38.8C17.5,38.8,17.5,38.8,17.5,38.8z M12.8,39
	c0.1,0.1,0.2,0.2,0.3,0.3c0.2,0.1,0.4,0.2,0.6,0.2c0.1,0,0.3,0,0.4,0c0,0,0.1,0,0.1,0c0.1,0,0.1,0,0.2-0.1c0,0-0.1,0.1-0.1,0.1l0,0
	c-0.3,0.4-0.9,0.4-1.5,0l0,0c-0.3-0.2-0.5-0.4-0.6-0.7c-0.1-0.2-0.1-0.3-0.1-0.5c0-0.2,0-0.3,0.1-0.5c0-0.1,0.1-0.1,0.1-0.2
	c0,0,0,0,0,0c0.1-0.1,0.1-0.1,0.2-0.1c0,0,0,0.1-0.1,0.1c0,0,0,0,0,0c0,0,0,0.1,0,0.1c-0.1,0.2-0.1,0.4,0,0.6
	C12.5,38.6,12.6,38.8,12.8,39L12.8,39z M4.9,26.4c-0.2-0.8,0.2-1.5,0.8-1.8c0.2-0.1,0.3-0.1,0.5,0c0,0-0.1,0-0.1,0
	c-0.3,0.1-0.6,0.4-0.7,0.7c0,0,0,0,0.1,0c0,0-0.1,0-0.1,0c-0.1,0.3-0.1,0.6-0.1,1c0.1,0.5,0.5,0.9,0.9,1C5.7,27.5,5.1,27.1,4.9,26.4
	z M6,28.7C6,28.7,6,28.8,6,28.7c-0.1,0-0.1,0.1-0.1,0c0,0-0.1-0.1-0.1-0.1v0c0,0,0,0,0,0C5.8,28.6,5.9,28.7,6,28.7
	C5.9,28.7,5.9,28.7,6,28.7z M5.2,28.9c-0.1,0-0.1,0-0.2-0.1c0,0-0.1,0-0.1-0.1c0,0,0.1,0,0.1-0.1c0.1,0,0.2,0,0.3,0c0,0,0,0,0,0.1
	C5.4,28.8,5.3,28.9,5.2,28.9L5.2,28.9z M3.7,30.2C3.7,30.2,3.7,30.2,3.7,30.2C3.7,30.2,3.7,30.1,3.7,30.2c0.1,0,0.2,0,0.3,0
	c0.1,0,0.2,0,0.2,0c0,0,0,0,0,0c0,0,0,0,0,0C4.1,30.2,3.9,30.2,3.7,30.2z M5.8,17.7C5.8,17.7,5.9,17.6,5.8,17.7
	C5.9,17.5,6,17.4,6,17.3c0.2-0.2,0.4-0.4,0.7-0.4c0.1,0,0.2,0,0.3,0c0,0,0.1,0,0.1,0c0,0-0.1,0-0.1,0c-0.4,0-0.8,0.4-0.9,1
	c0,0.1,0,0.2,0,0.2c0,0.4,0.1,0.7,0.4,0.9c0,0,0.1,0.1,0.1,0.1c-0.1,0-0.2,0-0.2,0c-0.4-0.1-0.6-0.5-0.6-1c0,0,0,0,0,0
	C5.8,18,5.8,17.8,5.8,17.7z M5.8,15.5C5.8,15.5,5.8,15.5,5.8,15.5c0.1,0,0.1,0,0.1,0c0.1,0,0.1,0,0.1,0c-0.1,0-0.1,0-0.1,0
	C5.9,15.6,5.9,15.6,5.8,15.5C5.8,15.6,5.8,15.5,5.8,15.5L5.8,15.5z M6.4,15.4c0,0,0.1-0.1,0.2-0.1c0.1,0,0.1,0,0.2,0.1c0,0,0,0,0,0
	c0,0,0,0,0,0c-0.1,0-0.1,0.1-0.2,0.1C6.5,15.5,6.4,15.4,6.4,15.4L6.4,15.4z M11.4,38.5L11.4,38.5C11.4,38.6,11.4,38.6,11.4,38.5
	c-0.1,0.2-0.2,0.1-0.4,0.1c0,0,0,0,0,0c0,0,0.1-0.1,0.1-0.1c0,0,0,0,0,0c0,0,0-0.1,0.1,0S11.4,38.4,11.4,38.5L11.4,38.5z M9.7,20.1
	c0.2,0,0.4,0,0.5,0.1c0,0-0.1,0-0.1,0c-0.4,0-0.7,0.3-0.9,0.7c0,0,0,0,0.1,0c0,0,0.1,0,0.1,0c0.1-0.1,0.1,0,0.2,0c0,0,0,0,0,0
	c0,0,0,0,0,0c-0.1,0-0.1,0.1-0.2,0c0,0-0.1,0-0.1,0s-0.1,0-0.1,0C9.1,21.1,9,21.3,9,21.6c0,0,0,0,0,0s0,0,0,0c0,0,0,0-0.1,0
	c0,0.1,0,0.1,0,0.2c0,0.6,0.3,1,0.7,1.2c-0.6,0-1.1-0.6-1.1-1.3C8.5,20.9,9,20.2,9.7,20.1L9.7,20.1z M11,19.4c-0.1,0-0.1,0-0.2-0.1
	c0,0,0.1-0.1,0.2-0.1c0.1,0,0.2,0.1,0.2,0.1C11.2,19.3,11.1,19.4,11,19.4L11,19.4z M8.7,27.2c0.1,0,0.2,0,0.3,0
	C8.9,27.3,8.8,27.3,8.7,27.2c-0.1,0-0.2,0.1-0.2,0C8.6,27.3,8.6,27.2,8.7,27.2L8.7,27.2z M8.5,24.7C8.5,24.6,8.6,24.6,8.5,24.7
	c0.1,0,0.1,0,0.1,0C8.7,24.7,8.6,24.7,8.5,24.7C8.6,24.7,8.5,24.7,8.5,24.7L8.5,24.7z M9,30c0.2-0.1,0.4-0.2,0.6-0.2
	c0,0-0.1,0-0.1,0.1c-0.6,0.4-0.7,1.4-0.3,2.1c0.3,0.5,0.8,0.8,1.3,0.8c-0.6,0.3-1.3,0-1.7-0.7C8.3,31.3,8.4,30.4,9,30z M9.1,31
	c0,0-0.1,0-0.1,0c0,0,0-0.1,0-0.1C9,31,9,31,9.1,31C9,31,9,31,9.1,31z M10.2,24.4c0.1,0,0.1,0,0.2,0c0.1,0,0.1,0.1,0,0.1
	c-0.1,0-0.1,0.1-0.2,0.1c0,0-0.1,0-0.1,0c-0.1,0-0.2,0-0.4-0.1c0,0,0,0,0,0c0,0,0,0,0.1,0c0.1,0,0.1,0,0.1-0.1
	C10,24.4,10.1,24.3,10.2,24.4L10.2,24.4z M10.1,20.8c0,0,0.1-0.1,0.1-0.1c0,0,0.1,0.1,0.1,0.1c0,0,0,0,0,0
	C10.2,20.9,10.2,20.9,10.1,20.8C10.1,20.9,10.1,20.9,10.1,20.8C10.1,20.9,10.1,20.9,10.1,20.8L10.1,20.8z M10.8,28.3
	c-0.1,0.1-0.2,0.1-0.2,0.1h-0.1c-0.1,0-0.1,0-0.2-0.1c0,0,0.1-0.1,0.2-0.1c0,0,0.1,0,0.1,0C10.7,28.2,10.9,28.3,10.8,28.3L10.8,28.3
	z M9.1,36C9.1,36,9,36,9.1,36c-0.1-0.1,0-0.2,0-0.2c0.1,0,0.1,0.1,0.2,0.1C9.2,36,9.1,36.1,9.1,36z M9.5,34.8c-0.1,0-0.2,0-0.2-0.1
	c0,0,0.1-0.1,0.2-0.1c0.2,0,0.4,0,0.7,0c0.1,0,0.1,0,0.2,0c0,0,0.1,0,0.1,0c0,0,0,0.1-0.1,0.1c-0.1,0.1-0.1,0.1-0.2,0.1
	c-0.1,0-0.2,0-0.2,0C9.8,34.8,9.7,34.8,9.5,34.8L9.5,34.8z M10.4,34.9c0.1,0,0.2,0,0.2,0c0,0,0,0,0,0s0,0,0,0
	C10.6,35,10.6,35,10.4,34.9C10.5,35,10.5,35,10.4,34.9L10.4,34.9L10.4,34.9z M10.7,34.7C10.7,34.7,10.7,34.6,10.7,34.7
	C10.7,34.6,10.8,34.6,10.7,34.7l0.2,0c0.1,0,0.1,0,0.1,0.1c0,0,0,0.1-0.1,0.1S10.8,34.8,10.7,34.7C10.7,34.7,10.7,34.7,10.7,34.7
	L10.7,34.7z M10.6,18.3C10.6,18.3,10.7,18.3,10.6,18.3C10.7,18.4,10.6,18.4,10.6,18.3c-0.1,0.1-0.1,0.1-0.2,0.1c-0.1,0-0.2,0-0.3,0
	c0,0,0,0-0.1,0c-0.1,0-0.1-0.1-0.1-0.1c0-0.1,0.1-0.1,0.1-0.1h0C10.3,18.4,10.5,18.3,10.6,18.3L10.6,18.3z M8.4,25.7
	C8.4,25.7,8.4,25.7,8.4,25.7C8.4,25.7,8.4,25.7,8.4,25.7c0,0.2-0.3,0.2-0.4,0.2c0,0-0.1-0.1,0-0.1c0.1,0,0.2-0.1,0.2,0
	C8.3,25.7,8.3,25.7,8.4,25.7L8.4,25.7z M7.3,21.7c0,0,0.1-0.1,0.1-0.1c0.1,0,0.1,0,0.2,0.1c0.1,0,0.2-0.1,0.2,0
	c-0.1,0-0.1,0.1-0.2,0.1C7.6,21.8,7.5,21.9,7.3,21.7C7.4,21.8,7.3,21.7,7.3,21.7L7.3,21.7z M7.8,22.1C7.8,22.1,7.9,22.1,7.8,22.1
	c0.1,0.1,0,0.1,0,0.1C7.8,22.2,7.7,22.2,7.8,22.1C7.7,22.1,7.8,22.1,7.8,22.1z M7.7,31.4c0,0,0.1-0.1,0.1-0.1s0.1,0,0.1,0.1
	c0,0,0,0,0,0c0,0-0.1,0.1-0.1,0.1S7.8,31.5,7.7,31.4L7.7,31.4L7.7,31.4z M8.7,37.1c0,0,0.1,0,0.1,0c0.1,0,0.2,0.1,0.4,0
	c0.1,0.1,0.2,0,0.3,0c0.1,0,0.2,0,0.3,0c0.1,0,0.1,0,0.2,0c0,0,0,0,0.1,0s0,0,0,0.1c0,0,0,0-0.1,0c-0.1,0-0.1-0.1-0.2,0
	c-0.1,0-0.1,0.1-0.2,0.1c-0.1,0-0.3,0-0.4,0c-0.1,0-0.1,0-0.2,0c-0.1,0-0.3,0-0.4-0.1C8.7,37.2,8.6,37.2,8.7,37.1
	C8.6,37.2,8.7,37.1,8.7,37.1z M11.6,27.1c0,0,0.1,0,0.1,0c0,0,0.1,0.1,0.1,0.1s0,0.1-0.1,0.1c0,0-0.1,0-0.1,0c-0.1,0-0.2,0-0.3-0.1
	C11.2,27.2,11.4,27.1,11.6,27.1L11.6,27.1z M11.9,21.6c0.1,0,0.1-0.1,0.2,0c0,0,0.1,0,0.1,0c0,0,0,0,0,0c0,0,0,0,0,0
	c-0.1,0-0.1,0.1-0.2,0.1c-0.1,0-0.1,0-0.1,0C11.8,21.7,11.8,21.6,11.9,21.6L11.9,21.6z M12.5,23.3c0.2,0,0.4,0,0.6,0
	c0,0-0.1,0-0.1,0c-0.7,0.2-1.1,1-1,1.9c0.1,0.6,0.5,1,0.9,1.2c-0.6,0.1-1.3-0.4-1.4-1.2C11.4,24.3,11.8,23.5,12.5,23.3z M13.4,17.8
	c0,0-0.1,0-0.1,0c-0.1,0-0.1,0-0.1,0c0,0,0-0.1,0.1-0.1c0,0,0.1-0.1,0.1-0.1c0.1,0,0.1,0.1,0.2,0l0,0C13.5,17.7,13.4,17.7,13.4,17.8
	L13.4,17.8z M13.6,18.6C13.6,18.6,13.6,18.6,13.6,18.6C13.6,18.6,13.6,18.6,13.6,18.6L13.6,18.6c-0.1,0.1-0.2,0.1-0.2,0.1
	c0,0-0.1,0-0.1-0.1c0,0,0-0.1,0-0.1c0,0,0.1,0,0.1,0C13.5,18.5,13.6,18.5,13.6,18.6L13.6,18.6z M13.2,19.4c0.1,0,0.2,0,0.2,0
	c0.1,0,0.2,0,0.2,0.1c0,0,0.1,0.1,0.1,0.1c-0.1,0-0.1,0.1-0.1,0.1c-0.1,0-0.2,0-0.3,0c-0.1,0-0.2,0-0.4,0c0,0-0.1,0-0.2,0
	c-0.1,0-0.3,0-0.3-0.1c0,0,0,0,0,0c0,0,0.2-0.1,0.2-0.1c0.1,0,0.1,0,0.1,0.1s0.1,0.1,0.1,0C13,19.4,13.1,19.4,13.2,19.4L13.2,19.4z
	 M13.4,21.6c-0.1,0-0.1,0-0.2,0c-0.1,0-0.2,0-0.2,0c0.1,0,0.1,0,0.2,0C13.3,21.6,13.4,21.6,13.4,21.6L13.4,21.6z M13.1,29.2
	c0,0-0.1,0-0.1,0.1c0,0-0.1,0-0.1,0c0,0,0-0.1,0-0.1c0,0,0.1,0,0.1,0C13,29.1,13,29.2,13.1,29.2C13.1,29.2,13.1,29.2,13.1,29.2
	L13.1,29.2z M12.4,28.5C12.4,28.5,12.4,28.6,12.4,28.5c-0.1,0.1-0.1,0.1-0.1,0C12.3,28.5,12.3,28.4,12.4,28.5
	C12.4,28.4,12.5,28.4,12.4,28.5z M11.9,29.2c-0.1,0-0.1,0-0.2,0C11.8,29.1,11.9,29.1,11.9,29.2c0-0.1,0.1-0.1,0.1,0
	C12,29.1,12,29.2,11.9,29.2L11.9,29.2z M11.8,28.5C11.8,28.5,11.9,28.4,11.8,28.5c0.1-0.1,0.2-0.1,0.2-0.1c0,0,0,0,0,0
	C12.1,28.5,12,28.6,11.8,28.5C11.9,28.6,11.9,28.5,11.8,28.5L11.8,28.5z M12.1,37c0,0,0.1,0.1,0.1,0.1s-0.1,0.1-0.1,0.1
	S12,37.1,12,37.1C12,37.1,12,37,12.1,37L12.1,37z M12.4,28.9c0.1,0,0.1-0.1,0.2,0c0,0,0.1,0,0.1,0.1c0,0.1,0,0.1-0.1,0.1
	c0,0-0.1,0-0.1,0c0,0-0.1,0-0.1,0c-0.1,0-0.1-0.1-0.1-0.1C12.4,29,12.4,28.9,12.4,28.9L12.4,28.9z M14.2,17.7
	c-0.1,0-0.1,0.1-0.2,0.1c-0.1,0-0.2,0-0.2-0.1c0,0,0.1-0.1,0.2-0.1c0.1,0,0.1,0,0.2,0C14.2,17.7,14.2,17.7,14.2,17.7L14.2,17.7z
	 M12.2,16.9c-0.1,0-0.1,0-0.2,0.1c-0.1,0-0.1,0-0.1,0c-0.1,0-0.1,0-0.1-0.1c0-0.1,0.1-0.1,0.1-0.1C12,16.7,12.1,16.8,12.2,16.9
	C12.2,16.8,12.2,16.9,12.2,16.9L12.2,16.9z M11.1,17.3c0,0-0.1,0-0.2,0c-0.1,0-0.3,0-0.5,0c0,0,0,0,0,0c0,0,0,0,0,0c0,0,0.1,0,0.1,0
	c0.1,0,0.1,0,0.1-0.1c0-0.1,0.1-0.2,0.2-0.2c0.1,0,0.1,0,0.1,0.1C10.9,17.1,11,17.2,11.1,17.3C11,17.2,11,17.2,11.1,17.3
	C11.1,17.3,11.1,17.3,11.1,17.3C11.1,17.3,11.1,17.3,11.1,17.3L11.1,17.3z M9.6,17c-0.1,0-0.3,0-0.4,0C9.3,16.9,9.5,16.9,9.6,17
	c0.1-0.1,0.2-0.1,0.4,0C9.8,17,9.7,17,9.6,17z M8.9,17.2C8.9,17.2,8.8,17.2,8.9,17.2C8.8,17.2,8.9,17.2,8.9,17.2
	C8.9,17.2,8.9,17.2,8.9,17.2C8.9,17.2,8.9,17.2,8.9,17.2z M6.8,19.2c0.1,0,0.1,0,0.2,0C6.9,19.3,6.9,19.3,6.8,19.2
	c-0.1,0-0.1,0.1-0.2,0C6.7,19.2,6.8,19.2,6.8,19.2z M7.1,33.5c0.1,0,0.2,0,0.3,0c0.1,0,0.1,0,0.1,0c0.1-0.1,0.2,0,0.2,0
	c0,0,0.1,0.1,0,0.1c-0.1,0-0.1,0-0.1,0c0,0-0.1,0-0.1,0C7.5,33.5,7.3,33.5,7.1,33.5C7.1,33.5,7.1,33.5,7.1,33.5
	C7.1,33.5,7.1,33.5,7.1,33.5L7.1,33.5z M5.2,19.3C5.2,19.3,5.2,19.3,5.2,19.3c-0.1,0-0.1,0-0.1,0c0,0-0.1,0-0.1-0.1
	c0-0.1,0.1,0,0.1,0C5.2,19.2,5.2,19.2,5.2,19.3C5.3,19.3,5.3,19.3,5.2,19.3C5.3,19.3,5.2,19.3,5.2,19.3L5.2,19.3z M5.3,20.7
	c0.1,0,0.1,0,0.2,0c0.1,0,0.2,0,0.3,0c0,0,0,0.1,0,0.1c0,0-0.1,0-0.1,0c-0.2,0-0.3,0-0.5,0c-0.1,0-0.1-0.1-0.1-0.1
	C5.2,20.8,5.2,20.8,5.3,20.7L5.3,20.7z M5.5,21.1c0.1,0,0.1,0,0.2,0c0.1,0,0.2,0,0.4,0c0,0,0,0,0,0c0,0,0,0,0,0c-0.1,0-0.1,0-0.2,0
	c-0.1,0-0.3,0-0.4,0.1c-0.1,0.1-0.2,0-0.3,0c0,0-0.2-0.1-0.1-0.2c0,0,0,0,0,0C5.1,21.1,5.3,21,5.5,21.1L5.5,21.1z M4.2,19
	c0,0,0.1,0,0.2,0c0,0,0.1,0,0.1,0c0.1,0.1,0.3,0.1,0.4,0.1c0,0,0,0.1,0,0.1c-0.1,0-0.1,0-0.2,0c-0.1,0-0.1,0-0.2,0
	c-0.1,0-0.2,0-0.3,0C4.2,19.2,4.2,19.2,4.2,19C4.2,19.1,4.1,19,4.2,19L4.2,19z M3.4,20C3.3,20,3.2,20.1,3,20.1
	c-0.2,0.1-0.3-0.1-0.4-0.1c0,0,0,0,0,0c0,0,0,0,0,0c0.1,0,0.2-0.1,0.3,0c0.1,0,0.2,0,0.3,0C3.3,19.9,3.4,19.9,3.4,20
	C3.4,19.9,3.4,19.9,3.4,20C3.4,19.9,3.4,19.9,3.4,20L3.4,20z M2.3,20.5C2.3,20.5,2.3,20.4,2.3,20.5c0.2-0.1,0.4-0.3,0.6-0.2
	c0.2,0,0.3,0,0.4,0c0,0,0,0,0,0c0,0.1-0.1,0.1-0.2,0.1c-0.1,0-0.2,0-0.3,0c-0.1,0-0.2,0-0.3,0C2.4,20.6,2.3,20.5,2.3,20.5L2.3,20.5z
	 M2.7,21.4c0.1,0,0.1-0.1,0.2-0.1c0.1,0,0.2,0,0.3,0c0.1,0,0.2,0,0.4,0c0.1,0,0.2,0.1,0.2,0.2c0,0.1,0,0.1,0.1,0.1
	c0,0,0.1,0.1,0.1,0.1c0,0-0.1,0.1-0.1,0.1c-0.1,0-0.3,0-0.4-0.1c-0.1,0-0.1-0.1-0.2,0c0,0-0.1,0-0.2,0c-0.1-0.1-0.2-0.1-0.2-0.1
	c-0.1,0-0.1,0-0.2,0C2.7,21.6,2.7,21.5,2.7,21.4C2.7,21.5,2.7,21.4,2.7,21.4L2.7,21.4z M4.1,23.8c-0.1,0-0.1,0-0.2,0
	c0,0-0.1,0-0.1,0c0-0.1,0,0,0.1,0C4,23.7,4,23.7,4.1,23.8L4.1,23.8z M3.1,23.5c0,0,0.1,0,0.1,0.1c0,0.1-0.1,0-0.1,0.1
	c0,0-0.1-0.1-0.1-0.1C3.1,23.6,3.1,23.5,3.1,23.5z M3.3,24.5c0.1-0.1,0.4-0.2,0.6-0.1c0,0,0,0,0,0c0,0,0,0,0,0
	c-0.1,0.1-0.2,0.1-0.3,0.1C3.4,24.6,3.3,24.6,3.3,24.5C3.3,24.5,3.3,24.5,3.3,24.5L3.3,24.5z M4.5,23.6C4.5,23.6,4.6,23.6,4.5,23.6
	c0.1,0,0.2,0,0.2,0c0,0-0.1,0.1-0.1,0.1C4.6,23.7,4.5,23.6,4.5,23.6z M6.1,21.8c-0.1,0-0.2,0-0.2-0.1c0,0,0-0.1,0-0.1
	c0,0,0.1,0,0.1,0c0.1,0,0.2,0,0.2,0c0.1-0.1,0.2-0.1,0.3,0c0.1,0,0.1,0.1,0.2,0c0.1,0,0.1,0,0.2,0c0,0,0.1,0,0.1,0
	c0,0-0.1,0.1-0.1,0.1c-0.1,0-0.1,0.1-0.2,0.1c-0.1,0-0.2,0-0.3,0S6.2,21.8,6.1,21.8L6.1,21.8z M11.2,40.9c0,0-0.1,0-0.1,0
	c0,0,0,0,0,0C11.1,40.9,11.2,40.9,11.2,40.9C11.2,40.9,11.2,40.9,11.2,40.9z M12.5,40.7c0.1,0,0.1,0,0.2-0.1c0,0,0.1,0,0.1,0.1
	c0.1,0,0.1,0,0.3,0c0.1,0,0.1,0,0.2,0c0,0,0,0,0,0c-0.1,0.1-0.2,0.2-0.3,0.1c0,0-0.1,0-0.1,0c-0.1,0-0.3,0-0.4-0.1
	C12.6,40.8,12.5,40.8,12.5,40.7c-0.1,0.1-0.1,0.1-0.2,0C12.4,40.7,12.4,40.7,12.5,40.7L12.5,40.7z M15.3,37.5c0,0,0.1,0,0.1,0
	s0.1,0,0.1,0c0,0,0,0,0,0c-0.1,0-0.1,0-0.1,0C15.4,37.6,15.3,37.6,15.3,37.5C15.3,37.6,15.3,37.6,15.3,37.5L15.3,37.5
	C15.3,37.6,15.3,37.5,15.3,37.5L15.3,37.5z M12,14.7c0,0,0-0.1,0.1-0.1c0.1,0,0.1,0,0.2-0.1c0.1,0,0.2,0,0.3,0c0,0,0.1,0,0.1,0.1
	c0,0,0,0.1-0.1,0.1c-0.1,0.1-0.2,0.1-0.3,0.1c-0.1,0-0.1,0-0.2,0C12,14.8,12,14.8,12,14.7z M12.9,14.7c0,0,0.1,0,0.1,0
	c0.1,0,0.1-0.1,0.2,0c0,0,0.1,0,0.1,0.1c0,0-0.1,0.1-0.1,0.1c0,0-0.1,0-0.1,0C13,14.8,13,14.8,12.9,14.7
	C12.9,14.7,12.9,14.7,12.9,14.7z M13.6,14.6L13.6,14.6c0.1,0,0.1,0,0.1,0c0,0,0,0.1,0,0.1C13.7,14.7,13.6,14.7,13.6,14.6z
	 M13.1,12.5c0,0,0.1-0.1,0.1-0.1c0,0,0.1,0,0.1,0c0,0,0,0,0.1,0c0,0,0.1,0,0.1,0.1c0,0.1,0,0.1-0.1,0.1c-0.1,0.1-0.1,0-0.2,0
	C13.2,12.6,13.2,12.5,13.1,12.5L13.1,12.5z M13.8,6.7c0.1,0,0.1,0,0.2-0.1c0.1,0,0.2,0,0.2,0.1c0,0,0,0,0,0c0,0,0,0,0,0
	c-0.1,0-0.2,0.1-0.3,0.1C13.9,6.8,13.9,6.8,13.8,6.7C13.8,6.8,13.8,6.7,13.8,6.7L13.8,6.7z M15.9,8.1c0,0,0.1,0,0.1,0c0,0,0,0,0,0
	l0,0c0,0,0,0,0,0c-0.1,0-0.2,0-0.3,0c0,0,0,0,0,0l0,0c0,0,0,0,0,0C15.8,8.1,15.8,8.1,15.9,8.1L15.9,8.1z M15.9,10.1
	c0.1,0,0.2,0,0.4-0.1c0,0,0.1,0,0.1,0.1c0,0.2,0,0.2-0.2,0.2c-0.1,0-0.2,0-0.3,0c-0.2,0-0.4,0-0.6-0.1c0,0,0,0,0,0c0,0,0,0,0,0
	c0.1,0,0.2-0.1,0.3-0.1S15.8,10.1,15.9,10.1L15.9,10.1z M17,9.9c0.1,0,0.2,0,0.2-0.1c0,0,0.1,0,0.1,0.1c0,0,0,0.1,0,0.1
	c-0.1,0-0.1,0.1-0.2,0.1c-0.1,0-0.2,0-0.3-0.1c0,0,0,0,0,0C16.9,9.9,16.9,9.9,17,9.9L17,9.9z M16.9,5C16.9,5,17,5,16.9,5
	C17,5,17,5,17.1,5C17,5,17,5.1,16.9,5C16.9,5.1,16.9,5,16.9,5L16.9,5z M17.2,12.4c0,0-0.1,0-0.1,0c0,0,0,0,0,0.1
	c-0.1,0.1-0.3,0.2-0.4,0.1c0,0,0-0.1,0-0.1s0.1,0,0.2-0.1c0.1,0,0.1,0,0.2,0c0,0,0.1,0,0.1,0C17.1,12.3,17.2,12.4,17.2,12.4
	L17.2,12.4z M16.8,11c0,0,0.2,0,0.1,0.1c0,0.1-0.1,0.1-0.2,0.1c0,0-0.1,0-0.1,0c-0.1-0.1-0.1,0-0.2,0c0,0-0.1,0-0.1,0
	c0-0.1,0.1,0,0.1,0c0.1,0,0.1,0,0.2-0.1C16.7,11,16.7,11,16.8,11C16.8,11,16.8,11,16.8,11L16.8,11z M16.4,12.4
	C16.4,12.4,16.3,12.5,16.4,12.4c-0.1,0-0.1,0-0.1,0C16.3,12.4,16.3,12.4,16.4,12.4C16.3,12.4,16.3,12.4,16.4,12.4z M16.2,5
	C16.2,5,16.3,4.9,16.2,5c0.1,0,0.2,0,0.2,0c-0.1,0-0.1,0.1-0.1,0.1C16.2,5.1,16.2,5,16.2,5L16.2,5z M15.2,6.8c-0.1,0-0.1,0-0.2,0.1
	c-0.1,0-0.1,0-0.2-0.1c-0.1,0-0.1-0.1,0-0.1c0.1-0.1,0.2-0.1,0.4,0C15.3,6.7,15.3,6.8,15.2,6.8L15.2,6.8z M14.9,12.5
	c0,0,0.1,0,0.1,0c0.1,0,0.2,0,0.3,0c0.1,0,0.2,0,0.3,0c0.1,0,0.1,0,0.2,0c0.1,0,0.2,0,0.2,0c0,0,0,0,0,0c0,0,0,0,0,0
	c0,0-0.1,0-0.1,0c-0.1,0-0.2,0-0.3,0.1c-0.1,0.1-0.2,0.1-0.4,0.1c-0.1,0-0.3,0-0.4-0.1c0,0,0-0.1,0-0.1
	C14.8,12.5,14.9,12.5,14.9,12.5L14.9,12.5z M18.7,4.7c0.1,0,0.2-0.1,0.2-0.1c0.1,0,0.2,0,0.3,0.1c0,0,0,0.1,0,0.1c0,0,0,0.1,0,0.1
	c-0.2,0.1-0.3,0.1-0.5,0C18.7,4.8,18.7,4.7,18.7,4.7L18.7,4.7z M19,4.3c0,0,0.1-0.1,0.1-0.1c0.1,0,0.1,0,0.1,0
	c0.1,0,0.2,0.1,0.1,0.1c0,0.1-0.1,0.1-0.2,0.1c0,0,0,0,0,0C19.1,4.4,19,4.4,19,4.3L19,4.3z M19.6,9.2c0.1,0,0.1,0,0.2,0
	C19.7,9.2,19.7,9.2,19.6,9.2c-0.1,0.1-0.1,0-0.2,0C19.5,9.1,19.5,9.2,19.6,9.2z M19.5,6.7c-0.1,0-0.2,0-0.2-0.1c0,0,0,0,0,0
	c0,0,0,0,0,0c0.1,0,0.2,0,0.2,0C19.6,6.5,19.6,6.6,19.5,6.7C19.6,6.6,19.6,6.6,19.5,6.7z M20.7,4.2C20.7,4.2,20.7,4.3,20.7,4.2
	c0,0.1,0,0.1-0.1,0.1c0,0-0.1,0-0.1,0.1c0,0.1,0,0.1,0.1,0.2c0,0.1,0,0.1,0,0.1c-0.1,0.1-0.3,0.2-0.4,0.1c-0.1,0-0.1,0-0.1,0
	c-0.1,0-0.2-0.1-0.2-0.1c0-0.2,0-0.3,0.2-0.3c0,0,0.1,0,0.1-0.1c0.1,0,0.1,0,0.2-0.1C20.3,4.2,20.5,4.1,20.7,4.2
	C20.6,4.2,20.7,4.2,20.7,4.2L20.7,4.2z M22.9,3.9c-0.1,0-0.1,0.1-0.2,0c0,0,0,0-0.1,0c0,0,0,0,0.1,0c0,0,0.1,0,0.1,0
	C22.8,3.8,22.9,3.9,22.9,3.9C22.9,3.9,22.9,3.9,22.9,3.9C22.9,3.9,22.9,3.9,22.9,3.9z M13.3,5.3L13.3,5.3c0.1-0.1,0.2-0.2,0.2-0.2h0
	l0-0.1l0,0c0,0,0,0,0,0l0,0c0.1-0.1,0.1-0.1,0.2-0.2l0,0c0,0,0.1-0.1,0.1-0.1l0,0l0.1-0.1l0,0c0,0,0.1-0.1,0.1-0.1l0,0
	c0,0,0.1-0.1,0.1-0.1l0,0c0,0,0.1-0.1,0.1-0.1l0.1,0l0.1-0.1l0,0c0,0,0.1-0.1,0.1-0.1l0.1,0c0,0,0,0,0.1,0l0,0c0,0,0.1,0,0.1-0.1
	l0.1,0c0,0,0.1-0.1,0.1-0.1l0.1,0c0,0,0.1-0.1,0.1-0.1l0.1,0h0l0,0c0,0,0.1,0,0.1,0l0.1,0c0,0,0,0,0.1,0l0.1,0c0,0,0.1,0,0.1-0.1
	l0.1,0c0,0,0,0,0.1,0l0.1,0h0l0,0c0,0,0.1,0,0.1,0l0,0c0,0,0,0,0.1,0l0,0c0,0,0,0,0.1,0l0,0c0,0,0,0,0,0l0,0c0,0,0.1,0,0.1-0.1
	l0.1,0h0l0,0l0.1,0l0.1,0l0,0h0c0,0,0.1,0,0.1-0.1l0,0l0.1,0l0.1,0l0.1,0h0l0,0c0,0,0.1,0,0.1-0.1h0l0.1,0l0.1,0l0.1,0h0
	c0,0,0.1,0,0.1-0.1h0l0,0h0l0,0h0l0.1,0l0.1,0l0.1,0h0v0c0,0,0.1,0,0.1,0h0.1l0,0c0,0,0.1,0,0.2,0l0.1,0h0c0,0,0.1,0,0.1,0h0l0,0
	l0.3-0.1l0.3-0.1h0.1l0,0c0,0,0.1,0,0.1,0h0l0,0H20c0,0,0,0,0.1,0h0l0,0h0c0,0,0.1,0,0.1,0l0.1,0h0c0,0,0.1,0,0.1,0h0.1
	c0,0,0,0,0.1,0h0c0,0,0.1,0,0.2,0h0l0.1,0h0.1c0,0,0.1,0,0.1,0h0.1h0h0c0,0,0,0,0.1,0h0c0,0,0.1,0,0.2,0h0.1h0.1h0c0,0,0.1,0,0.1,0
	h0c0,0,0.1,0,0.1,0h0h0.1h0h0.1h0h0.1h0h0h0c0,0,0.1,0,0.1,0h0.1l0,0h0h0C23,2,23,2,23.1,2h0l0,0h0c0,0,0.1,0,0.1,0h0
	c0.1,0,0.1,0,0.2,0h0h0h0c0,0,0,0,0,0h0l0.1,0h0l0.2,0h0h0c0,0,0.1,0,0.1,0h0c0,0,0.1,0,0.1,0l0.1,0l0,0c0,0,0.1,0,0.1,0l0,0l0.1,0
	h-0.1c0,0-0.1,0-0.1,0l0,0l-0.1,0c0,0-0.1,0-0.1,0h0c0,0-0.1,0-0.1,0h0h0h0l-0.1,0l-0.1,0h0l-0.1,0h0c0,0,0,0,0,0h0h0h0
	c-0.1,0-0.2,0-0.3,0h0c0,0-0.1,0-0.1,0h0l0,0h0c-0.1,0-0.2,0-0.3,0h0h-0.1h0l-0.1,0c0,0-0.1,0-0.1,0h0h0h0l-0.1,0h0l-0.2,0h0l-0.1,0
	h0c-0.1,0-0.2,0-0.2,0h0l-0.2,0h0l-0.1,0h0.1c-0.1,0-0.2,0-0.3,0h0l-0.2,0h0h0c-0.1,0-0.2,0-0.2,0h0.1l-0.1,0h0c-0.1,0-0.2,0-0.3,0
	h-0.1c-0.1,0-0.1,0-0.2,0c-0.1,0-0.2,0-0.3,0.1c0,0,0,0,0,0l-0.1,0h0c0,0-0.1,0-0.1,0h0c-0.1,0-0.2,0.1-0.3,0.1l-0.3,0.1l-0.2,0
	l-0.1,0l-0.1,0c-0.1,0-0.1,0-0.2,0.1c-0.1,0-0.2,0-0.3,0.1c0,0-0.1,0-0.1,0l-0.2,0.1c-0.1,0-0.2,0.1-0.4,0.1l-0.1,0l-0.1,0
	c-0.1,0-0.1,0-0.2,0.1c0,0-0.1,0-0.1,0l-0.1,0c-0.1,0-0.1,0.1-0.2,0.1l-0.1,0h0c0,0,0,0,0,0l-0.1,0c-0.1,0-0.1,0.1-0.2,0.1l0,0
	l-0.1,0c0,0-0.1,0-0.1,0l0,0c-0.1,0-0.1,0.1-0.2,0.1l0,0c-0.1,0-0.1,0.1-0.2,0.1l0,0l-0.1,0.1l0,0c-0.1,0-0.2,0.1-0.2,0.1l0,0
	l-0.1,0.1l0.1,0c-0.1,0-0.1,0.1-0.2,0.1l0,0c-0.1,0.1-0.2,0.1-0.3,0.1l0.1,0c-0.1,0-0.2,0.1-0.2,0.1l0.1,0c-0.1,0-0.1,0.1-0.2,0.1
	l0,0l-0.1,0.1l0.1,0c-0.1,0-0.2,0.1-0.2,0.1l0,0l-0.1,0.1l0.1,0c-0.1,0-0.1,0.1-0.2,0.1l0,0c-0.1,0.1-0.2,0.1-0.3,0.1l0,0
	c-0.1,0-0.1,0.1-0.2,0.1l0.1,0l-0.2,0.1l0,0c-0.1,0-0.1,0.1-0.2,0.1l0,0c-0.1,0.1-0.4,0.2-0.4,0.2h0c-0.1,0.1-0.2,0.1-0.3,0.2h0
	c-0.1,0.1-0.2,0.1-0.3,0.1C13.1,5.5,13.2,5.5,13.3,5.3L13.3,5.3z M12.8,12.5c0.1,0,0.1,0,0.2,0C12.9,12.5,12.8,12.5,12.8,12.5
	c-0.1,0-0.1,0.1-0.2,0C12.7,12.5,12.7,12.5,12.8,12.5z M11.9,10.4c0,0,0.1,0,0.1-0.1c0.1,0,0.1,0,0.1-0.1c0.1-0.1,0.1,0,0.2,0
	c0,0,0,0,0,0.1c0,0.1-0.1,0.2-0.2,0.2c0,0-0.1,0-0.1,0C12.1,10.5,12,10.5,11.9,10.4L11.9,10.4C11.8,10.4,11.9,10.4,11.9,10.4
	L11.9,10.4z M11.6,12.1c-0.6-0.1-1.1,0.4-1.3,1.1c-0.1,0.5,0,0.9,0.3,1.1c-0.5-0.1-0.8-0.7-0.7-1.3c0.1-0.7,0.7-1.1,1.3-1.1
	c0.2,0,0.3,0.1,0.4,0.2C11.7,12.1,11.7,12.1,11.6,12.1L11.6,12.1z M9.3,8.9c0-0.2,0.1-0.4,0.3-0.6c0.4-0.5,1.2-0.7,1.7-0.3
	c0.1,0.1,0.2,0.2,0.3,0.4c0,0-0.1,0-0.1-0.1C11,7.9,10.3,8,9.8,8.6C9.7,8.6,9.7,8.7,9.6,8.8c-0.2,0.3-0.2,0.7-0.1,1
	C9.3,9.5,9.2,9.2,9.3,8.9L9.3,8.9z M9,12.5C9,12.5,9,12.4,9,12.5c0.1,0,0.2,0,0.2,0c0,0,0,0.1,0,0.1c0,0-0.1,0-0.1,0.1
	C9,12.6,9,12.6,9,12.5C8.9,12.5,8.9,12.5,9,12.5C8.9,12.5,9,12.5,9,12.5L9,12.5z M8.9,14.4c0,0,0.1,0.1,0.1,0.1c0,0-0.1,0.1-0.1,0.1
	c0,0-0.1,0-0.1-0.1c0,0,0,0,0,0C8.8,14.5,8.8,14.4,8.9,14.4L8.9,14.4z M7.6,13.4C7.6,13.4,7.7,13.4,7.6,13.4
	C7.7,13.5,7.7,13.5,7.6,13.4C7.6,13.5,7.6,13.5,7.6,13.4c-0.1,0.1-0.1,0-0.2,0C7.5,13.4,7.5,13.4,7.6,13.4
	C7.6,13.4,7.6,13.4,7.6,13.4L7.6,13.4z M7.2,11.2c0.1,0,0.3,0,0.4,0C7.4,11.3,7.3,11.2,7.2,11.2c-0.1,0.1-0.3,0.1-0.4,0
	C6.9,11.2,7,11.2,7.2,11.2z M5.1,13.5c0.2-0.8,0.8-1.4,1.6-1.4c0.2,0,0.4,0.1,0.5,0.2c0,0-0.1,0-0.1,0c-0.7-0.1-1.4,0.6-1.6,1.4
	c-0.1,0.6,0.1,1.1,0.4,1.4C5.3,15,4.9,14.3,5.1,13.5L5.1,13.5z M2.5,28.8c0,0,0,0.1-0.1,0.1h0c0,0-0.1,0-0.1,0c0,0,0,0,0-0.1
	c0,0,0.2-0.1,0.2-0.1C2.4,28.8,2.5,28.8,2.5,28.8L2.5,28.8z M3,30.9C3,30.9,2.9,30.9,3,30.9C2.9,30.9,3,30.9,3,30.9
	C3,30.9,3,30.9,3,30.9C3,30.9,3,30.9,3,30.9z M3.2,30.1c-0.1,0-0.2,0-0.3,0c0,0,0,0,0,0c0,0,0,0,0,0c0,0,0.1,0,0.2,0
	C3.1,30.1,3.2,30.1,3.2,30.1C3.2,30.1,3.2,30.1,3.2,30.1C3.2,30.1,3.2,30.1,3.2,30.1z M3.1,26.1c0,0-0.1,0-0.1,0
	C3.1,26.1,3.1,26,3.1,26.1c0,0,0.1,0,0.1,0C3.2,26.1,3.2,26.1,3.1,26.1L3.1,26.1z M3.4,25.3c-0.1,0.1-0.2,0.1-0.2,0.2c0,0,0,0-0.1,0
	c-0.1-0.1-0.3,0-0.4,0c0,0,0,0,0,0c0,0,0,0,0,0c0,0,0.1,0,0.1,0c0.1,0,0.1,0,0.1-0.1c0.1-0.1,0.2-0.1,0.3-0.1
	C3.3,25.2,3.3,25.2,3.4,25.3C3.4,25.2,3.4,25.2,3.4,25.3L3.4,25.3z M4,33.8C4,33.8,4,33.9,4,33.8c-0.1,0-0.1,0-0.2,0c0,0,0,0,0-0.1
	c0,0,0,0,0,0C3.9,33.8,3.9,33.8,4,33.8C4,33.8,4,33.8,4,33.8L4,33.8z M4.5,34.8c0,0-0.1,0.1-0.1,0.1c0,0-0.1,0-0.1-0.1c0,0,0,0,0,0
	c0,0,0.1,0,0.1,0S4.4,34.7,4.5,34.8L4.5,34.8L4.5,34.8z M25.7,47.5L25.7,47.5l-0.2,0l0,0c0,0-0.1,0-0.1,0h-0.1c0,0-0.1,0-0.1,0H25
	l-0.1,0h-0.1c0,0-0.1,0-0.1,0h0c0,0-0.1,0-0.1,0c0,0,0,0-0.1,0h-0.1h0h-0.1c0,0,0,0-0.1,0h0c0,0,0,0,0,0l0,0h-0.1c0,0,0,0,0,0h0h0
	h-0.1c0,0-0.1,0-0.1,0h0c0,0-0.1,0-0.1,0c0,0,0,0-0.1,0h-0.1l0,0h0l-0.1,0c0,0,0,0-0.1,0s0,0,0,0c-0.1,0-0.1,0-0.2,0h-0.1
	c0,0,0,0-0.1,0h0c0,0-0.1,0-0.1,0h-0.1c0,0,0,0-0.1,0h0h-0.1h-0.1c0,0-0.1,0-0.1,0c0,0-0.1,0-0.1,0h0h-0.1l-0.9-0.1l-0.9-0.1h0
	l-0.1,0c-0.1,0-0.1,0-0.2,0h-0.1l-0.1,0h0l-0.1,0c0,0-0.1,0-0.1,0c0,0-0.1,0-0.1,0h-0.1l0,0l0,0l-0.1,0c0,0-0.1,0-0.1,0h-0.1l-0.1,0
	l0,0l-0.1,0c0,0,0,0-0.1,0h0l0,0l0,0l0,0h0l-0.1,0c0,0,0,0,0,0h0l0,0h0l-0.1,0c0,0-0.1,0-0.1,0l-0.1,0c0,0,0,0-0.1,0l0,0l-0.1,0
	c0,0-0.1,0-0.1,0h0l-0.1,0c0,0-0.1,0-0.1,0l-0.1,0c0,0,0,0-0.1,0h0l-0.1,0c0,0-0.1,0-0.1,0h0l-0.1,0c0,0,0,0-0.1,0l-0.1,0
	c0,0,0,0-0.1,0l-0.1,0c0,0,0,0,0,0l0,0h0c0,0,0,0-0.1,0l-0.1,0c0,0,0,0,0,0l-0.1,0h0c0,0,0,0-0.1,0l-0.1,0c0,0,0,0,0,0l-0.1,0
	c0,0,0,0-0.1,0l-0.1,0l0,0l-0.1,0c0,0-0.1,0-0.1,0l-0.1,0c0,0,0,0-0.1,0l-0.1,0h0c0,0,0,0,0,0l0,0l-0.1,0c0,0,0,0-0.1,0l-0.1,0
	c0,0,0,0,0,0l-0.1,0c0,0,0,0,0,0l-0.1,0l0,0c0,0,0,0-0.1,0l-0.1,0h0c0,0,0,0,0,0l-0.1,0h0c0,0,0,0,0,0l-0.1,0c0,0,0,0-0.1,0
	l-0.1-0.1c0,0,0,0-0.1,0l-0.1,0c0,0,0,0,0,0l-0.1,0h0c0,0,0,0,0,0h0c0,0,0,0,0,0l0,0l-0.1,0h0l-0.1,0c0,0,0,0,0,0L13.7,45
	c0,0,0,0-0.1,0l-0.1,0c0,0,0,0,0,0l-0.1,0l0,0c0,0,0,0,0,0l-0.1-0.1c0,0-0.1,0-0.1,0l-0.1-0.1c0,0-0.1,0-0.1,0l0,0h0c0,0,0,0,0,0h0
	l-0.1,0c0,0,0,0,0,0l-0.1-0.1h0c0,0-0.1,0-0.1,0l-0.1-0.1c0,0,0,0-0.1,0l-0.1-0.1c0,0,0,0,0,0l0,0l0,0l-0.1,0l0,0c0,0,0,0-0.1,0
	l-0.1,0l-0.1,0l0,0l0,0L12,44c0,0,0,0-0.1,0l0,0l-0.1,0l-0.1,0l-0.1,0c0,0,0,0,0,0l0,0h0c0,0,0,0-0.1,0l-0.1-0.1l-0.1,0l0,0
	c0,0,0,0,0,0c0,0,0,0,0,0l-0.1,0l0,0l0,0l0,0c0,0,0,0,0,0l-0.1-0.1l-0.1-0.1c0,0,0,0-0.1,0l0,0l0,0h0l-0.1-0.1c0,0,0,0,0,0l0,0l0,0
	c0,0,0,0,0,0l-0.1-0.1c0,0,0,0,0,0l-0.1,0c0,0,0,0-0.1,0s0,0-0.1,0l-0.1,0l0,0c0,0,0,0,0,0l-0.1-0.1c0,0,0,0,0,0l-0.1-0.1
	c0,0,0,0-0.1,0l-0.1-0.1c0,0,0,0,0,0l-0.1,0l0,0l-0.1-0.1c0,0,0,0-0.1,0L9.6,42L9.6,42l0,0h0c0,0,0,0,0,0l0,0l-0.1,0c0,0,0,0,0,0
	l-0.1-0.1c0,0,0,0,0,0l-0.1-0.1l0,0c0,0,0,0,0,0v0l-0.1,0c0,0,0,0,0,0v0l-0.1,0c0,0,0,0,0,0l0,0l0,0c0,0,0,0,0,0l0,0l-0.1-0.1
	c0,0,0,0,0,0l-0.1,0l0,0L8.7,41c0,0,0,0,0,0l0,0l-0.1,0c0,0,0,0,0,0l-0.1-0.1c0,0,0,0-0.1-0.1l-0.1-0.1c0,0,0,0,0,0l-0.1-0.1
	c0,0,0,0-0.1-0.1l-0.1-0.1l0,0c0,0,0,0,0,0l0,0L8,40.3c0,0,0,0,0,0l-0.1-0.1c0,0-0.1-0.1-0.1-0.1L7.8,40c0,0,0-0.1-0.1-0.1l-0.1-0.1
	l0,0c0,0,0-0.1-0.1-0.1l-0.1-0.1l0,0c0,0,0,0-0.1-0.1l0,0l0,0l-0.1-0.1v0c0,0,0,0-0.1-0.1c0,0,0,0,0,0c0,0,0,0-0.1-0.1l-0.1-0.1
	L7,38.9l0-0.1l0,0c0,0-0.1-0.1-0.1-0.1l-0.1-0.1l0,0l-0.1-0.1c0,0-0.1-0.1-0.1-0.1c0,0,0-0.1-0.1-0.1l-0.1-0.1l0,0l-0.1-0.1
	l-0.1-0.1l0,0l-0.1-0.2c-0.1-0.1-0.2-0.3-0.3-0.4l0-0.1l0,0v0c0-0.1-0.1-0.1-0.1-0.2l0,0l0-0.1l0,0c0,0,0,0,0,0l0,0l0-0.1v0l0,0
	c0,0,0,0,0,0l0,0v0l0,0l0,0c0,0,0,0,0,0l0,0l0,0c0,0,0-0.1-0.1-0.1l0-0.1c0-0.1,0-0.1-0.1-0.2l0,0l0,0c0,0,0-0.1,0-0.1l0,0l0,0
	l0-0.1c0,0,0-0.1-0.1-0.1l0-0.1l0,0v0c0,0,0,0,0-0.1l0,0c0,0,0-0.1-0.1-0.1l0,0c0,0,0-0.1-0.1-0.1l0-0.1c0,0,0-0.1,0-0.1l0,0
	c0-0.1,0-0.1-0.1-0.2l-0.1-0.1v0c0,0,0-0.1-0.1-0.2l0,0c0,0,0,0,0-0.1l0,0c0,0,0-0.1-0.1-0.2l0-0.1l0-0.1v0l-0.1-0.1l0,0l-0.1-0.3
	l0-0.1l0-0.1c0-0.1,0-0.1-0.1-0.2v0l0-0.1l0,0c0,0,0-0.1,0-0.2v0c0-0.1,0-0.1-0.1-0.2v0l0-0.1v0c0-0.1,0-0.1-0.1-0.2v0l0-0.1l0,0
	l0-0.1v0l0-0.1l0,0c0-0.1,0-0.2,0-0.2l0,0l0-0.1l0,0c0-0.1,0-0.1,0-0.1c0,0,0-0.1,0-0.1l0,0v0l0,0l0-0.2l0,0v0l0,0
	c0-0.1,0-0.2,0-0.2l0,0l0-0.1l0,0.1l0,0c0,0.1,0.1,0.2,0.1,0.2l0,0l0,0l0.1,0.2l0,0l0,0l0,0c0,0,0,0.1,0.1,0.1c0,0,0,0.1,0,0.1l0,0
	l0,0c0.1,0.1,0.1,0.2,0.1,0.3l0,0.1l0,0.1l0.1,0.1v0c0,0.1,0.1,0.1,0.1,0.2l0.1,0.1v0c0,0.1,0.1,0.1,0.1,0.2l0,0
	c0,0.1,0.1,0.1,0.1,0.2l0,0L4.7,33v0c0,0.1,0.1,0.2,0.1,0.3l0.2,0.3l0.1,0.2v0l0,0.1C5.2,34,5.2,34,5.2,34.1l0,0l0,0l0.1,0.1l0,0
	c0,0.1,0.1,0.1,0.1,0.2c0.1,0.1,0.1,0.2,0.2,0.3c0,0,0,0,0,0.1c0.1,0,0.1,0,0.2,0c0.1,0,0.2,0,0.3,0c0,0,0.1,0,0.1,0
	c0.1,0,0.1,0,0.2,0c0,0,0.1,0,0.1,0.1c0,0,0,0,0,0c0,0,0,0-0.1,0.1c-0.1,0-0.1,0.1-0.2,0c-0.2,0-0.3,0-0.5,0c0,0,0,0,0.1,0.1l0,0
	c0.1,0.1,0.1,0.1,0.1,0.2l0,0.1c0,0,0.1,0.1,0.1,0.1c0,0,0,0.1,0.1,0.1l0,0l0,0.1l0,0c0,0,0,0,0.1,0.1c0.1,0.1,0.2,0.2,0.2,0.3
	c0,0,0.1,0.1,0.1,0.1l0,0c0,0,0,0.1,0.1,0.1l0-0.1l0,0l0,0l0,0l0.1,0.1c0,0,0,0,0,0c0,0,0,0,0.1,0.1v0l0,0l0,0l0,0l0.1,0.1
	c0.1,0.1,0.2,0.2,0.2,0.4l0.3,0.4l0.2,0.2l0.1,0.1l0,0l0,0l0,0l0,0v0c0.1,0.1,0.2,0.2,0.2,0.2c0.1,0.1,0,0,0.1,0.1l0,0
	c0.1,0.1,0.1,0.1,0.2,0.2c0,0,0.1,0.1,0.1,0.1l0.1,0.1c0,0,0.1,0.1,0.1,0.2c0,0,0.1,0.1,0.1,0.1l0,0l0.1,0.1l0.1,0.1
	c0.1,0,0.1,0.1,0.2,0.2c0.1,0.1,0.1,0.1,0.2,0.2c0,0,0.1,0.1,0.1,0.1c0,0,0.1,0,0.1,0.1l0,0l0.1,0.1c0.1,0.1,0.1,0.1,0.2,0.2
	c0,0,0.1,0,0.1,0.1c0.1,0.1,0.1,0.2,0.2,0.2c0,0,0,0,0.1,0l0,0c0.1,0,0.1,0.1,0.1,0.2l-0.1-0.1l0.1,0.1c0,0,0,0,0.1,0.1l0,0
	c0.1,0.1,0.1,0.1,0.2,0.2L10,40.4c0,0,0.1,0.1,0.1,0.1c0,0,0.1,0,0.1,0.1c0,0,0.1,0.1,0.1,0.1c0.1,0,0.1,0.1,0.1,0.1l0,0
	c0,0,0.1,0.1,0.1,0.1l0.1,0.1l0,0c0.1,0,0.1,0.1,0.2,0.1l0,0l0,0h0c0,0,0.1,0.1,0.1,0.1c0.1,0,0.1,0.1,0.2,0.2c0,0,0,0,0.1,0
	c0,0,0,0,0,0c0,0,0,0,0,0l0,0c0,0,0,0,0,0c0,0,0,0,0,0c0,0,0,0,0,0c0.1,0,0.1,0.1,0.2,0.1c0.1,0,0.1,0.1,0.2,0.1
	c0.1,0,0.1,0.1,0.1,0.1l0,0c0,0,0,0,0,0h0c0,0,0.1,0.1,0.1,0.1l0,0c0.1,0,0.2,0.1,0.2,0.2c0,0,0.1,0,0.1,0c0,0,0.1,0,0.1,0.1l0,0
	l0,0c0,0,0.1,0,0.1,0.1l0.1,0c0,0,0,0,0,0c0,0,0.1,0.1,0.1,0.1c0,0,0,0,0.1,0l0.1,0c0.1,0,0.2,0.1,0.3,0.2c0.1,0.1,0.2,0.1,0.3,0.2
	l0,0l0,0c0,0,0,0,0.1,0c0.1,0,0.1,0.1,0.2,0.1l0,0l0,0l0,0c0,0,0.1,0,0.1,0.1c0,0,0,0,0,0l0,0c0,0,0,0,0,0c0.1,0,0.1,0.1,0.2,0.1
	c0.1,0.1,0.2,0.1,0.3,0.2c0,0,0,0,0,0l0.1,0c0.1,0,0.2,0.1,0.2,0.2c0,0,0,0,0,0l0,0l0,0l0,0l0,0l0,0l0.1,0c0,0,0.1,0,0.1,0.1
	s0.1,0,0.1,0.1c0,0,0.1,0,0.1,0.1c0.1,0,0.1,0.1,0.2,0.1l0.1,0c0,0,0.1,0,0.1,0c0,0,0.1,0,0.1,0c0,0,0.1,0,0.1,0.1l0,0
	c0.1,0,0.1,0.1,0.2,0.1c0,0,0.1,0,0.1,0.1c0,0,0.1,0,0.1,0.1c0.1,0,0.2,0.1,0.3,0.2c0,0,0.1,0,0.1,0.1l0,0l0,0
	c0.1,0,0.1,0.1,0.2,0.1l0,0l0,0c0,0,0,0,0.1,0c0.1,0,0.2,0.1,0.3,0.1c0,0,0,0,0.1,0c0,0,0,0,0.1,0c0.1,0,0.1,0,0.2,0.1
	c0.1,0,0.2,0.1,0.3,0.1c0,0,0,0,0,0c0.1,0,0.2,0.1,0.3,0.1c0.1,0,0.2,0.1,0.3,0.1h0c0,0,0.1,0,0.1,0c0.1,0,0.2,0.1,0.3,0.1h0
	c0,0,0.1,0,0.1,0c0,0,0.1,0,0.1,0.1h0c0,0,0.1,0,0.1,0c0.1,0,0.1,0,0.2,0.1l0.2,0c0.1,0,0.2,0.1,0.3,0.1c0.1,0,0.1,0,0.2,0
	c0.1,0,0.2,0.1,0.2,0.1h0h0l0,0c0.1,0,0.3,0.1,0.4,0.1l0.8,0.2l0.8,0.2c0.1,0,0.2,0,0.2,0c0.1,0,0.1,0,0.1,0l0.1,0c0,0,0,0,0.1,0
	l0.1,0c0,0,0.1,0,0.1,0h0c0,0,0,0,0,0l0,0c0.1,0,0.2,0,0.3,0c0,0,0,0,0.1,0c0,0,0,0,0.1,0l0.1,0c0,0,0,0,0,0c0,0,0.1,0,0.1,0
	c0.1,0,0.1,0,0.2,0c0,0,0.1,0,0.1,0l0.1,0h0c0,0,0,0,0.1,0l0.1,0c0,0,0,0,0.1,0l0.1,0h0c0,0,0,0,0.1,0c0,0,0.1,0,0.1,0
	c0,0,0,0,0.1,0l0.1,0h0h0.1l0.1,0c0,0,0.1,0,0.1,0l0.1,0h0C25.6,47.4,25.6,47.4,25.7,47.5c0.1-0.1,0.1-0.1,0.2-0.1c0,0,0.1,0,0.1,0
	c0,0-0.1,0-0.1,0L25.7,47.5z M26.1,46.4c-0.7,0.1-1.3-0.3-1.4-0.9c0-0.2,0-0.3,0-0.4c0,0,0,0.1,0,0.1c0.1,0.5,0.7,0.9,1.4,0.9
	c0.5,0,0.8-0.3,1-0.7C27.2,45.9,26.8,46.3,26.1,46.4L26.1,46.4z M28.9,46.1c0,0-0.1-0.1-0.1-0.1c0,0,0.1-0.1,0.1-0.1
	c0,0,0.1,0,0.1,0.1C29.1,46.1,29,46,28.9,46.1L28.9,46.1z M30.4,46.6c-0.1-0.1-0.2-0.1-0.3-0.1c-0.2,0-0.4,0-0.5,0c0,0-0.1,0-0.1,0
	c-0.1,0-0.1,0-0.2-0.1c0,0,0.1-0.1,0.2-0.1c0.1,0,0.3,0,0.5,0c0.1,0,0.3,0,0.4,0c0,0,0.1,0,0.1,0C30.5,46.4,30.5,46.5,30.4,46.6
	C30.5,46.6,30.4,46.6,30.4,46.6C30.5,46.7,30.4,46.6,30.4,46.6L30.4,46.6z M13.6,39.5c0.1,0,0.3,0,0.4,0
	C13.9,39.5,13.7,39.5,13.6,39.5z M12.7,39c0.1,0.1,0.2,0.2,0.3,0.3c0.2,0.1,0.4,0.2,0.6,0.2c0.1,0,0.3,0,0.4,0c0,0,0.1,0,0.1,0
	C13.7,39.3,13.2,39.1,12.7,39L12.7,39z"/>
<path class="st0" d="M11.1,41.5L11.1,41.5C11.1,41.5,11.1,41.6,11.1,41.5L11.1,41.5z"/>
<path class="st0" d="M11.1,41.5L11.1,41.5C11.1,41.5,11.1,41.6,11.1,41.5L11.1,41.5z"/>
<path class="st0" d="M11.1,41.5L11.1,41.5C11.1,41.5,11.1,41.6,11.1,41.5L11.1,41.5z"/>
<path class="st0" d="M11.1,41.5L11.1,41.5C11.1,41.5,11.1,41.6,11.1,41.5L11.1,41.5z"/>
<path class="st0" d="M19.8,40.3L19.8,40.3C19.7,40.4,19.7,40.4,19.8,40.3C19.7,40.3,19.7,40.3,19.8,40.3
	C19.7,40.3,19.7,40.3,19.8,40.3L19.8,40.3z"/>
<path class="st0" d="M13.9,40.8C13.9,40.8,13.9,40.8,13.9,40.8C13.9,40.8,13.8,40.8,13.9,40.8L13.9,40.8
	C13.9,40.7,13.9,40.8,13.9,40.8z"/>
<path class="st0" d="M12.1,40.8C12.1,40.8,12,40.8,12.1,40.8C12,40.8,12,40.8,12.1,40.8C12,40.8,12,40.7,12.1,40.8
	C12,40.7,12.1,40.7,12.1,40.8z"/>
<path class="st0" d="M10,40.5C10,40.5,10,40.5,10,40.5C10,40.5,10,40.5,10,40.5C10,40.5,10,40.5,10,40.5C10,40.4,10,40.4,10,40.5z"
	/>
<path class="st0" d="M5.4,32.1C5.4,32.1,5.4,32.1,5.4,32.1C5.4,32.1,5.4,32.1,5.4,32.1C5.3,32.1,5.3,32.1,5.4,32.1
	C5.3,32.1,5.4,32.1,5.4,32.1z"/>
<path class="st0" d="M4.2,30.6C4.2,30.6,4.2,30.6,4.2,30.6C4.1,30.6,4.1,30.5,4.2,30.6C4.1,30.5,4.2,30.5,4.2,30.6
	C4.2,30.5,4.2,30.5,4.2,30.6L4.2,30.6z"/>
<path class="st0" d="M13.5,37.2C13.5,37.2,13.5,37.3,13.5,37.2C13.5,37.3,13.5,37.3,13.5,37.2L13.5,37.2
	C13.5,37.2,13.5,37.2,13.5,37.2z"/>
<path class="st0" d="M7.3,27.5C7.3,27.5,7.3,27.5,7.3,27.5C7.3,27.5,7.3,27.5,7.3,27.5C7.3,27.4,7.3,27.5,7.3,27.5
	C7.3,27.5,7.3,27.5,7.3,27.5z"/>
<path class="st0" d="M7.3,32.4C7.3,32.4,7.3,32.4,7.3,32.4C7.3,32.5,7.3,32.4,7.3,32.4C7.3,32.4,7.3,32.4,7.3,32.4
	C7.3,32.4,7.3,32.4,7.3,32.4z"/>
<path class="st0" d="M8.9,20.4C8.9,20.4,9,20.3,8.9,20.4C9,20.3,9,20.3,8.9,20.4C9,20.4,9,20.4,8.9,20.4C9,20.4,8.9,20.4,8.9,20.4z"
	/>
<path class="st0" d="M9.6,17.8C9.6,17.8,9.6,17.8,9.6,17.8C9.7,17.8,9.7,17.8,9.6,17.8C9.7,17.9,9.7,17.9,9.6,17.8
	C9.6,17.9,9.6,17.9,9.6,17.8z"/>
<path class="st0" d="M11.1,28.6C11.1,28.6,11.1,28.7,11.1,28.6C11,28.7,11,28.7,11.1,28.6C11,28.6,11,28.6,11.1,28.6
	C11.1,28.6,11.1,28.6,11.1,28.6z"/>
<path class="st0" d="M10.4,20.7C10.4,20.7,10.4,20.7,10.4,20.7C10.4,20.7,10.4,20.7,10.4,20.7C10.4,20.7,10.4,20.7,10.4,20.7
	C10.4,20.7,10.4,20.7,10.4,20.7z"/>
<path class="st0" d="M10.7,25.2C10.7,25.2,10.7,25.2,10.7,25.2C10.7,25.2,10.8,25.2,10.7,25.2C10.8,25.2,10.8,25.2,10.7,25.2
	C10.7,25.2,10.7,25.2,10.7,25.2z"/>
<path class="st0" d="M9.9,28.5C9.9,28.5,9.9,28.5,9.9,28.5C9.9,28.5,9.8,28.5,9.9,28.5C9.8,28.5,9.8,28.5,9.9,28.5
	C9.9,28.5,9.9,28.5,9.9,28.5z"/>
<path class="st0" d="M8.3,23.9C8.3,23.9,8.3,23.9,8.3,23.9C8.3,23.9,8.3,23.9,8.3,23.9C8.3,23.9,8.3,23.9,8.3,23.9
	C8.3,23.9,8.3,23.9,8.3,23.9z"/>
<path class="st0" d="M11.3,17.8C11.3,17.8,11.4,17.8,11.3,17.8C11.4,17.8,11.4,17.8,11.3,17.8L11.3,17.8
	C11.4,17.8,11.3,17.8,11.3,17.8z"/>
<path class="st0" d="M13.8,14.9C13.8,14.9,13.8,14.8,13.8,14.9C13.8,14.8,13.8,14.8,13.8,14.9C13.8,14.9,13.8,14.9,13.8,14.9
	C13.8,14.9,13.8,14.9,13.8,14.9z"/>
<path class="st0" d="M8.2,15.5C8.2,15.5,8.2,15.5,8.2,15.5C8.2,15.5,8.2,15.5,8.2,15.5C8.2,15.5,8.2,15.5,8.2,15.5
	C8.2,15.5,8.2,15.5,8.2,15.5z"/>
<path class="st0" d="M15,37.5C15,37.5,15.1,37.6,15,37.5C15.1,37.6,15.1,37.6,15,37.5C15.1,37.6,15,37.6,15,37.5
	C15,37.6,15,37.6,15,37.5c-0.1,0-0.1,0-0.1,0h0l0,0l0,0l0,0c0,0,0,0,0,0c0,0,0,0,0,0C15,37.5,15,37.5,15,37.5L15,37.5z"/>
<path class="st0" d="M14.8,35.9C14.8,35.9,14.8,35.9,14.8,35.9C14.8,35.9,14.8,35.9,14.8,35.9C14.8,36,14.8,36,14.8,35.9
	C14.8,35.9,14.8,35.9,14.8,35.9z"/>
<path class="st0" d="M8.7,15.5C8.7,15.5,8.8,15.5,8.7,15.5C8.8,15.5,8.8,15.5,8.7,15.5C8.8,15.5,8.8,15.5,8.7,15.5
	C8.8,15.5,8.8,15.5,8.7,15.5z"/>
<path class="st0" d="M9.7,15.1C9.7,15.1,9.7,15,9.7,15.1C9.7,15,9.7,15,9.7,15.1C9.8,15.1,9.7,15.1,9.7,15.1
	C9.7,15.1,9.7,15.1,9.7,15.1z"/>
<path class="st0" d="M15.8,6.2C15.8,6.2,15.8,6.2,15.8,6.2c-0.1,0-0.1,0-0.1,0c0,0,0,0,0,0c0,0,0,0,0,0C15.7,6.1,15.8,6.1,15.8,6.2
	C15.8,6.1,15.8,6.2,15.8,6.2C15.8,6.2,15.8,6.2,15.8,6.2L15.8,6.2z"/>
<path class="st0" d="M17.5,11.9C17.5,11.9,17.5,11.9,17.5,11.9C17.5,11.9,17.5,11.9,17.5,11.9C17.5,11.9,17.5,11.9,17.5,11.9
	C17.5,11.9,17.5,11.9,17.5,11.9z"/>
<path class="st0" d="M12.1,44.2C12.1,44.2,12.1,44.2,12.1,44.2C12.1,44.2,12.1,44.2,12.1,44.2C12.1,44.2,12.1,44.2,12.1,44.2
	C12.1,44.2,12.1,44.2,12.1,44.2z"/>
<path class="st0" d="M11.1,41.5C11.1,41.5,11.1,41.6,11.1,41.5L11.1,41.5L11.1,41.5z"/>
<path class="st0" d="M11.1,41.5L11.1,41.5C11.1,41.5,11.1,41.6,11.1,41.5L11.1,41.5z"/>
<path class="st0" d="M11.1,41.5L11.1,41.5C11.1,41.5,11.1,41.6,11.1,41.5L11.1,41.5z"/>
<path class="st0" d="M6.2,36.1L6.2,36.1C6.2,36.1,6.2,36.1,6.2,36.1C6.2,36.1,6.2,36.1,6.2,36.1C6.2,36.1,6.2,36.1,6.2,36.1
	L6.2,36.1L6.2,36.1z"/>
<path class="st0" d="M11.1,41.5L11.1,41.5C11.1,41.5,11.1,41.6,11.1,41.5L11.1,41.5z"/>
<path class="st0" d="M14.5,44L14.5,44C14.5,44,14.5,44,14.5,44L14.5,44L14.5,44z"/>
<polygon class="st0" points="18.8,46 18.7,46 18.8,46 "/>
<path class="st0" d="M36.6,10.8c0-0.1,0-0.2,0-0.3c0-0.1,0-0.2,0-0.2c0-0.1,0-0.1,0-0.2c0-0.1,0-0.1,0-0.2c0-0.1-0.1-0.3-0.2-0.4
	S36.1,9.3,36,9.2C35.9,9.1,35.8,9,35.8,9c0,0-0.1-0.1-0.1-0.1c-0.1-0.1-0.1-0.1-0.2-0.1c-0.1,0-0.2-0.1-0.2-0.1c0,0,0,0-0.1,0
	c-0.2-0.1-0.3-0.1-0.5-0.1c-0.1,0-0.2,0-0.2,0c-0.1,0-0.2,0-0.3,0c-0.1,0-0.2,0-0.2,0c-0.1,0.1-0.3,0.1-0.4,0.2c0,0-0.1,0.1-0.1,0.1
	C33.1,8.9,33,9,32.9,9.1c0,0,0,0,0,0c-0.1,0.1-0.2,0.2-0.3,0.3c0,0.1-0.1,0.1-0.2,0.2c-0.1,0.2-0.2,0.4-0.2,0.5c0,0.1,0,0.2-0.1,0.3
	c0,0.1,0,0.1,0,0.2s0,0.1,0,0.2c0,0.1,0,0.1,0,0.2c0,0.1,0,0.2,0.1,0.3c0.1,0.2,0.1,0.4,0.2,0.5c0.1,0.1,0.2,0.2,0.3,0.4
	c0.1,0.1,0.1,0.1,0.2,0.2c0.1,0.1,0.2,0.1,0.3,0.2c0,0,0.1,0.1,0.2,0.1c0.1,0.1,0.2,0.1,0.3,0.1c0.1,0,0.2,0,0.2,0c0,0,0.1,0,0.1,0
	c0,0,0.1,0,0.1,0c0.1,0,0.1,0,0.2,0c0.1,0,0.2,0,0.3,0c0,0,0.1,0,0.1,0c0,0,0.1,0,0.1,0c0.1-0.1,0.2-0.1,0.3-0.1
	c0.2-0.1,0.3-0.2,0.4-0.3c0.1-0.1,0.2-0.2,0.3-0.3c0,0,0-0.1,0.1-0.1c0-0.1,0.1-0.1,0.1-0.2c0-0.1,0.1-0.1,0.1-0.2s0-0.1,0.1-0.2
	c0-0.1,0-0.1,0.1-0.2s0-0.1,0-0.2c0,0,0-0.1,0-0.1S36.6,10.8,36.6,10.8L36.6,10.8z M35.5,10.8C35.5,10.8,35.5,10.8,35.5,10.8
	C35.5,10.8,35.5,10.8,35.5,10.8C35.5,10.8,35.4,10.8,35.5,10.8C35.4,10.8,35.5,10.8,35.5,10.8C35.5,10.8,35.5,10.8,35.5,10.8
	L35.5,10.8L35.5,10.8z M34.4,11.5C34.4,11.5,34.4,11.5,34.4,11.5c0.1,0,0.1,0,0.1,0S34.5,11.6,34.4,11.5
	C34.4,11.6,34.4,11.5,34.4,11.5L34.4,11.5z M33,10.6C33,10.6,32.9,10.6,33,10.6C32.9,10.5,32.9,10.5,33,10.6
	C33,10.5,33,10.5,33,10.6c0.1-0.1,0.2-0.2,0.3-0.1c0,0,0.1,0,0.1,0.1c0,0.1,0,0-0.1,0.1c0,0,0,0-0.1,0C33.1,10.6,33,10.5,33,10.6
	L33,10.6z M33.5,11.5c0,0-0.1,0-0.2,0.1c-0.1,0-0.1,0-0.2,0c0,0,0,0,0-0.1c0,0,0,0,0,0C33.2,11.4,33.4,11.4,33.5,11.5
	C33.5,11.5,33.5,11.5,33.5,11.5z M33.6,11.3c0-0.1,0.1-0.1,0.1-0.1c0,0,0.1,0,0.1,0.1c0,0,0,0.1,0,0.1
	C33.7,11.3,33.7,11.3,33.6,11.3C33.6,11.3,33.6,11.3,33.6,11.3L33.6,11.3z M33.8,12C33.8,12,33.8,12,33.8,12
	C33.8,12,33.8,12,33.8,12C33.7,12,33.7,12,33.8,12C33.7,12,33.7,12,33.8,12C33.8,12,33.8,12,33.8,12C33.8,12,33.8,12,33.8,12
	C33.8,12,33.8,12,33.8,12L33.8,12z M33.8,9.9C33.8,9.9,33.8,9.9,33.8,9.9c0-0.1,0.1-0.1,0.1-0.1c0.1,0,0.2,0,0.2,0c0,0,0.1,0,0.1,0
	c0.1,0,0,0.1,0,0.1c0,0.1,0,0,0,0h0c0,0,0,0,0,0c0,0-0.1,0-0.1,0C34,10,33.9,10,33.8,9.9L33.8,9.9z M34.2,12.4
	C34.2,12.4,34.2,12.4,34.2,12.4L34.2,12.4C34.2,12.4,34.2,12.4,34.2,12.4L34.2,12.4z M34.5,12.3C34.5,12.3,34.4,12.2,34.5,12.3
	c-0.1-0.1,0-0.1,0-0.1S34.5,12.2,34.5,12.3C34.5,12.3,34.5,12.3,34.5,12.3L34.5,12.3z M34.5,12.1c-0.1,0-0.1,0-0.2,0
	c-0.1,0-0.2,0-0.3-0.1c0,0,0-0.1,0-0.1s0.1-0.1,0.1-0.1c0.1,0,0.2,0,0.3,0c0.1,0,0.1,0,0.2,0.1C34.6,12,34.6,12,34.5,12.1
	C34.5,12.1,34.5,12.1,34.5,12.1z M34.5,9.2c-0.1,0-0.1,0-0.1-0.1c0,0,0.1-0.1,0.1-0.1c0.1,0,0.2,0,0.3,0c0,0,0,0,0,0
	c0,0,0.1,0,0.1,0c0,0,0,0.1-0.1,0.1c0,0-0.1,0-0.1,0c0,0-0.1,0-0.1,0C34.6,9.2,34.6,9.3,34.5,9.2z M34.9,10.3
	C34.9,10.3,34.9,10.3,34.9,10.3L34.9,10.3L34.9,10.3C34.9,10.4,34.9,10.4,34.9,10.3C34.8,10.4,34.8,10.4,34.9,10.3
	C34.8,10.3,34.8,10.3,34.9,10.3L34.9,10.3z M35,12.1C35,12.1,34.9,12.1,35,12.1c-0.1,0.1-0.1,0-0.1,0c0,0,0,0,0,0
	C34.8,12.1,34.9,12.1,35,12.1C34.9,12,34.9,12.1,35,12.1C35,12.1,35,12.1,35,12.1z M35.8,11.2c0,0-0.1,0-0.1,0c0,0-0.1,0-0.2,0
	c0,0-0.1,0-0.1,0c0,0,0-0.1,0-0.1c0,0,0.1,0,0.2-0.1c0,0,0,0,0,0c0,0,0.1,0,0.1,0.1C35.8,11.1,35.8,11.2,35.8,11.2
	C35.9,11.2,35.9,11.2,35.8,11.2L35.8,11.2z M35.7,10.1C35.7,10.1,35.7,10,35.7,10.1C35.6,10,35.7,10,35.7,10.1
	C35.7,10,35.7,10,35.7,10.1C35.7,10,35.7,10,35.7,10.1L35.7,10.1z M35.7,10.7L35.7,10.7C35.7,10.7,35.7,10.7,35.7,10.7
	C35.7,10.7,35.7,10.7,35.7,10.7C35.7,10.7,35.7,10.7,35.7,10.7z M35.7,10.5C35.7,10.5,35.7,10.5,35.7,10.5
	C35.8,10.5,35.8,10.5,35.7,10.5C35.8,10.5,35.8,10.5,35.7,10.5C35.8,10.5,35.8,10.5,35.7,10.5L35.7,10.5z M35.7,9.6
	c0,0.1-0.2,0-0.2-0.1v0c0,0,0.1,0,0.1,0c0.1,0,0.2,0,0.2,0h0c0,0,0,0,0,0c0,0,0,0,0,0C35.8,9.5,35.7,9.5,35.7,9.6L35.7,9.6z
	 M36.2,10.1c-0.1,0-0.1,0.1-0.2,0c0,0-0.1,0-0.1-0.1l0,0c0,0,0,0,0,0c0.1,0,0.1,0,0.2,0C36.1,10,36.2,10,36.2,10.1
	C36.2,10,36.2,10.1,36.2,10.1L36.2,10.1z"/>
<path class="st0" d="M23.9,7.3c0-0.1,0-0.2,0-0.2c0-0.1-0.1-0.2-0.1-0.3c0-0.1-0.1-0.1-0.1-0.2c0-0.1-0.1-0.2-0.2-0.3
	c-0.1-0.1-0.1-0.1-0.2-0.2c0-0.1-0.1-0.1-0.2-0.1c0,0-0.1-0.1-0.1-0.1c0,0-0.1,0-0.1,0c-0.1-0.1-0.3-0.1-0.4-0.2c0,0-0.1,0-0.2,0
	c-0.1,0-0.1,0-0.2,0c0,0,0,0,0,0c-0.1,0-0.1,0-0.2,0c0,0-0.1,0-0.1,0c0,0-0.1,0-0.1,0c-0.1,0-0.1,0-0.2,0.1c-0.1,0-0.3,0.1-0.4,0.2
	c-0.1,0.1-0.2,0.2-0.4,0.3c0,0.1-0.1,0.1-0.1,0.2c0,0.1-0.1,0.1-0.1,0.2c-0.1,0.1-0.1,0.2-0.2,0.4c0,0.1-0.1,0.2-0.1,0.3
	c0,0,0,0,0,0.1c0,0,0,0,0,0.1c0,0.1,0,0.1,0,0.1s0,0.1,0,0.1c0,0.1,0,0.1,0,0.2c0,0.1,0,0.1,0,0.2c0,0.1,0,0.1,0,0.2
	c0,0.1,0,0.2,0.1,0.3c0,0.1,0.1,0.1,0.1,0.2c0.1,0.1,0.2,0.2,0.3,0.4c0,0,0.1,0.1,0.1,0.1C20.9,9,21,9.1,21.1,9.2
	c0.1,0,0.2,0.1,0.2,0.1h0c0.1,0,0.2,0,0.2,0.1s0.2,0,0.2,0.1c0.1,0,0.1,0,0.2,0s0.1,0,0.2,0c0.1,0,0.1,0,0.2,0
	c0.1,0,0.2-0.1,0.3-0.1c0.1-0.1,0.2-0.1,0.3-0.2c0.1-0.1,0.2-0.2,0.4-0.3c0-0.1,0-0.1,0.1-0.1c0,0,0.1-0.1,0.1-0.1
	c0-0.1,0.1-0.1,0.1-0.2c0,0,0,0,0-0.1c0-0.1,0.1-0.1,0.1-0.2c0-0.1,0.1-0.2,0.1-0.3c0-0.1,0-0.2,0-0.3V7.5l0,0
	C23.9,7.4,23.9,7.4,23.9,7.3L23.9,7.3z M20.8,7.5c0,0-0.1,0-0.1-0.1C20.7,7.5,20.7,7.5,20.8,7.5c-0.1-0.1,0-0.1,0-0.1
	c0,0,0.1,0,0.1,0c0,0,0,0.1,0,0.1C20.9,7.5,20.9,7.5,20.8,7.5C20.8,7.5,20.8,7.5,20.8,7.5L20.8,7.5z M21,8.2C21,8.2,20.9,8.1,21,8.2
	L21,8.2L21,8.2C20.9,8.1,20.9,8.1,21,8.2C21,8.1,21.1,8.1,21,8.2C21,8.1,21,8.2,21,8.2L21,8.2z M21.1,8.9
	C21.1,8.9,21.1,8.9,21.1,8.9c-0.1-0.1,0-0.1,0-0.1C21.1,8.8,21.2,8.8,21.1,8.9C21.1,8.9,21.1,8.9,21.1,8.9L21.1,8.9z M22.3,6.6
	C22.3,6.6,22.3,6.6,22.3,6.6C22.3,6.7,22.3,6.7,22.3,6.6c0,0.1,0,0.2-0.1,0.1c0,0-0.1,0-0.1,0c0,0-0.1,0.1-0.1,0c0,0,0,0,0-0.1
	c0,0,0.1-0.1,0.1-0.1C22.1,6.6,22.2,6.6,22.3,6.6L22.3,6.6z M21.6,7.6C21.6,7.6,21.6,7.6,21.6,7.6c-0.1,0-0.1,0-0.1-0.1
	c0-0.1,0.1,0,0.1-0.1c0,0,0,0,0,0C21.6,7.5,21.7,7.5,21.6,7.6C21.7,7.6,21.6,7.6,21.6,7.6L21.6,7.6z M21.8,6.7c0,0-0.1,0.1-0.2,0
	c0,0,0,0,0,0C21.6,6.7,21.7,6.6,21.8,6.7C21.7,6.7,21.8,6.7,21.8,6.7L21.8,6.7L21.8,6.7z M21.8,6.1c0,0-0.1,0-0.1,0c0,0,0,0,0-0.1
	c0.1,0,0.2,0,0.4,0c0,0,0,0.1,0,0.1C22,6.1,21.9,6.1,21.8,6.1L21.8,6.1z M22,8.8C22,8.8,22,8.8,22,8.8c-0.1,0-0.1,0-0.1,0
	c0,0,0,0,0-0.1c0,0,0,0,0,0C21.9,8.6,22,8.6,22,8.8C22.1,8.7,22.1,8.7,22,8.8C22.1,8.7,22.1,8.8,22,8.8L22,8.8z M22,7.8
	C22,7.8,22,7.7,22,7.8c0-0.1,0-0.2,0-0.1c0,0,0.1,0,0.1,0.1C22.1,7.8,22,7.8,22,7.8L22,7.8z M22.6,8.1C22.6,8.1,22.5,8.1,22.6,8.1
	c-0.1,0-0.2,0-0.2,0.1c0,0-0.1,0-0.1,0c0,0,0-0.1-0.1-0.1c0,0,0,0,0,0l0,0c0.1,0,0.1,0,0.2-0.1c0,0,0,0,0,0C22.5,8,22.5,8,22.6,8.1
	C22.6,8.1,22.6,8.1,22.6,8.1C22.6,8.1,22.6,8.1,22.6,8.1L22.6,8.1z M22.6,6.6C22.6,6.6,22.5,6.5,22.6,6.6c-0.1-0.1,0-0.1,0-0.1
	C22.6,6.4,22.6,6.5,22.6,6.6C22.6,6.6,22.6,6.6,22.6,6.6z M23,6.6C23,6.6,23,6.6,23,6.6C23,6.6,23,6.6,23,6.6C23,6.6,23,6.6,23,6.6
	C23,6.6,23,6.6,23,6.6L23,6.6C23,6.6,23,6.6,23,6.6z M23.2,6.4c0,0-0.1,0-0.1,0C23.2,6.4,23.2,6.4,23.2,6.4c0,0,0.1,0,0.1,0
	C23.3,6.5,23.3,6.4,23.2,6.4L23.2,6.4z"/>
<path class="st0" d="M19.1,35.8c0,0,0-0.1,0-0.2c0,0,0-0.1,0-0.1c0,0,0-0.1,0-0.1c0,0,0-0.1,0-0.1c0-0.1-0.1-0.2-0.1-0.3
	s-0.1-0.2-0.1-0.3c0-0.1-0.1-0.2-0.2-0.2c-0.1-0.1-0.2-0.2-0.2-0.2c0,0-0.1,0-0.1-0.1c-0.1-0.1-0.2-0.1-0.4-0.2c0,0-0.1,0-0.1,0
	c-0.1,0-0.1,0-0.2,0c-0.1,0-0.2,0-0.3,0c0,0-0.1,0-0.1,0s-0.1,0-0.1,0c0,0-0.1,0-0.1,0c0,0,0,0,0,0c-0.1,0-0.2,0.1-0.3,0.1
	c-0.1,0-0.1,0.1-0.2,0.1c-0.1,0-0.2,0.1-0.3,0.2c-0.1,0.1-0.2,0.2-0.3,0.3c-0.1,0.1-0.1,0.2-0.2,0.3c-0.1,0.1-0.1,0.2-0.1,0.4
	c0,0.1,0,0.1,0,0.2c0,0,0,0.1,0,0.1c0,0,0,0.1,0,0.1c0,0.1,0,0.1,0,0.2c0,0,0,0.1,0,0.1s0,0.1,0,0.1c0,0.1,0,0.1,0,0.2c0,0,0,0,0,0
	c0,0.1,0.1,0.2,0.1,0.2c0.1,0.2,0.2,0.4,0.4,0.5c0,0,0,0,0,0c0.1,0.1,0.2,0.1,0.3,0.2c0.1,0.1,0.2,0.1,0.3,0.1c0,0,0.1,0,0.1,0
	s0.1,0,0.1,0c0,0,0.1,0,0.1,0s0.1,0,0.1,0c0.1,0,0.2,0,0.2,0c0,0,0.1,0,0.1,0c0.1,0,0.2,0,0.2,0c0,0,0.1,0,0.2,0
	c0.1,0,0.1,0,0.2-0.1c0.1,0,0.1,0,0.2-0.1c0,0,0.1,0,0.1,0c0,0,0.1,0,0.1-0.1c0,0,0.1-0.1,0.1-0.1c0-0.1,0.1-0.1,0.1-0.2
	c0,0,0.1-0.1,0.1-0.1c0.1-0.2,0.2-0.3,0.2-0.4c0-0.1,0.1-0.2,0.1-0.2c0,0,0-0.1,0-0.1c0,0,0-0.1,0-0.1c0,0,0,0,0,0
	C19.2,36,19.1,35.9,19.1,35.8L19.1,35.8z M17.6,34.4C17.6,34.4,17.6,34.4,17.6,34.4C17.6,34.4,17.6,34.5,17.6,34.4L17.6,34.4
	C17.6,34.4,17.6,34.4,17.6,34.4L17.6,34.4z M17.5,34.8c0,0,0.1-0.1,0.2-0.1c0.1,0,0.2,0,0.3,0c0,0,0,0,0,0c0.1,0.1,0.2,0.1,0.3,0.1
	c0,0,0,0,0,0h0c0,0-0.1,0-0.1,0c0,0-0.1,0.1-0.2,0c0,0-0.1,0-0.2,0s-0.1,0-0.1,0c0,0,0,0-0.1,0c0,0-0.1,0-0.1,0c0,0-0.1,0-0.1,0
	c-0.1,0-0.1,0-0.2,0c0,0,0,0,0,0c0,0,0.1-0.1,0.2-0.1C17.5,34.9,17.5,34.9,17.5,34.8z M18.1,36.7C18.1,36.7,18.1,36.7,18.1,36.7
	c-0.1,0.1-0.1,0.1-0.2,0.1c0,0-0.1,0-0.1,0s-0.1,0-0.1,0c0,0-0.1,0-0.1,0c0,0-0.1,0-0.1,0c0,0,0,0,0,0c0,0-0.1,0-0.1,0
	c0,0,0.1-0.1,0.1-0.1c0,0,0,0,0,0c0.1,0,0.1,0,0.2,0c0,0,0.1,0,0.1,0c0,0,0.1,0,0.2,0c0,0,0.1,0,0.1,0C18,36.7,18.1,36.7,18.1,36.7
	C18.2,36.7,18.2,36.7,18.1,36.7C18.2,36.7,18.2,36.7,18.1,36.7L18.1,36.7z M16.6,36.1C16.6,36.1,16.6,36.1,16.6,36.1L16.6,36.1
	C16.6,36.1,16.6,36.1,16.6,36.1L16.6,36.1z M16.8,36.1C16.8,36.1,16.8,36.1,16.8,36.1c0.1,0,0.1,0,0.1,0
	C16.9,36.1,16.9,36.1,16.8,36.1C16.8,36.1,16.8,36.1,16.8,36.1L16.8,36.1z M17.1,36L17.1,36C17.1,36,17.1,36,17.1,36L17.1,36
	C17.1,36,17.1,36,17.1,36z M18.1,35.9L18.1,35.9C18,35.9,18,35.9,18.1,35.9C18,35.9,18,35.9,18.1,35.9L18.1,35.9
	C18,35.9,18,35.9,18.1,35.9C18.1,35.9,18.1,35.9,18.1,35.9C18.1,35.9,18.1,35.9,18.1,35.9L18.1,35.9z M17.8,35.5L17.8,35.5
	C17.8,35.5,17.8,35.5,17.8,35.5C17.8,35.5,17.8,35.5,17.8,35.5C17.8,35.5,17.8,35.5,17.8,35.5L17.8,35.5z M17.2,34.2
	C17.2,34.2,17.3,34.2,17.2,34.2c0.1,0,0.1,0,0.1,0c0,0-0.1,0-0.1,0.1C17.2,34.3,17.2,34.3,17.2,34.2C17.2,34.3,17.2,34.2,17.2,34.2
	L17.2,34.2z M17,35C17,35,17,35,17,35C17,35,17,35,17,35C17,35,17,35,17,35C17,35,17,35,17,35C17,35,16.9,35,17,35
	C16.9,35,16.9,35,17,35L17,35z M16.9,34.7L16.9,34.7C16.9,34.7,16.8,34.7,16.9,34.7C16.8,34.7,16.8,34.7,16.9,34.7
	C16.8,34.7,16.8,34.7,16.9,34.7L16.9,34.7L16.9,34.7z M16.6,35.7C16.6,35.7,16.6,35.7,16.6,35.7c0.1,0,0.1,0,0.1,0
	c0-0.1,0.1-0.1,0.2,0c0,0,0.1,0.1,0.1,0.1c0.1,0,0.1,0,0.2,0c0.1,0,0.1,0,0.2,0c0,0,0,0,0,0c0,0,0,0,0,0c-0.1,0-0.1,0-0.2,0
	s-0.2,0-0.2,0c-0.1,0-0.1,0-0.2,0C16.8,35.7,16.7,35.7,16.6,35.7C16.6,35.7,16.6,35.7,16.6,35.7C16.6,35.7,16.6,35.7,16.6,35.7
	L16.6,35.7z M16.5,34.8C16.5,34.8,16.5,34.8,16.5,34.8L16.5,34.8C16.5,34.8,16.5,34.8,16.5,34.8L16.5,34.8z M16.1,35.2
	C16.1,35.2,16.2,35.2,16.1,35.2c0.1,0.1,0,0.2,0,0.2C16.1,35.3,16.1,35.3,16.1,35.2C16.1,35.2,16.1,35.2,16.1,35.2L16.1,35.2z
	 M16.5,36.7C16.5,36.7,16.5,36.7,16.5,36.7c0-0.1,0.1-0.1,0.1-0.1c0,0,0.1,0,0.1,0c0,0,0,0,0,0l0,0c0,0-0.1,0-0.1,0
	C16.6,36.8,16.6,36.7,16.5,36.7L16.5,36.7z"/>
<path class="st0" d="M31.6,10.5c0,0.1,0,0.1,0,0.2c0,0.1,0,0.1,0,0.1c0,0,0,0.1,0,0.1c0,0,0,0.1,0,0.1s0,0,0,0c0,0,0-0.1,0-0.1
	c0-0.1-0.1-0.2-0.1-0.3c0-0.1,0-0.1-0.1-0.2c0-0.1,0-0.1,0-0.2c0-0.1,0-0.1,0-0.2c0-0.1,0-0.2,0-0.3c0-0.1,0-0.1,0-0.2
	c0-0.1,0-0.1,0-0.2c0-0.1,0-0.1,0-0.2c0-0.1,0-0.1,0.1-0.2c0.1-0.1,0.1-0.3,0.2-0.5c0.1-0.1,0.2-0.2,0.3-0.4C32,8,32.1,7.9,32.2,7.8
	c0.1-0.1,0.3-0.2,0.4-0.3c0.1-0.1,0.2-0.1,0.3-0.2c0.1,0,0.1-0.1,0.2-0.1s0.2-0.1,0.2-0.1c0.1,0,0.1,0,0.2-0.1c0,0,0,0,0,0
	c0,0,0.1,0,0.1,0c0,0,0.1,0,0.1,0l0,0c0.1,0,0.3,0,0.4,0c0.1,0,0.2,0,0.3,0c0.1,0,0.2,0,0.3,0.1c0.1,0,0.2,0,0.2,0.1
	c0.1,0,0.2,0.1,0.3,0.1c0.1,0.1,0.2,0.1,0.4,0.2c0.1,0.1,0.1,0.1,0.2,0.2c0.1,0.1,0.3,0.3,0.4,0.5c0,0.1,0.1,0.1,0.1,0.2
	c0,0.1,0,0.1,0.1,0.2c0,0,0,0.1,0,0.1s-0.1,0-0.1,0c0,0,0,0,0,0c-0.2-0.2-0.3-0.3-0.5-0.4c-0.1-0.1-0.2-0.1-0.3-0.2
	c-0.1-0.1-0.3-0.1-0.4-0.2c-0.1,0-0.2,0-0.3-0.1c-0.1,0-0.2,0-0.3,0c-0.1,0-0.2,0-0.3,0c-0.1,0-0.2,0-0.3,0c-0.1,0-0.1,0-0.2,0
	c-0.1,0-0.1,0-0.2,0.1c-0.1,0-0.2,0.1-0.3,0.1C33.2,8,33.1,8,33,8.1c-0.1,0.1-0.2,0.1-0.3,0.2c-0.1,0.1-0.2,0.2-0.3,0.3
	c-0.1,0.1-0.1,0.2-0.2,0.3C32.1,9,32,9.1,31.9,9.2c0,0.1-0.1,0.2-0.1,0.3c0,0.1,0,0.1-0.1,0.2c0,0.1,0,0.1-0.1,0.2
	c0,0.1,0,0.1,0,0.2C31.6,10.2,31.7,10.4,31.6,10.5z"/>
<path class="st0" d="M26.9,33.2C26.9,33.2,26.9,33.1,26.9,33.2c-0.1-0.1,0-0.1,0-0.2s0,0,0-0.1c0,0,0,0,0-0.1c0,0,0,0,0-0.1
	c0,0,0,0,0-0.1s0,0,0-0.1c0,0,0-0.1-0.1-0.1c0,0,0,0-0.1,0c0,0-0.1,0-0.1,0c0,0-0.1,0-0.1,0c0,0-0.1,0-0.1-0.1c0,0,0,0,0,0
	c0,0-0.1,0-0.1,0c-0.1,0-0.2-0.1-0.2,0c0,0-0.1,0-0.1,0c0,0-0.1,0-0.1,0c0,0,0,0-0.1,0c0,0-0.1,0-0.1,0c-0.1,0-0.1,0.1-0.2,0.1
	c0,0,0,0,0,0c0,0.1-0.1,0.1-0.1,0.2c0,0-0.1,0.1,0,0.2c0,0,0,0.1,0,0.1c0,0,0,0.1,0.1,0.1c0.1,0.1,0.2,0.2,0.2,0.2l0,0
	c0.1,0,0.1,0.1,0.1,0.1c0,0,0,0,0,0c0,0,0,0.1,0.1,0.2c0,0,0,0,0,0c0,0,0,0.1,0,0.1c0,0,0,0.1,0.1,0.1c0,0,0.1,0,0.1,0.1
	c0,0.1,0.1,0.1,0.2,0.1c0.1,0,0.1,0,0.2,0c0,0,0,0,0.1-0.1l0,0c0,0,0,0,0.1,0s0.1,0,0.1,0c0,0,0,0,0,0c0-0.1,0.1-0.1,0.2-0.2
	s0.1-0.1,0.2-0.2c0,0,0,0,0-0.1c0,0,0,0,0-0.1C26.9,33.3,26.9,33.2,26.9,33.2L26.9,33.2z M25.8,32.9C25.8,32.9,25.8,32.9,25.8,32.9
	C25.8,32.9,25.8,32.9,25.8,32.9C25.8,32.9,25.8,32.9,25.8,32.9C25.8,32.9,25.8,32.9,25.8,32.9z M26.1,32.8
	C26.1,32.8,26,32.8,26.1,32.8c-0.1,0-0.1,0-0.2,0s-0.1,0-0.1,0c0,0-0.1,0-0.1,0c0,0,0,0,0.1,0C25.9,32.7,25.9,32.7,26.1,32.8
	C26,32.7,26.1,32.7,26.1,32.8L26.1,32.8L26.1,32.8z"/>
<path class="st0" d="M42.5,22.4c0,0,0.1,0,0.1,0c0,0,0.1,0,0.1,0c0.1,0,0.1,0,0.2,0c0,0,0.1,0.1,0.1,0.1c0,0,0.1,0.1,0.1,0.2
	c0,0,0,0.1,0,0.1c0,0,0,0,0,0.1v0c0,0.1,0,0.1,0,0.2c0,0,0,0,0,0c0,0-0.1,0.1-0.1,0.2c-0.1,0.1-0.2,0.1-0.2,0.2c0,0-0.1,0-0.1,0
	c0,0-0.1,0-0.1,0c0,0-0.1,0-0.1,0c0,0-0.1,0-0.1,0c0,0,0,0,0,0c0,0-0.1,0-0.1,0s-0.1,0-0.1-0.1c0,0,0,0,0,0c0,0,0-0.1-0.1-0.1
	c0,0-0.1-0.1-0.1-0.2c0-0.1,0-0.1,0-0.2c0-0.1,0-0.2,0.1-0.3c0,0,0.1-0.1,0.1-0.1c0.1-0.1,0.1-0.1,0.3-0.2
	C42.4,22.4,42.4,22.4,42.5,22.4C42.5,22.4,42.5,22.4,42.5,22.4L42.5,22.4z"/>
</svg>
