<?xml version="1.0" encoding="UTF-8"?><svg id="Layer_2" xmlns="http://www.w3.org/2000/svg" viewBox="0 0 44 44"><defs><style>.cls-1{fill:#646464;stroke-width:0px;}</style></defs><g id="Layer_1-2"><circle class="cls-1" cx="18" cy="18" r="1"/><circle class="cls-1" cx="7" cy="16" r="1"/><circle class="cls-1" cx="35" cy="22" r="1"/><circle class="cls-1" cx="23" cy="23" r="1"/><circle class="cls-1" cx="29.5" cy="25.5" r="1.5"/><circle class="cls-1" cx="25" cy="7" r="1"/><path class="cls-1" d="m11,31c2.76,0,5-2.24,5-5s-2.24-5-5-5-5,2.24-5,5,2.24,5,5,5Zm0-8c1.65,0,3,1.35,3,3s-1.35,3-3,3-3-1.35-3-3,1.35-3,3-3Z"/><path class="cls-1" d="m28,11c-1.65,0-3,1.35-3,3s1.35,3,3,3,3-1.35,3-3-1.35-3-3-3Zm0,4c-.55,0-1-.45-1-1s.45-1,1-1,1,.45,1,1-.45,1-1,1Z"/><path class="cls-1" d="m19,38c2.21,0,4-1.79,4-4s-1.79-4-4-4-4,1.79-4,4,1.79,4,4,4Zm0-6c1.1,0,2,.9,2,2s-.9,2-2,2-2-.9-2-2,.9-2,2-2Z"/><path class="cls-1" d="m16,7c-1.65,0-3,1.35-3,3s1.35,3,3,3,3-1.35,3-3-1.35-3-3-3Zm0,4c-.55,0-1-.45-1-1s.45-1,1-1,1,.45,1,1-.45,1-1,1Z"/><path class="cls-1" d="m22,0C9.87,0,0,9.87,0,22s9.87,22,22,22c3.63,0,7.19-.89,10.37-2.59,2.78-1.49,5.27-3.64,7.21-6.21.19-.25.25-.58.16-.88-.76-2.58-3.06-4.31-5.73-4.31-3.31,0-6,2.69-6,6,0,.84.17,1.65.51,2.41.22.5.81.73,1.32.51.5-.22.73-.81.51-1.32-.22-.5-.34-1.04-.34-1.6,0-2.21,1.79-4,4-4,1.61,0,3.02.95,3.65,2.42-1.71,2.15-3.87,3.97-6.25,5.24-2.88,1.54-6.11,2.35-9.4,2.35-11.03,0-20-8.97-20-20S10.97,2,22,2s20,8.97,20,20c0,2.64-.51,5.2-1.5,7.62-.21.51.03,1.1.54,1.31s1.1-.03,1.31-.54c1.1-2.66,1.65-5.48,1.65-8.38C44,9.87,34.13,0,22,0Z"/></g></svg>