<?xml version="1.0" encoding="UTF-8"?><svg id="Layer_2" xmlns="http://www.w3.org/2000/svg" viewBox="0 0 41.44 42.06"><defs><style>.cls-1{fill:#646464;stroke-width:0px;}</style></defs><g id="Layer_1-2"><path class="cls-1" d="m34.82,5.48l-1.65,2.04-9.58,1.96-.68,2.03,1.6.83-.19.83-5.43,2.48.69,1.53,1.16-.39,1.87-.55,1.76,1.22,1.5-.25,2.42.95-3.4,2.71-3.18-1.53-2.62,1.05-1.68,3.25,1.5,2.77,3.29.8,2.12,4.46,3.34,1.84,1.44-2.63.58-2.59.94-3.78c.88-.17,2.87-.54,2.87-.63,0-.07-.88-1.69-1.48-2.77l3.28,1.02,2.72,3.25,2.08-1.93c.12-.96.19-1.93.19-2.92,0-5.72-2.06-10.96-5.46-15.02ZM5.53,20.04l2.13-.28,4.04-.32,2.4-.48.74-4.42-1.66-4.82-1.08-2.08c-1.79.22-3.53.68-5.2,1.36l-.07,1.7-3.07,3.35s-.99,4.01-.93,4.24c.06.23,2.06,4.48,2.06,4.48l.62-2.73Zm.48,2.81l-2.65.83.63,3.52,2.16.95.88,2.2,1.68,3.65,1.79.68-.44-2.75.43-4.4.45-3.84-2.19-.27-2.75-.58Z"/><path class="cls-1" d="m20.68,42.06h0c-11.4,0-20.68-9.58-20.68-21.34S9.3,0,20.72,0s20.72,9.3,20.72,20.72-9.32,21.34-20.77,21.34Zm.05-37.26c-8.78,0-15.92,7.14-15.92,15.92s7.12,16.54,15.88,16.54c8.8,0,15.97-7.42,15.97-16.54s-7.14-15.92-15.92-15.92Z"/></g></svg>