<?xml version="1.0" encoding="UTF-8"?><svg id="Layer_2" xmlns="http://www.w3.org/2000/svg" viewBox="0 0 44.57 44.58"><defs><style>.cls-1{fill:#646464;stroke-width:0px;}</style></defs><g id="Layer_1-2"><path class="cls-1" d="m22.29,44.58C10,44.58,0,34.58,0,22.29S10,0,22.29,0c.86,0,1.73.05,2.59.15,11.23,1.3,19.7,10.82,19.7,22.14,0,12.29-10,22.29-22.29,22.29Zm0-42.71C11.03,1.87,1.87,11.03,1.87,22.29s9.16,20.42,20.42,20.42,20.42-9.16,20.42-20.42c0-10.37-7.76-19.09-18.05-20.28-.78-.09-1.58-.14-2.37-.14Z"/><path class="cls-1" d="m26.97,2.43s-.96-.53-4.68,2.63c-3.39,2.87-3.4-.6-3.38-1.23,0-.07-.01-.13-.05-.19-.27-.43-1.46-2.01-2.38,2.47-.01.05-.03.1-.06.14-.19.25-.96,1.05-1.95-.07-1.15-1.29-6.38,2.51-.21,3.07.06,0,.12,0,.18-.03.61-.29,4.4-2.05,3.77.04-.4,1.33-.33,1.88-.21,2.11.07.14.05.3-.06.41-.41.39-1.17,1.19-1.29,1.91-.16.89-.86,1.12-.65,2.15.04.2-.1.38-.3.4-.52.05-1.33.43-1.45,2.29-.02.34-.47.44-.63.15-.59-1.05-1.57-1.93-3.03-.89-.05.03-.1.06-.16.06-.61.07-4.31.65-1.74,4.33.05.07.07.16.05.25-.05.32,1.7-.62,2.63-1.13.1-.06.21.06.14.16-.44.6-.92,1.64.32,2.37.14.08.33.05.43-.08.37-.44,1.2-1.3,1.06.21-.18,1.93,1.75,3.13,2.28,2.79.51-.33-.64,1.3-4.66-2.39-.25-.22-.59-.3-.91-.19-.69.22-2.02.36-3.46-1.09-.05-.05-.08-.11-.09-.18-.11-.66-.76-4.27-1.8-5.06-.85-.65-2.03-1.13-2.59-1.34-.18-.07-.26-.26-.19-.44C2.91,13.49,10.3-3.24,26.97,2.43Z"/><path class="cls-1" d="m15.2,27.36c-.82,0-2.28-.46-4.63-2.6-.1-.09-.25-.12-.39-.08-.79.25-2.36.43-4-1.22-.13-.13-.21-.29-.24-.47-.32-1.94-.96-4.24-1.6-4.73-.81-.62-1.99-1.09-2.45-1.26-.22-.08-.39-.25-.49-.46-.1-.22-.1-.45-.01-.67.56-1.4,2.69-6.25,6.81-10.09,2.37-2.22,5.01-3.72,7.83-4.47,3.42-.91,7.13-.71,11.03.6.07.02.12.04.17.06l-.43.97s0,0-.01,0c-.11,0-1.17,0-4.15,2.53-1.33,1.13-2.37,1.49-3.17,1.1-1.02-.5-1.11-2.01-1.09-2.7-.14-.22-.28-.32-.33-.32,0,0-.53.16-1.04,2.67-.03.13-.08.26-.17.36-.16.21-.62.69-1.29.71-.52.02-1.01-.24-1.47-.76-.12-.14-.6-.12-1.16.15-.7.34-1.12.88-1.07,1.16.06.3.72.71,2.41.87,1.48-.71,3.39-1.4,4.19-.71.25.21.5.63.27,1.41-.41,1.36-.25,1.7-.25,1.7.19.35.12.78-.16,1.05-.64.61-1.06,1.21-1.13,1.61-.08.46-.27.78-.43,1.04-.2.33-.31.51-.22.91.05.24,0,.49-.15.68-.15.2-.37.33-.62.36-.75.08-.93,1.15-.97,1.79-.02.39-.3.71-.68.8-.38.09-.76-.08-.95-.42-.24-.43-.63-.96-1.12-1.07-.33-.07-.71.05-1.13.35-.12.09-.26.14-.41.16-.17.02-1.68.21-2.07,1.08-.32.7.2,1.69.69,2.4.35-.14.97-.45,2-1.02.27-.15.59-.09.8.14.2.23.22.56.04.8-.16.22-.43.65-.35,1.01.04.18.16.34.38.5.37-.42.88-.86,1.39-.65.6.25.52,1.07.49,1.38-.08.88.39,1.49.67,1.77.37.37.71.48.83.49.47-.27.75.07.78.11.17.22.14.54-.07.74-.02.02-.28.25-.86.25Zm-3.47-3c.46.4.88.72,1.24.97-.16-.41-.24-.87-.2-1.38-.04.04-.07.08-.11.13-.23.28-.6.38-.94.27Zm-4.74-1.61c1.16,1.14,2.2,1.13,2.87.91.33-.11.69-.09,1,.04-.17-.21-.28-.45-.33-.7-.04-.21-.05-.42-.01-.64-.16.08-.33.17-.48.24-.95.46-1.29.53-1.59.32-.16-.11-.25-.3-.25-.5-.92-1.34-1.18-2.49-.76-3.41.58-1.29,2.28-1.62,2.87-1.69.67-.47,1.32-.63,1.94-.5.57.13,1.08.5,1.52,1.1.25-1.6,1.07-2.07,1.67-2.19-.08-.69.18-1.12.39-1.47.13-.22.25-.41.29-.67.14-.77.79-1.56,1.35-2.11-.19-.49-.11-1.25.23-2.38.05-.16.05-.26.05-.3-.26-.13-1.44.1-3.07.89-.14.07-.3.1-.46.08-2.09-.19-3.24-.78-3.41-1.75-.18-.95.7-1.85,1.65-2.31,1-.49,1.93-.45,2.42.1.17.19.41.41.64.4.2,0,.38-.19.46-.27.47-2.24,1.05-3.31,1.9-3.46.53-.09,1.06.22,1.45.86.09.15.13.32.13.49-.03.72.11,1.58.48,1.76.13.06.67.19,2.01-.95,1.33-1.13,2.35-1.82,3.12-2.23C10.55-1.3,3.86,12.64,2.46,16.06c.66.26,1.72.73,2.53,1.34,1.12.85,1.76,3.97,2,5.34Z"/><path class="cls-1" d="m15.68,26.4c.31-.87,1.61-2.87,6.6.11.24.14.51.2.78.18.61-.06,1.75,0,2.17,1.09.19.49.66.81,1.18.82,1.35.02,3.38.46,1.71,3.2-.05.08-.11.16-.18.22-.29.3-1.2,1.28-1.85,2.66-.11.22-.27.42-.48.55-.64.4-2.01,1.39-2.28,2.65-.06.28-.2.53-.42.72-.71.61-2.21,2.13-2.5,4.37-.35,2.64-3.55-3.35-3.4-5.71.03-.45-.18-.87-.54-1.13-.57-.4-1.27-1.01-1.34-1.67-.02-.13-.04-.27-.09-.39-.29-.68-1.21-2.77-1.47-2.77-.29,0,.22-3.08,1.71-4.33.18-.15.32-.35.4-.57Z"/><path class="cls-1" d="m20.01,44.02s-.05,0-.07,0c-.84-.08-1.75-1.74-2.21-2.73-.58-1.23-1.18-2.95-1.1-4.07.02-.31-.12-.6-.37-.77-.93-.65-1.44-1.31-1.51-1.95-.01-.12-.03-.21-.06-.28-.64-1.5-1.09-2.35-1.26-2.56-.11-.04-.21-.13-.27-.29-.24-.65.46-3.52,1.88-4.72.13-.11.23-.25.28-.4h0c.16-.43.56-1.21,1.54-1.55,1.33-.48,3.23.01,5.65,1.46.16.1.35.14.54.12,1.26-.12,2.2.37,2.58,1.34.13.34.45.56.81.56,1.29.02,2.17.38,2.54,1.05.37.68.21,1.6-.49,2.76-.06.1-.14.2-.23.3-.26.26-1.14,1.22-1.77,2.55-.14.3-.36.54-.63.72-.55.35-1.86,1.27-2.1,2.4-.08.37-.27.7-.55.94-.62.53-2.08,1.99-2.36,4.12-.12.88-.56,1.01-.81,1.01Zm-6.11-13.01c.26.23.66.9,1.51,2.9.06.14.1.3.12.5.04.39.47.89,1.18,1.39.48.34.75.89.71,1.48-.12,1.87,1.85,5.58,2.53,5.92.02-.05.05-.14.07-.29.32-2.4,1.95-4.03,2.64-4.62.15-.13.25-.3.29-.5.29-1.37,1.66-2.41,2.46-2.91.14-.09.26-.22.33-.38.66-1.41,1.56-2.4,1.92-2.77.05-.05.09-.1.12-.15.53-.88.7-1.55.48-1.95-.3-.54-1.28-.63-1.85-.64-.69,0-1.3-.43-1.55-1.08-.31-.8-1.13-.89-1.76-.83-.36.03-.72-.05-1.03-.23-2.74-1.64-4.21-1.66-4.97-1.39-.63.23-.92.71-1.05,1.07h0c-.1.29-.28.54-.52.74-1.15.97-1.64,3.14-1.64,3.74Z"/><path class="cls-1" d="m34.32,5.54c-.6-.43-1.34.29-.94.91,0,.01.02.03.02.04.27.42.16.98-.25,1.26-.65.45-.92.29.87,1.15.91.44.64,1.44-1.6,1.94-.19.04-.22.34-.11.5.09.12.15.32.15.67,0,1.09-1.87.72-2.37.33-.5-.39-.8,2.66.18,2.74.67.05,1.19,0,1.07.24-.05.11-.14.2-.24.26-.73.47-4.38,3.14-.15,8.02.16.18.41.26.64.21.99-.22,3.62-.64,4.06,1.12.54,2.17.16,4.73.86,5.43.7.7.78,1.32,1.09,1.63.31.31,1.32.78.93,1.48-.39.7-.83,1.19-1.09,2.64-.26,1.45-1.01,2.15-1.01,2.15,0,0,18.5-18.03-2.13-32.73Z"/><path class="cls-1" d="m36.72,38.56l-.55-.58s0,0,.02-.02c.09-.09.66-.73.88-1.92.22-1.25.57-1.83.92-2.4.07-.12.15-.24.22-.37.1-.18-.02-.35-.53-.73-.12-.09-.24-.18-.33-.27-.17-.17-.28-.38-.39-.61-.15-.3-.32-.65-.7-1.02-.5-.5-.55-1.5-.62-2.76-.05-.9-.11-1.93-.34-2.85-.36-1.43-2.84-.99-3.59-.82-.38.09-.78-.04-1.03-.34-1.61-1.86-2.3-3.62-2.06-5.26.23-1.59,1.3-2.62,1.94-3.11-.09,0-.19-.01-.29-.02-.25-.02-.71-.17-.91-.97-.19-.76-.11-2.19.39-2.52.19-.13.43-.12.62.03.25.2,1.16.43,1.58.23.09-.04.14-.1.14-.24,0-.33-.07-.42-.07-.43-.15-.2-.19-.49-.1-.73.08-.21.24-.35.44-.39,1.41-.31,1.76-.77,1.78-.92.01-.1-.13-.2-.26-.26l-.2-.1c-1.14-.54-1.37-.66-1.39-1.01-.02-.31.23-.46.44-.58.07-.04.15-.09.23-.15.23-.16.29-.48.14-.71l-.02-.04c-.29-.44-.22-.99.15-1.36.37-.36.93-.4,1.35-.1h0c6.11,4.36,9.43,9.45,9.87,15.13.4,5.16-1.72,9.84-3.56,12.86-1.93,3.15-3.91,5.14-4.12,5.34-.01.01-.02.02-.02.02Zm-3.39-15.36c1.17,0,2.39.33,2.72,1.63.25,1,.31,2.07.36,3,.05.96.11,1.96.39,2.24.47.47.69.91.85,1.23.09.17.16.33.24.4.05.05.14.12.24.19.4.3,1.23.91.76,1.76-.08.14-.15.27-.23.4-.3.5-.59.97-.78,1.97,2.36-2.95,6.26-8.93,5.75-15.64-.42-5.43-3.63-10.32-9.54-14.53h0c-.16-.11-.29-.02-.34.03-.04.04-.15.17-.04.34l.02.04c.39.59.23,1.4-.35,1.81-.02.01-.04.02-.05.04.18.09.41.2.67.32l.21.1c.5.24.76.64.71,1.08-.08.68-.86,1.24-2.21,1.57.12.2.17.47.17.82,0,.43-.21.78-.59.96-.61.3-1.58.13-2.16-.15-.1.4-.16,1.23.05,1.7.04.1.09.16.13.16.15.01.3.02.43.02.48.02.8.04.96.31.08.14.09.32,0,.48-.08.17-.22.32-.39.43-.39.25-1.7,1.19-1.94,2.81-.2,1.39.43,2.94,1.88,4.62.06.07.16.1.25.08.45-.1,1.12-.22,1.82-.22Z"/></g></svg>